<svg width="21" height="21" viewBox="0 0 21 21" fill="none" xmlns="http://www.w3.org/2000/svg">
    <path d="M19.8308 5.81998C19.0198 4.30444 17.8359 3.02067 16.3908 2.08998C15.083 1.24866 13.597 0.723924 12.0509 0.557462C10.5048 0.391001 8.94123 0.587402 7.48434 1.13106C6.02744 1.67472 4.7174 2.55066 3.65831 3.68927C2.59922 4.82789 1.82027 6.19781 1.38334 7.69019C0.946402 9.18258 0.863531 10.7563 1.14131 12.2863C1.41909 13.8163 2.04985 15.2605 2.9835 16.504C3.91715 17.7476 5.12794 18.7563 6.51968 19.4499C7.91142 20.1436 9.44576 20.5031 11.0008 20.5H11.2908C12.9898 20.4498 14.6481 19.9674 16.1089 19.0983C17.5697 18.2292 18.7848 17.0021 19.6396 15.5328C20.4943 14.0635 20.9604 12.4006 20.9939 10.7012C21.0273 9.0017 20.627 7.32175 19.8308 5.81998ZM10.0008 18.43C8.07893 18.1741 6.31541 17.2289 5.03814 15.7703C3.76087 14.3116 3.05677 12.4388 3.05677 10.5C3.05677 8.56116 3.76087 6.68831 5.03814 5.22968C6.31541 3.77105 8.07893 2.8259 10.0008 2.56998V18.43ZM12.0008 2.56998C12.8653 2.68057 13.7062 2.93047 14.4908 3.30998L12.0008 7.61998V2.56998ZM12.0008 11.57L16.1708 4.39998C16.7856 4.92793 17.3182 5.54473 17.7508 6.22998L12.0008 16.19V11.57ZM13.1508 18.15L18.7408 8.49998C18.9098 9.15333 18.9972 9.82513 19.0008 10.5C18.9995 12.246 18.4271 13.9436 17.3709 15.3339C16.3146 16.7242 14.8326 17.7307 13.1508 18.2V18.15Z" fill="url(#paint0_linear_3310_38044)"/>
    <defs>
        <linearGradient id="paint0_linear_3310_38044" x1="10.9881" y1="0.5" x2="10.9881" y2="20.5" gradientUnits="userSpaceOnUse">
            <stop stop-color="#F7A86F"/>
            <stop offset="1" stop-color="#F07264"/>
        </linearGradient>
    </defs>
</svg>
