<svg width="20" height="21" viewBox="0 0 20 21" fill="none" xmlns="http://www.w3.org/2000/svg">
    <path fill-rule="evenodd" clip-rule="evenodd" d="M10.1975 18.4976C10.1319 18.4992 10.066 18.5 10 18.5C8.96009 18.5 7.96652 18.3016 7.05509 17.9405L14.9703 4.23095C15.8081 4.89608 16.5095 5.7256 17.0257 6.67076L10.1975 18.4976ZM12.7953 17.9981C15.8351 16.8643 18 13.935 18 10.5C18 10.0479 17.9625 9.60464 17.8905 9.17303L12.7953 17.9981ZM13.2605 3.19241L5.30242 16.9763C4.44894 16.3561 3.72279 15.5714 3.1706 14.6687L10.1948 2.50233C11.2847 2.52837 12.3205 2.77238 13.2605 3.19241ZM7.69158 2.83808C4.39869 3.82881 2 6.88428 2 10.5C2 11.1301 2.07286 11.7433 2.2106 12.3314L7.69158 2.83808ZM20 10.5C20 16.0228 15.5228 20.5 10 20.5C4.47715 20.5 0 16.0228 0 10.5C0 4.97715 4.47715 0.5 10 0.5C15.5228 0.5 20 4.97715 20 10.5Z" fill="url(#paint0_linear_3310_38063)"/>
    <defs>
        <linearGradient id="paint0_linear_3310_38063" x1="10" y1="0.5" x2="10" y2="20.5" gradientUnits="userSpaceOnUse">
            <stop stop-color="#F7A86F"/>
            <stop offset="1" stop-color="#F07264"/>
        </linearGradient>
    </defs>
</svg>
