<svg width="26" height="26" viewBox="0 0 26 26" fill="none" xmlns="http://www.w3.org/2000/svg">
    <path d="M24.8956 11.5208C24.7019 11.3256 24.4715 11.1706 24.2176 11.0648C23.9637 10.959 23.6914 10.9046 23.4164 10.9046C23.1414 10.9046 22.8691 10.959 22.6152 11.0648C22.3613 11.1706 22.1309 11.3256 21.9372 11.5208L15.0831 18.3958V2.58333C15.0831 2.0308 14.8636 1.5009 14.4729 1.11019C14.0822 0.719494 13.5523 0.5 12.9997 0.5C12.4472 0.5 11.9173 0.719494 11.5266 1.11019C11.1359 1.5009 10.9164 2.0308 10.9164 2.58333V18.3958L4.06224 11.5208C3.66994 11.1285 3.13786 10.9081 2.58307 10.9081C2.02827 10.9081 1.4962 11.1285 1.1039 11.5208C0.711603 11.9131 0.491211 12.4452 0.491211 13C0.491211 13.5548 0.711603 14.0869 1.1039 14.4792L11.5206 24.8958C11.7187 25.0855 11.9523 25.2342 12.2081 25.3333C12.4574 25.4436 12.7271 25.5005 12.9997 25.5005C13.2724 25.5005 13.542 25.4436 13.7914 25.3333C14.0471 25.2342 14.2808 25.0855 14.4789 24.8958L24.8956 14.4792C25.0908 14.2855 25.2458 14.0551 25.3516 13.8012C25.4574 13.5473 25.5118 13.275 25.5118 13C25.5118 12.725 25.4574 12.4527 25.3516 12.1988C25.2458 11.9449 25.0908 11.7145 24.8956 11.5208Z" fill="url(#paint0_linear_2762_6479)"/>
    <defs>
        <linearGradient id="paint0_linear_2762_6479" x1="13.0015" y1="0.5" x2="13.0015" y2="25.5005" gradientUnits="userSpaceOnUse">
            <stop stop-color="#F7A86F"/>
            <stop offset="1" stop-color="#F07264"/>
        </linearGradient>
    </defs>
</svg>
