<svg width="28" height="28" viewBox="0 0 28 28" fill="none" xmlns="http://www.w3.org/2000/svg">
    <path fill-rule="evenodd" clip-rule="evenodd" d="M0.666504 14C0.666504 21.364 6.63584 27.3334 13.9998 27.3334C21.3638 27.3334 27.3332 21.364 27.3332 14C27.3332 6.63602 21.3638 0.666687 13.9998 0.666687C6.63584 0.666687 0.666504 6.63602 0.666504 14ZM19.3329 13.1565H8.6665C8.31288 13.1565 7.97374 13.016 7.72369 12.766C7.47365 12.5159 7.33317 12.1768 7.33317 11.8232C7.33317 11.4695 7.47365 11.1304 7.72369 10.8803C7.97374 10.6303 8.31288 10.4898 8.6665 10.4898H16.1145L12.7332 7.10849C12.6058 6.98549 12.5042 6.83836 12.4344 6.67569C12.3645 6.51302 12.3277 6.33806 12.3262 6.16102C12.3246 5.98398 12.3584 5.80841 12.4254 5.64455C12.4924 5.48068 12.5915 5.33181 12.7166 5.20662C12.8418 5.08143 12.9907 4.98243 13.1546 4.91539C13.3184 4.84835 13.494 4.81461 13.671 4.81615C13.8481 4.81769 14.023 4.85447 14.1857 4.92435C14.3484 4.99423 14.4955 5.09581 14.6185 5.22315L20.2758 10.8805C20.4001 11.004 20.4987 11.1509 20.566 11.3127C20.6332 11.4745 20.6679 11.6479 20.6679 11.8232C20.6679 11.9984 20.6332 12.1718 20.566 12.3336C20.4987 12.4954 20.4001 12.6423 20.2758 12.7658C20.0258 13.0159 19.6865 13.1565 19.3329 13.1565ZM8.66817 14.8161H19.3346C19.6882 14.8161 20.0273 14.9566 20.2774 15.2066C20.5274 15.4567 20.6679 15.7958 20.6679 16.1494C20.6679 16.5031 20.5274 16.8422 20.2774 17.0922C20.0273 17.3423 19.6882 17.4828 19.3346 17.4828H11.8866L15.2679 20.8641C15.3952 20.9871 15.4968 21.1342 15.5667 21.2969C15.6366 21.4596 15.6733 21.6345 15.6749 21.8116C15.6764 21.9886 15.6427 22.1642 15.5756 22.328C15.5086 22.4919 15.4096 22.6408 15.2844 22.766C15.1592 22.8912 15.0104 22.9902 14.8465 23.0572C14.6826 23.1242 14.5071 23.158 14.33 23.1564C14.153 23.1549 13.978 23.1181 13.8153 23.0482C13.6527 22.9784 13.5056 22.8768 13.3826 22.7494L7.72522 17.0921C7.60098 16.9686 7.50238 16.8217 7.43509 16.6599C7.36781 16.4981 7.33318 16.3246 7.33318 16.1494C7.33318 15.9742 7.36781 15.8007 7.43509 15.639C7.50238 15.4772 7.60098 15.3303 7.72522 15.2068C7.97527 14.9567 8.31455 14.8161 8.66817 14.8161Z" fill="url(#paint0_linear_2713_5811)"/>
    <defs>
        <linearGradient id="paint0_linear_2713_5811" x1="13.9998" y1="0.666687" x2="13.9998" y2="27.3334" gradientUnits="userSpaceOnUse">
            <stop stop-color="#F7A86F"/>
            <stop offset="1" stop-color="#F07264"/>
        </linearGradient>
    </defs>
</svg>
