<svg width="20" height="20" viewBox="0 0 20 20" fill="none" xmlns="http://www.w3.org/2000/svg">
    <path fill-rule="evenodd" clip-rule="evenodd" d="M0 10C0 15.523 4.477 20 10 20C15.523 20 20 15.523 20 10C20 4.477 15.523 0 10 0C4.477 0 0 4.477 0 10ZM15.6569 15.6569C14.1566 17.1571 12.1217 18 10 18C7.87827 18 5.84344 17.1571 4.34315 15.6569C2.84285 14.1566 2 12.1217 2 10C2 7.87827 2.84285 5.84344 4.34315 4.34315C5.84344 2.84285 7.87827 2 10 2C12.1217 2 14.1566 2.84285 15.6569 4.34315C17.1571 5.84344 18 7.87827 18 10C18 12.1217 17.1571 14.1566 15.6569 15.6569ZM5.2929 9.07439C5.48044 9.26192 5.7348 9.36728 6.00001 9.36728H13.9998C14.265 9.36728 14.5195 9.26182 14.707 9.07428C14.8002 8.98163 14.8741 8.87147 14.9246 8.75013C14.9751 8.6288 15.001 8.49869 15.001 8.36728C15.001 8.23587 14.9751 8.10576 14.9246 7.98443C14.8741 7.86309 14.8002 7.75293 14.707 7.66028L10.464 3.41728C10.3718 3.32177 10.2614 3.24559 10.1394 3.19318C10.0174 3.14077 9.88619 3.11318 9.75341 3.11203C9.62063 3.11088 9.48895 3.13618 9.36606 3.18646C9.24316 3.23674 9.13151 3.31099 9.03762 3.40488C8.94372 3.49878 8.86947 3.61043 8.81919 3.73333C8.76891 3.85622 8.74361 3.9879 8.74476 4.12068C8.74592 4.25346 8.7735 4.38468 8.82591 4.50668C8.87832 4.62869 8.9545 4.73903 9.05001 4.83128L11.586 7.36728H6.00001C5.7348 7.36728 5.48044 7.47264 5.2929 7.66017C5.10537 7.84771 5.00001 8.10206 5.00001 8.36728C5.00001 8.6325 5.10537 8.88685 5.2929 9.07439ZM14.7082 10.9049C14.5206 10.7173 14.2663 10.612 14.001 10.612H6.00126C5.73605 10.612 5.48159 10.7175 5.29405 10.905C5.20087 10.9976 5.12692 11.1078 5.07645 11.2291C5.02599 11.3505 5.00002 11.4806 5.00002 11.612C5.00002 11.7434 5.02599 11.8735 5.07645 11.9948C5.12692 12.1162 5.20087 12.2263 5.29405 12.319L9.53705 16.562C9.6293 16.6575 9.73964 16.7337 9.86164 16.7861C9.98365 16.8385 10.1149 16.8661 10.2476 16.8672C10.3804 16.8684 10.5121 16.8431 10.635 16.7928C10.7579 16.7425 10.8696 16.6683 10.9634 16.5744C11.0573 16.4805 11.1316 16.3688 11.1819 16.2459C11.2322 16.123 11.2575 15.9914 11.2563 15.8586C11.2551 15.7258 11.2276 15.5946 11.1752 15.4726C11.1227 15.3506 11.0466 15.2402 10.951 15.148L8.41505 12.612H14.001C14.2663 12.612 14.5206 12.5066 14.7082 12.3191C14.8957 12.1316 15.001 11.8772 15.001 11.612C15.001 11.3468 14.8957 11.0924 14.7082 10.9049Z" fill="url(#paint0_linear_2586_27930)"/>
    <defs>
        <linearGradient id="paint0_linear_2586_27930" x1="10" y1="0" x2="10" y2="20" gradientUnits="userSpaceOnUse">
            <stop stop-color="#F7A86F"/>
            <stop offset="1" stop-color="#F07264"/>
        </linearGradient>
    </defs>
</svg>
