<svg width="20" height="22" viewBox="0 0 20 22" fill="none" xmlns="http://www.w3.org/2000/svg">
    <path d="M2.00008 0.333313C2.3537 0.333313 2.69284 0.473789 2.94289 0.723837C3.19294 0.973886 3.33341 1.31302 3.33341 1.66665V20.3333C3.33341 20.6869 3.19294 21.0261 2.94289 21.2761C2.69284 21.5262 2.3537 21.6666 2.00008 21.6666C1.64646 21.6666 1.30732 21.5262 1.05727 21.2761C0.807224 21.0261 0.666748 20.6869 0.666748 20.3333V1.66665C0.666748 1.31302 0.807224 0.973886 1.05727 0.723837C1.30732 0.473789 1.64646 0.333313 2.00008 0.333313V0.333313ZM18.0001 5.66665C18.3537 5.66665 18.6928 5.80712 18.9429 6.05717C19.1929 6.30722 19.3334 6.64636 19.3334 6.99998V20.3333C19.3334 20.6869 19.1929 21.0261 18.9429 21.2761C18.6928 21.5262 18.3537 21.6666 18.0001 21.6666C17.6465 21.6666 17.3073 21.5262 17.0573 21.2761C16.8072 21.0261 16.6667 20.6869 16.6667 20.3333V6.99998C16.6667 6.64636 16.8072 6.30722 17.0573 6.05717C17.3073 5.80712 17.6465 5.66665 18.0001 5.66665ZM10.0001 11C10.3537 11 10.6928 11.1405 10.9429 11.3905C11.1929 11.6406 11.3334 11.9797 11.3334 12.3333V20.3333C11.3334 20.6869 11.1929 21.0261 10.9429 21.2761C10.6928 21.5262 10.3537 21.6666 10.0001 21.6666C9.64646 21.6666 9.30732 21.5262 9.05727 21.2761C8.80722 21.0261 8.66675 20.6869 8.66675 20.3333V12.3333C8.66675 11.9797 8.80722 11.6406 9.05727 11.3905C9.30732 11.1405 9.64646 11 10.0001 11Z" fill="url(#paint0_linear_2713_5729)"/>
    <defs>
        <linearGradient id="paint0_linear_2713_5729" x1="10.0001" y1="0.333313" x2="10.0001" y2="21.6666" gradientUnits="userSpaceOnUse">
            <stop stop-color="#F7A86F"/>
            <stop offset="1" stop-color="#F07264"/>
        </linearGradient>
    </defs>
</svg>
