<svg width="28" height="29" viewBox="0 0 28 29" fill="none" xmlns="http://www.w3.org/2000/svg">
    <path fill-rule="evenodd" clip-rule="evenodd" d="M7.0408 0.882476C7.48397 1.47057 7.36647 2.30658 6.77838 2.74974C5.12332 3.99692 3.81945 5.65146 2.99377 7.55222C2.70037 8.22763 1.915 8.53731 1.2396 8.24392C0.564189 7.95052 0.254507 7.16515 0.547902 6.48975C1.55708 4.16659 3.15069 2.14438 5.17354 0.620048C5.76163 0.176884 6.59764 0.294377 7.0408 0.882476ZM20.9599 0.882476C21.4031 0.294377 22.2391 0.176884 22.8272 0.620049C24.85 2.14438 26.4436 4.16659 27.4528 6.48975C27.7462 7.16515 27.4365 7.95052 26.7611 8.24392C26.0857 8.53731 25.3003 8.22763 25.0069 7.55222C24.1812 5.65146 22.8774 3.99692 21.2223 2.74974C20.6342 2.30658 20.5167 1.47057 20.9599 0.882476ZM14 4.33333C9.58173 4.33334 6 7.91507 6 12.3333V17.2966C6 17.888 5.76462 18.4541 5.34756 18.8712L4.82823 19.3905C4.74353 19.4752 4.70104 19.518 4.67126 19.5498L4.66834 19.5529L4.6682 19.5569C4.66682 19.6007 4.66667 19.6608 4.66667 19.7813C4.66667 20.0534 4.66716 20.2021 4.67328 20.3101C4.6736 20.3158 4.67392 20.321 4.67424 20.3259C4.67871 20.3262 4.68348 20.3265 4.68856 20.3268C4.7954 20.3328 4.94263 20.3333 5.21274 20.3333H22.7873C23.0574 20.3333 23.2049 20.3328 23.3121 20.3268C23.3168 20.3265 23.3212 20.3262 23.3254 20.326C23.3257 20.3211 23.326 20.3158 23.3263 20.3101C23.3325 20.2021 23.333 20.0533 23.333 19.7813C23.333 19.6616 23.3327 19.6014 23.3313 19.5581L23.3311 19.5524L23.3293 19.5505C23.2991 19.5183 23.2565 19.4754 23.1716 19.3906L22.6522 18.8712C22.2346 18.4536 22 17.8871 22 17.2965V12.3333C22 7.91504 18.4183 4.33332 14 4.33333ZM3.33333 12.3333C3.33333 6.4423 8.10898 1.66668 14 1.66667C19.891 1.66665 24.6667 6.44229 24.6667 12.3333V17.1144L25.0572 17.505C25.068 17.5157 25.0791 17.5268 25.0904 17.5381C25.2138 17.661 25.3703 17.8169 25.4998 17.9973C25.7416 18.3341 25.8983 18.7192 25.9642 19.1207C26.0003 19.3407 25.9999 19.5598 25.9997 19.737C25.9997 19.752 25.9996 19.7668 25.9996 19.7813C25.9996 19.8176 25.9998 19.8549 25.9999 19.893C26.0014 20.2821 26.0032 20.7606 25.8598 21.1859C25.5942 21.9731 24.977 22.5937 24.1863 22.8604C23.7618 23.0036 23.2842 23.0018 22.8982 23.0003C22.8603 23.0001 22.8233 23 22.7873 23H19.3333C19.3333 25.9455 16.9455 28.3333 14 28.3333C11.0545 28.3333 8.66667 25.9455 8.66667 23H5.21274C5.17677 23 5.13978 23.0001 5.10193 23.0003C4.71587 23.0018 4.23915 23.0036 3.81474 22.8604C3.0262 22.5944 2.40615 21.9752 2.13987 21.1858C1.99644 20.7606 1.99825 20.2821 1.99972 19.8931C1.99986 19.8549 2 19.8176 2 19.7813C2 19.766 1.99997 19.7503 1.99994 19.7343C1.99962 19.5594 1.99921 19.34 2.0352 19.1207C2.10158 18.7162 2.26018 18.3317 2.50028 17.9973C2.6303 17.8163 2.7858 17.6613 2.91094 17.5365C2.92173 17.5258 2.9323 17.5152 2.94261 17.5049L3.33333 17.1142V12.3333ZM11.3333 23C11.3333 24.4728 12.5272 25.6667 14 25.6667C15.4728 25.6667 16.6667 24.4728 16.6667 23H11.3333Z" fill="url(#paint0_linear_1_2)"/>
    <defs>
        <linearGradient id="paint0_linear_1_2" x1="14.0003" y1="0.351486" x2="14.0003" y2="28.3333" gradientUnits="userSpaceOnUse">
            <stop stop-color="#F7A86F"/>
            <stop offset="1" stop-color="#F07264"/>
        </linearGradient>
    </defs>
</svg>
