<svg width="28" height="28" viewBox="0 0 28 28" fill="none" xmlns="http://www.w3.org/2000/svg">
    <path fill-rule="evenodd" clip-rule="evenodd" d="M14.0001 24.6667C16.8291 24.6667 19.5422 23.5429 21.5426 21.5425C23.5429 19.5421 24.6667 16.829 24.6667 14C24.6667 11.171 23.5429 8.45794 21.5426 6.45755C19.5422 4.45716 16.8291 3.33335 14.0001 3.33335C11.1711 3.33335 8.458 4.45716 6.45761 6.45755C4.45722 8.45794 3.33341 11.171 3.33341 14C3.33341 16.829 4.45722 19.5421 6.45761 21.5425C8.458 23.5429 11.1711 24.6667 14.0001 24.6667ZM20.6667 12.6667H15.3334V6.00002C15.3334 5.6464 15.1929 5.30726 14.9429 5.05721C14.6928 4.80716 14.3537 4.66669 14.0001 4.66669C13.6465 4.66669 13.3073 4.80716 13.0573 5.05721C12.8072 5.30726 12.6667 5.6464 12.6667 6.00002V14C12.6667 14.3536 12.8072 14.6928 13.0573 14.9428C13.3073 15.1929 13.6465 15.3334 14.0001 15.3334H20.6667C21.0204 15.3334 21.3595 15.1929 21.6096 14.9428C21.8596 14.6928 22.0001 14.3536 22.0001 14C22.0001 13.6464 21.8596 13.3073 21.6096 13.0572C21.3595 12.8072 21.0204 12.6667 20.6667 12.6667Z" fill="url(#paint0_linear_2713_9544)"/>
    <path fill-rule="evenodd" clip-rule="evenodd" d="M0.666748 14C0.666748 21.364 6.63608 27.3334 14.0001 27.3334C21.3641 27.3334 27.3334 21.364 27.3334 14C27.3334 6.63602 21.3641 0.666687 14.0001 0.666687C6.63608 0.666687 0.666748 6.63602 0.666748 14ZM21.5426 21.5425C19.5422 23.5429 16.8291 24.6667 14.0001 24.6667C11.1711 24.6667 8.458 23.5429 6.45761 21.5425C4.45722 19.5421 3.33341 16.829 3.33341 14C3.33341 11.171 4.45722 8.45794 6.45761 6.45755C8.458 4.45716 11.1711 3.33335 14.0001 3.33335C16.8291 3.33335 19.5422 4.45716 21.5426 6.45755C23.5429 8.45794 24.6667 11.171 24.6667 14C24.6667 16.829 23.5429 19.5421 21.5426 21.5425Z" fill="url(#paint1_linear_2713_9544)"/>
    <defs>
        <linearGradient id="paint0_linear_2713_9544" x1="14.0001" y1="0.666687" x2="14.0001" y2="27.3334" gradientUnits="userSpaceOnUse">
            <stop stop-color="#F7A86F"/>
            <stop offset="1" stop-color="#F07264"/>
        </linearGradient>
        <linearGradient id="paint1_linear_2713_9544" x1="14.0001" y1="0.666687" x2="14.0001" y2="27.3334" gradientUnits="userSpaceOnUse">
            <stop stop-color="#F7A86F"/>
            <stop offset="1" stop-color="#F07264"/>
        </linearGradient>
    </defs>
</svg>
