<svg width="21" height="16" viewBox="0 0 21 16" fill="none" xmlns="http://www.w3.org/2000/svg">
    <path d="M17.4206 4.22C16.8096 2.81601 15.7551 1.65108 14.4187 0.903729C13.0823 0.156379 11.5377 -0.132166 10.0216 0.0823111C8.5055 0.296788 7.10155 1.00245 6.02488 2.09118C4.94821 3.1799 4.25821 4.59162 4.06062 6.11C3.10721 6.33832 2.27084 6.90884 1.71036 7.71319C1.14988 8.51755 0.904307 9.49973 1.02029 10.4732C1.13627 11.4467 1.60572 12.3437 2.33949 12.9939C3.07326 13.644 4.02025 14.0021 5.00062 14C5.26584 14 5.52019 13.8946 5.70773 13.7071C5.89527 13.5196 6.00062 13.2652 6.00062 13C6.00062 12.7348 5.89527 12.4804 5.70773 12.2929C5.52019 12.1054 5.26584 12 5.00062 12C4.47019 12 3.96148 11.7893 3.58641 11.4142C3.21134 11.0391 3.00062 10.5304 3.00062 10C3.00062 9.46957 3.21134 8.96086 3.58641 8.58579C3.96148 8.21072 4.47019 8 5.00062 8C5.26584 8 5.52019 7.89464 5.70773 7.70711C5.89527 7.51957 6.00062 7.26522 6.00062 7C6.00318 5.81728 6.42491 4.67376 7.19089 3.77259C7.95688 2.87142 9.01751 2.27095 10.1844 2.07788C11.3512 1.8848 12.5488 2.11161 13.5642 2.71801C14.5796 3.32441 15.3472 4.27114 15.7306 5.39C15.7878 5.56184 15.8905 5.71493 16.0279 5.83294C16.1653 5.95094 16.3321 6.02942 16.5106 6.06C17.1767 6.18587 17.7805 6.53361 18.2236 7.04654C18.6668 7.55947 18.9232 8.20736 18.951 8.88464C18.9789 9.56192 18.7765 10.2287 18.3769 10.7762C17.9774 11.3238 17.4041 11.7199 16.7506 11.9C16.4934 11.9663 16.273 12.1321 16.138 12.3609C16.0029 12.5897 15.9643 12.8627 16.0306 13.12C16.0969 13.3773 16.2627 13.5976 16.4915 13.7327C16.7203 13.8677 16.9934 13.9063 17.2506 13.84C18.303 13.5619 19.2359 12.948 19.9076 12.0915C20.5794 11.2349 20.9532 10.1826 20.9725 9.09427C20.9917 8.00593 20.6552 6.94104 20.0142 6.06132C19.3731 5.1816 18.4625 4.5351 17.4206 4.22ZM11.7106 6.29C11.6155 6.19896 11.5034 6.1276 11.3806 6.08C11.1372 5.97998 10.8641 5.97998 10.6206 6.08C10.4979 6.1276 10.3857 6.19896 10.2906 6.29L7.29062 9.29C7.10232 9.47831 6.99653 9.7337 6.99653 10C6.99653 10.2663 7.10232 10.5217 7.29062 10.71C7.47893 10.8983 7.73432 11.0041 8.00062 11.0041C8.26692 11.0041 8.52232 10.8983 8.71062 10.71L10.0006 9.41V15C10.0006 15.2652 10.106 15.5196 10.2935 15.7071C10.4811 15.8946 10.7354 16 11.0006 16C11.2658 16 11.5202 15.8946 11.7077 15.7071C11.8953 15.5196 12.0006 15.2652 12.0006 15V9.41L13.2906 10.71C13.3836 10.8037 13.4942 10.8781 13.616 10.9289C13.7379 10.9797 13.8686 11.0058 14.0006 11.0058C14.1326 11.0058 14.2633 10.9797 14.3852 10.9289C14.5071 10.8781 14.6177 10.8037 14.7106 10.71C14.8044 10.617 14.8787 10.5064 14.9295 10.3846C14.9803 10.2627 15.0064 10.132 15.0064 10C15.0064 9.86799 14.9803 9.73728 14.9295 9.61543C14.8787 9.49357 14.8044 9.38297 14.7106 9.29L11.7106 6.29Z" fill="url(#paint0_linear_2583_30399)"/>
    <defs>
        <linearGradient id="paint0_linear_2583_30399" x1="10.9827" y1="0.0132904" x2="10.9827" y2="16" gradientUnits="userSpaceOnUse">
            <stop stop-color="#F7A86F"/>
            <stop offset="1" stop-color="#F07264"/>
        </linearGradient>
    </defs>
</svg>
