<svg width="14" height="18" viewBox="0 0 14 18" fill="none" xmlns="http://www.w3.org/2000/svg">
    <path d="M4.3512 6.29629L4.3497 6.29704L4.34745 6.29854L4.3512 6.29629ZM11.8167 6.15604C11.7645 6.1057 11.7066 6.06165 11.6442 6.02479C11.5558 5.97276 11.4577 5.9394 11.3559 5.92679C11.2541 5.91418 11.1508 5.92258 11.0524 5.95147C10.954 5.98036 10.8626 6.02913 10.7838 6.09476C10.7049 6.16039 10.6404 6.24149 10.5942 6.33304C10.3359 6.84223 9.97957 7.2954 9.54569 7.66654C9.61222 7.2927 9.64585 6.91375 9.64619 6.53404C9.64762 5.37915 9.34299 4.2445 8.76332 3.24561C8.18365 2.24673 7.34964 1.41929 6.3462 0.847544C6.23562 0.784715 6.11088 0.751038 5.98371 0.749677C5.85654 0.748316 5.73111 0.779316 5.61921 0.839764C5.50732 0.900212 5.41263 0.988121 5.34405 1.09523C5.27548 1.20233 5.23527 1.32512 5.2272 1.45204C5.1852 2.16312 4.9993 2.85827 4.68074 3.49538C4.36219 4.13249 3.91761 4.69831 3.37395 5.15854L3.20145 5.29879C2.63266 5.68148 2.12921 6.15327 1.71045 6.69604C1.05965 7.51588 0.608839 8.47607 0.393759 9.50048C0.178679 10.5249 0.205251 11.5853 0.471366 12.5977C0.737482 13.61 1.23582 14.5464 1.92686 15.3326C2.61789 16.1188 3.48262 16.7332 4.45245 17.127C4.56631 17.1734 4.68982 17.191 4.81211 17.1784C4.93439 17.1658 5.05171 17.1233 5.15372 17.0547C5.25573 16.9861 5.33932 16.8935 5.39712 16.785C5.45492 16.6765 5.48517 16.5555 5.4852 16.4325C5.48457 16.3531 5.47193 16.2742 5.4477 16.1985C5.27989 15.5678 5.23156 14.9113 5.3052 14.2628C6.01505 15.6012 7.15436 16.6621 8.53995 17.2748C8.709 17.3504 8.90008 17.3605 9.0762 17.3033C10.1708 16.9499 11.1569 16.3226 11.9408 15.4808C12.7246 14.639 13.2803 13.6108 13.5549 12.4939C13.8295 11.3769 13.8139 10.2083 13.5097 9.09899C13.2055 7.98972 12.6227 6.97666 11.8167 6.15604ZM8.88795 15.7793C8.23416 15.448 7.65742 14.9829 7.19521 14.414C6.73301 13.8452 6.39569 13.1855 6.20519 12.4778C6.14695 12.2395 6.10189 11.9981 6.0702 11.7548C6.04885 11.5999 5.97962 11.4555 5.87217 11.3419C5.76472 11.2282 5.62444 11.151 5.47095 11.121C5.42375 11.1119 5.37577 11.1074 5.3277 11.1075C5.19592 11.1074 5.06643 11.142 4.95228 11.2078C4.83813 11.2737 4.74333 11.3684 4.67745 11.4825C4.05528 12.556 3.74248 13.7807 3.7737 15.021C3.22631 14.5956 2.76883 14.0657 2.42776 13.4621C2.08669 12.8585 1.86882 12.1932 1.78678 11.5048C1.70473 10.8164 1.76015 10.1185 1.94982 9.45165C2.13949 8.7848 2.45963 8.16224 2.8917 7.62004C3.21976 7.19392 3.61552 6.82452 4.0632 6.52654C4.08279 6.51398 4.10157 6.5002 4.11945 6.48529C4.11945 6.48529 4.34145 6.30154 4.34895 6.29779C5.41784 5.39408 6.17817 4.17939 6.52395 2.82304C7.34102 3.57857 7.88577 4.58274 8.0736 5.67962C8.26143 6.7765 8.08183 7.9047 7.5627 8.88904C7.49399 9.02043 7.46577 9.16922 7.4816 9.31664C7.49742 9.46405 7.55659 9.60347 7.65161 9.71728C7.74664 9.83108 7.87326 9.91417 8.01549 9.95605C8.15772 9.99792 8.30916 9.9967 8.4507 9.95254C9.59949 9.59226 10.6103 8.88869 11.3472 7.93654C11.7902 8.59072 12.0799 9.33645 12.1946 10.1181C12.3093 10.8998 12.2461 11.6974 12.0097 12.4512C11.7733 13.2051 11.3698 13.8959 10.8293 14.4722C10.2888 15.0484 9.62518 15.4952 8.88795 15.7793Z" fill="url(#paint0_linear_4810_5138)"/>
    <defs>
        <linearGradient id="paint0_linear_4810_5138" x1="6.99996" y1="0.749634" x2="6.99996" y2="17.3399" gradientUnits="userSpaceOnUse">
            <stop stop-color="#F7A86F"/>
            <stop offset="1" stop-color="#F07264"/>
        </linearGradient>
    </defs>
</svg>
