<svg width="22" height="28" viewBox="0 0 22 28" fill="none" xmlns="http://www.w3.org/2000/svg">
    <path d="M21.4862 9.46668C21.3869 9.2383 21.2256 9.04231 21.0205 8.90092C20.8155 8.75953 20.575 8.67838 20.3262 8.66668H14.2196L15.9129 2.34668C15.9668 2.14891 15.9744 1.94137 15.9351 1.74019C15.8958 1.539 15.8106 1.34959 15.6862 1.18668C15.5607 1.02353 15.399 0.891686 15.2139 0.801469C15.0289 0.711252 14.8254 0.665116 14.6196 0.666676H5.28623C4.98522 0.656365 4.68958 0.748275 4.44746 0.927438C4.20535 1.1066 4.03103 1.36246 3.9529 1.65334L0.379566 14.9867C0.325201 15.1881 0.318855 15.3994 0.361038 15.6037C0.403221 15.8081 0.492757 15.9996 0.622444 16.163C0.752132 16.3264 0.918354 16.4571 1.10774 16.5446C1.29713 16.6321 1.50441 16.6739 1.7129 16.6667H6.84623L4.4329 25.6533C4.35383 25.9431 4.37493 26.2511 4.49277 26.5274C4.61061 26.8037 4.8183 27.0321 5.08218 27.1756C5.34606 27.3191 5.65066 27.3694 5.94664 27.3181C6.24261 27.2669 6.51262 27.1172 6.7129 26.8933L21.2462 10.8933C21.4193 10.7039 21.534 10.4685 21.5765 10.2154C21.6191 9.96233 21.5878 9.70236 21.4862 9.46668ZM8.4329 21.04L9.8729 15.7067C9.93306 15.506 9.94509 15.294 9.90803 15.0879C9.87096 14.8817 9.78584 14.6871 9.65957 14.52C9.53263 14.3551 9.36883 14.2221 9.18129 14.1318C8.99375 14.0415 8.78768 13.9964 8.57957 14H3.45957L6.3129 3.33334H12.8862L11.1929 9.65334C11.1385 9.85475 11.1322 10.0661 11.1744 10.2704C11.2166 10.4747 11.3061 10.6663 11.4358 10.8297C11.5655 10.9931 11.7317 11.1238 11.9211 11.2113C12.1105 11.2987 12.3177 11.3406 12.5262 11.3333H17.2862L8.4329 21.04Z" fill="url(#paint0_linear_2716_33453)"/>
    <defs>
        <linearGradient id="paint0_linear_2716_33453" x1="10.9643" y1="0.665894" x2="10.9643" y2="27.3377" gradientUnits="userSpaceOnUse">
            <stop stop-color="#F7A86F"/>
            <stop offset="1" stop-color="#F07264"/>
        </linearGradient>
    </defs>
</svg>
