<svg width="26" height="27" viewBox="0 0 26 27" fill="none" xmlns="http://www.w3.org/2000/svg">
    <path d="M23 26.5H17C16.338 26.4967 15.704 26.2323 15.2359 25.7641C14.7677 25.296 14.5033 24.662 14.5 24V18.5H11.5V24C11.4967 24.662 11.2323 25.296 10.7641 25.7641C10.296 26.2323 9.66203 26.4967 9 26.5H3C2.33797 26.4967 1.70399 26.2323 1.23586 25.7641C0.767733 25.296 0.503286 24.662 0.5 24V12.4375C0.500825 12.0886 0.574653 11.7438 0.716738 11.4252C0.858823 11.1066 1.06602 10.8212 1.325 10.5875L11.3125 1.5C11.7734 1.07837 12.3754 0.844543 13 0.844543C13.6246 0.844543 14.2266 1.07837 14.6875 1.5L24.6875 10.5875C24.9424 10.8238 25.1461 11.1099 25.2858 11.4281C25.4256 11.7464 25.4985 12.0899 25.5 12.4375V24C25.4967 24.662 25.2323 25.296 24.7641 25.7641C24.296 26.2323 23.662 26.4967 23 26.5ZM17.5 23.5H22.5V12.6625L13 4.025L3.5 12.6625V23.5H8.5V18C8.50329 17.338 8.76773 16.704 9.23586 16.2359C9.70399 15.7677 10.338 15.5033 11 15.5H15C15.662 15.5033 16.296 15.7677 16.7641 16.2359C17.2323 16.704 17.4967 17.338 17.5 18V23.5Z" fill="url(#paint0_linear_2713_9850)"/>
    <path d="M17.5 23.5H22.5V12.6625L13 4.025L3.5 12.6625V23.5H8.5V18C8.50329 17.338 8.76773 16.704 9.23586 16.2359C9.70399 15.7677 10.338 15.5033 11 15.5H15C15.662 15.5033 16.296 15.7677 16.7641 16.2359C17.2323 16.704 17.4967 17.338 17.5 18V23.5Z" fill="url(#paint1_linear_2713_9850)"/>
    <defs>
        <linearGradient id="paint0_linear_2713_9850" x1="13" y1="0.844543" x2="13" y2="26.5" gradientUnits="userSpaceOnUse">
            <stop stop-color="#F7A86F"/>
            <stop offset="1" stop-color="#F07264"/>
        </linearGradient>
        <linearGradient id="paint1_linear_2713_9850" x1="13" y1="0.844543" x2="13" y2="26.5" gradientUnits="userSpaceOnUse">
            <stop stop-color="#F7A86F"/>
            <stop offset="1" stop-color="#F07264"/>
        </linearGradient>
    </defs>
</svg>
