<svg width="22" height="22" viewBox="0 0 22 22" fill="none" xmlns="http://www.w3.org/2000/svg">
    <path d="M19.9996 3.40994L20.7096 2.70994C20.8979 2.52164 21.0037 2.26624 21.0037 1.99994C21.0037 1.73364 20.8979 1.47824 20.7096 1.28994C20.5213 1.10164 20.2659 0.99585 19.9996 0.99585C19.7333 0.99585 19.4779 1.10164 19.2896 1.28994L17.8896 2.69994L15.0596 5.52994L8.74961 11.8299C7.71565 11.1478 6.46528 10.8737 5.24078 11.0608C4.01628 11.248 2.90483 11.883 2.12179 12.8428C1.33876 13.8026 0.939896 15.0189 1.00248 16.2561C1.06507 17.4932 1.58466 18.6631 2.46056 19.539C3.33647 20.4149 4.50633 20.9345 5.74346 20.9971C6.9806 21.0597 8.19693 20.6608 9.15676 19.8778C10.1166 19.0947 10.7516 17.9833 10.9387 16.7588C11.1258 15.5343 10.8518 14.2839 10.1696 13.2499L15.7596 7.64994L17.8796 9.77994C17.9728 9.87252 18.0834 9.94583 18.205 9.99569C18.3265 10.0455 18.4567 10.071 18.5881 10.0705C18.7195 10.07 18.8496 10.0437 18.9708 9.99298C19.092 9.94227 19.202 9.86818 19.2946 9.77494C19.3872 9.6817 19.4605 9.57114 19.5104 9.44957C19.5602 9.328 19.5856 9.1978 19.5852 9.06641C19.5847 8.93501 19.5584 8.80499 19.5076 8.68378C19.4569 8.56256 19.3828 8.45252 19.2896 8.35994L17.1696 6.23994L18.5896 4.82994L19.2896 5.52994C19.3822 5.62318 19.4922 5.69727 19.6134 5.74798C19.7347 5.79869 19.8647 5.82503 19.9961 5.8255C20.1275 5.82596 20.2577 5.80054 20.3792 5.75069C20.5008 5.70083 20.6114 5.62752 20.7046 5.53494C20.7978 5.44236 20.8719 5.33232 20.9226 5.2111C20.9734 5.08989 20.9997 4.95987 21.0002 4.82848C21.0006 4.69708 20.9752 4.56688 20.9254 4.44531C20.8755 4.32374 20.8022 4.21318 20.7096 4.11994L19.9996 3.40994ZM5.99961 18.9999C5.40626 18.9999 4.82624 18.824 4.3329 18.4944C3.83955 18.1647 3.45503 17.6962 3.22797 17.148C3.00091 16.5998 2.9415 15.9966 3.05725 15.4147C3.17301 14.8327 3.45873 14.2982 3.87829 13.8786C4.29785 13.4591 4.83239 13.1733 5.41434 13.0576C5.99628 12.9418 6.59948 13.0012 7.14766 13.2283C7.69584 13.4554 8.16437 13.8399 8.49402 14.3332C8.82366 14.8266 8.99961 15.4066 8.99961 15.9999C8.99961 16.7956 8.68354 17.5587 8.12093 18.1213C7.55832 18.6839 6.79526 18.9999 5.99961 18.9999Z" fill="url(#paint0_linear_2583_11609)"/>
    <defs>
        <linearGradient id="paint0_linear_2583_11609" x1="10.9999" y1="0.99585" x2="10.9999" y2="21.0035" gradientUnits="userSpaceOnUse">
            <stop stop-color="#F7A86F"/>
            <stop offset="1" stop-color="#F07264"/>
        </linearGradient>
    </defs>
</svg>
