<svg width="28" height="28" viewBox="0 0 28 28" fill="none" xmlns="http://www.w3.org/2000/svg">
    <path fill-rule="evenodd" clip-rule="evenodd" d="M13.9999 19.3333L25.3332 12.8933V12.84C25.4854 12.7518 25.6535 12.6946 25.8279 12.6717C26.0022 12.6488 26.1794 12.6606 26.3492 12.7065C26.519 12.7523 26.678 12.8313 26.8172 12.9389C26.9563 13.0465 27.0728 13.1805 27.1599 13.3333C27.3337 13.6395 27.3794 14.002 27.287 14.3417C27.1946 14.6814 26.9715 14.9708 26.6665 15.1467L14.6665 22.08C14.4639 22.197 14.2339 22.2586 13.9999 22.2586C13.7658 22.2586 13.5359 22.197 13.3332 22.08L1.33321 15.1467C1.02824 14.9708 0.805205 14.6814 0.712782 14.3417C0.62036 14.002 0.666048 13.6395 0.839878 13.3333C0.926985 13.1805 1.04346 13.0465 1.18259 12.9389C1.32172 12.8313 1.48075 12.7523 1.65054 12.7065C1.82033 12.6606 1.99751 12.6488 2.17188 12.6717C2.34625 12.6946 2.51437 12.7518 2.66654 12.84L13.9999 19.3333ZM13.9999 24.6667L25.3332 18.2267V18.1733C25.4854 18.0852 25.6535 18.028 25.8279 18.0051C26.0022 17.9822 26.1794 17.994 26.3492 18.0398C26.519 18.0857 26.678 18.1647 26.8172 18.2723C26.9563 18.3798 27.0728 18.5139 27.1599 18.6667C27.3337 18.9728 27.3794 19.3353 27.287 19.675C27.1946 20.0147 26.9715 20.3041 26.6665 20.48L14.6665 27.4133C14.4639 27.5303 14.2339 27.592 13.9999 27.592C13.7658 27.592 13.5359 27.5303 13.3332 27.4133L1.33321 20.48C1.02824 20.3041 0.805205 20.0147 0.712782 19.675C0.62036 19.3353 0.666048 18.9728 0.839878 18.6667C0.926985 18.5139 1.04346 18.3798 1.18259 18.2723C1.32172 18.1647 1.48075 18.0857 1.65054 18.0398C1.82033 17.994 1.99751 17.9822 2.17188 18.0051C2.34625 18.028 2.51437 18.0852 2.66654 18.1733L13.9999 24.6667Z" fill="url(#paint0_linear_2713_82)"/>
    <path fill-rule="evenodd" clip-rule="evenodd" d="M1.33321 9.81332L13.3332 16.7467C13.5359 16.8637 13.7658 16.9253 13.9999 16.9253C14.2339 16.9253 14.4639 16.8637 14.6665 16.7467L26.6665 9.81332C26.8681 9.69698 27.0356 9.52993 27.1526 9.32877C27.2695 9.1276 27.3318 8.89934 27.3332 8.66665C27.3341 8.43171 27.273 8.20068 27.1559 7.99698C27.0388 7.79328 26.87 7.62413 26.6665 7.50665L14.6665 0.586653C14.4639 0.469628 14.2339 0.40802 13.9999 0.40802C13.7658 0.40802 13.5359 0.469628 13.3332 0.586653L1.33321 7.50665C1.12974 7.62413 0.96092 7.79328 0.843849 7.99698C0.726778 8.20068 0.665612 8.43171 0.666545 8.66665C0.667949 8.89934 0.730223 9.1276 0.847177 9.32877C0.964132 9.52993 1.13169 9.69698 1.33321 9.81332ZM23.3332 8.66665L13.9999 3.33332L4.66654 8.66665L13.9999 14L23.3332 8.66665Z" fill="url(#paint1_linear_2713_82)"/>
    <path d="M13.9999 3.33332L23.3332 8.66665L13.9999 14L4.66654 8.66665L13.9999 3.33332Z" fill="url(#paint2_linear_2713_82)"/>
    <defs>
        <linearGradient id="paint0_linear_2713_82" x1="13.9999" y1="0.40802" x2="13.9999" y2="27.592" gradientUnits="userSpaceOnUse">
            <stop stop-color="#F7A86F"/>
            <stop offset="1" stop-color="#F07264"/>
        </linearGradient>
        <linearGradient id="paint1_linear_2713_82" x1="13.9999" y1="0.40802" x2="13.9999" y2="27.592" gradientUnits="userSpaceOnUse">
            <stop stop-color="#F7A86F"/>
            <stop offset="1" stop-color="#F07264"/>
        </linearGradient>
        <linearGradient id="paint2_linear_2713_82" x1="13.9999" y1="0.40802" x2="13.9999" y2="27.592" gradientUnits="userSpaceOnUse">
            <stop stop-color="#F7A86F"/>
            <stop offset="1" stop-color="#F07264"/>
        </linearGradient>
    </defs>
</svg>
