<svg width="16" height="20" viewBox="0 0 16 20" fill="none" xmlns="http://www.w3.org/2000/svg">
    <path d="M13 6V5C13 2.243 10.757 0 8 0C5.243 0 3 2.243 3 5V8H2C0.897 8 0 8.897 0 10V18C0 19.103 0.897 20 2 20H14C15.103 20 16 19.103 16 18V10C16 8.897 15.103 8 14 8H5V5C5 3.346 6.346 2 8 2C9.654 2 11 3.346 11 5V6H13ZM14 10L14.002 18H2V10H14Z" fill="url(#paint0_linear_2583_29412)"/>
    <defs>
        <linearGradient id="paint0_linear_2583_29412" x1="8" y1="0" x2="8" y2="20" gradientUnits="userSpaceOnUse">
            <stop stop-color="#F7A86F"/>
            <stop offset="1" stop-color="#F07264"/>
        </linearGradient>
    </defs>
</svg>
