<svg width="16" height="21" viewBox="0 0 16 21" fill="none" xmlns="http://www.w3.org/2000/svg">
    <path d="M11.995 10.5C11.995 10.7652 11.8897 11.0196 11.7021 11.2071C11.5146 11.3946 11.2602 11.5 10.995 11.5H6.40501L8.70501 13.79C8.79874 13.883 8.87314 13.9936 8.9239 14.1154C8.97467 14.2373 9.00081 14.368 9.00081 14.5C9.00081 14.632 8.97467 14.7627 8.9239 14.8846C8.87314 15.0064 8.79874 15.117 8.70501 15.21C8.61205 15.3037 8.50145 15.3781 8.37959 15.4289C8.25773 15.4797 8.12703 15.5058 7.99501 15.5058C7.863 15.5058 7.7323 15.4797 7.61044 15.4289C7.48858 15.3781 7.37798 15.3037 7.28501 15.21L3.28501 11.21C3.19397 11.1149 3.12261 11.0028 3.07501 10.88C2.975 10.6365 2.975 10.3635 3.07501 10.12C3.12261 9.99725 3.19397 9.8851 3.28501 9.79L7.28501 5.79C7.37825 5.69676 7.48894 5.6228 7.61076 5.57234C7.73259 5.52188 7.86315 5.49591 7.99501 5.49591C8.12687 5.49591 8.25744 5.52188 8.37926 5.57234C8.50108 5.6228 8.61177 5.69676 8.70501 5.79C8.79825 5.88324 8.87221 5.99393 8.92267 6.11575C8.97313 6.23757 8.99911 6.36814 8.99911 6.5C8.99911 6.63186 8.97313 6.76243 8.92267 6.88425C8.87221 7.00607 8.79825 7.11676 8.70501 7.21L6.40501 9.5H10.995C11.2602 9.5 11.5146 9.60536 11.7021 9.79289C11.8897 9.98043 11.995 10.2348 11.995 10.5ZM13 0.5H3C2.20435 0.5 1.44129 0.816071 0.87868 1.37868C0.316071 1.94129 0 2.70435 0 3.5V6.5C0 6.76522 0.105357 7.01957 0.292893 7.20711C0.48043 7.39464 0.734784 7.5 1 7.5C1.26522 7.5 1.51957 7.39464 1.70711 7.20711C1.89464 7.01957 2 6.76522 2 6.5V3.5C2 3.23478 2.10536 2.98043 2.29289 2.79289C2.48043 2.60536 2.73478 2.5 3 2.5H13C13.2652 2.5 13.5196 2.60536 13.7071 2.79289C13.8946 2.98043 14 3.23478 14 3.5V17.5C14 17.7652 13.8946 18.0196 13.7071 18.2071C13.5196 18.3946 13.2652 18.5 13 18.5H3C2.73478 18.5 2.48043 18.3946 2.29289 18.2071C2.10536 18.0196 2 17.7652 2 17.5V14.5C2 14.2348 1.89464 13.9804 1.70711 13.7929C1.51957 13.6054 1.26522 13.5 1 13.5C0.734784 13.5 0.48043 13.6054 0.292893 13.7929C0.105357 13.9804 0 14.2348 0 14.5V17.5C0 18.2956 0.316071 19.0587 0.87868 19.6213C1.44129 20.1839 2.20435 20.5 3 20.5H13C13.7956 20.5 14.5587 20.1839 15.1213 19.6213C15.6839 19.0587 16 18.2956 16 17.5V3.5C16 2.70435 15.6839 1.94129 15.1213 1.37868C14.5587 0.816071 13.7956 0.5 13 0.5Z" fill="url(#paint0_linear_3342_38384)"/>
    <defs>
        <linearGradient id="paint0_linear_3342_38384" x1="8" y1="0.5" x2="8" y2="20.5" gradientUnits="userSpaceOnUse">
            <stop stop-color="#F7A86F"/>
            <stop offset="1" stop-color="#F07264"/>
        </linearGradient>
    </defs>
</svg>
