<svg width="28" height="26" viewBox="0 0 28 26" fill="none" xmlns="http://www.w3.org/2000/svg">
    <path d="M26.8535 14.3334C26.661 14.1743 26.4278 14.0724 26.1803 14.0394C25.9327 14.0064 25.6809 14.0436 25.4535 14.1467C24.0436 14.7919 22.5107 15.124 20.9602 15.12C18.092 15.1166 15.3415 13.9793 13.3084 11.9562C11.2753 9.93306 10.1244 7.18818 10.1068 4.32004C10.1129 3.42115 10.2248 2.5261 10.4402 1.65337C10.4859 1.42076 10.4687 1.18016 10.3905 0.956378C10.3123 0.732592 10.1758 0.533708 9.99517 0.380214C9.81451 0.226721 9.59619 0.124169 9.36271 0.0831251C9.12923 0.0420807 8.88903 0.0640279 8.66685 0.146706C6.57661 1.08658 4.75961 2.54239 3.38653 4.37735C2.01344 6.21231 1.12935 8.36621 0.817313 10.6367C0.505272 12.9072 0.775521 15.2197 1.60267 17.3571C2.42983 19.4944 3.78673 21.3864 5.54591 22.8553C7.3051 24.3242 9.40882 25.3219 11.6594 25.7545C13.9101 26.187 16.2337 26.0404 18.4121 25.3283C20.5905 24.6163 22.5521 23.3621 24.1127 21.6837C25.6733 20.0053 26.7816 17.9577 27.3335 15.7334C27.4007 15.4787 27.391 15.2098 27.3056 14.9607C27.2202 14.7115 27.0629 14.4932 26.8535 14.3334ZM14.1868 23.2534C11.9492 23.2376 9.77112 22.5305 7.95084 21.229C6.13056 19.9275 4.75707 18.0952 4.01842 15.9829C3.27978 13.8706 3.2121 11.5816 3.82463 9.42938C4.43717 7.27714 5.69999 5.36684 7.44018 3.96004V4.32004C7.44371 7.90468 8.86927 11.3415 11.404 13.8762C13.9387 16.411 17.3755 17.8365 20.9602 17.84C21.9014 17.8435 22.8402 17.7451 23.7602 17.5467C22.8401 19.2874 21.4621 20.7438 19.7751 21.7589C18.088 22.774 16.1558 23.3091 14.1868 23.3067V23.2534Z" fill="black"/>
    <path d="M26.8535 14.3334C26.661 14.1743 26.4278 14.0724 26.1803 14.0394C25.9327 14.0064 25.6809 14.0436 25.4535 14.1467C24.0436 14.7919 22.5107 15.124 20.9602 15.12C18.092 15.1166 15.3415 13.9793 13.3084 11.9562C11.2753 9.93306 10.1244 7.18818 10.1068 4.32004C10.1129 3.42115 10.2248 2.5261 10.4402 1.65337C10.4859 1.42076 10.4687 1.18016 10.3905 0.956378C10.3123 0.732592 10.1758 0.533708 9.99517 0.380214C9.81451 0.226721 9.59619 0.124169 9.36271 0.0831251C9.12923 0.0420807 8.88903 0.0640279 8.66685 0.146706C6.57661 1.08658 4.75961 2.54239 3.38653 4.37735C2.01344 6.21231 1.12935 8.36621 0.817313 10.6367C0.505272 12.9072 0.775521 15.2197 1.60267 17.3571C2.42983 19.4944 3.78673 21.3864 5.54591 22.8553C7.3051 24.3242 9.40882 25.3219 11.6594 25.7545C13.9101 26.187 16.2337 26.0404 18.4121 25.3283C20.5905 24.6163 22.5521 23.3621 24.1127 21.6837C25.6733 20.0053 26.7816 17.9577 27.3335 15.7334C27.4007 15.4787 27.391 15.2098 27.3056 14.9607C27.2202 14.7115 27.0629 14.4932 26.8535 14.3334ZM14.1868 23.2534C11.9492 23.2376 9.77112 22.5305 7.95084 21.229C6.13056 19.9275 4.75707 18.0952 4.01842 15.9829C3.27978 13.8706 3.2121 11.5816 3.82463 9.42938C4.43717 7.27714 5.69999 5.36684 7.44018 3.96004V4.32004C7.44371 7.90468 8.86927 11.3415 11.404 13.8762C13.9387 16.411 17.3755 17.8365 20.9602 17.84C21.9014 17.8435 22.8402 17.7451 23.7602 17.5467C22.8401 19.2874 21.4621 20.7438 19.7751 21.7589C18.088 22.774 16.1558 23.3091 14.1868 23.3067V23.2534Z" fill="url(#paint0_linear_4523_4212)"/>
    <defs>
        <linearGradient id="paint0_linear_4523_4212" x1="14.0345" y1="0.0629883" x2="14.0345" y2="25.9975" gradientUnits="userSpaceOnUse">
            <stop stop-color="#F7A86F"/>
            <stop offset="1" stop-color="#F07264"/>
        </linearGradient>
    </defs>
</svg>
