<svg width="27" height="28" viewBox="0 0 27 28" fill="none" xmlns="http://www.w3.org/2000/svg">
    <path d="M24.5335 14.8799C24.3198 14.6366 24.2019 14.3238 24.2019 13.9999C24.2019 13.6761 24.3198 13.3633 24.5335 13.1199L26.2402 11.1999C26.4282 10.9902 26.545 10.7262 26.5738 10.446C26.6025 10.1657 26.5417 9.88352 26.4002 9.63994L23.7335 5.02661C23.5934 4.7833 23.38 4.59044 23.1239 4.47552C22.8677 4.3606 22.5818 4.32949 22.3069 4.38661L19.8002 4.89328C19.4812 4.95918 19.1492 4.90606 18.8667 4.74394C18.5842 4.58182 18.3709 4.32192 18.2669 4.01328L17.4535 1.57327C17.3641 1.30845 17.1937 1.07843 16.9664 0.915731C16.7391 0.753033 16.4664 0.665887 16.1869 0.666608H10.8535C10.5628 0.651432 10.275 0.731843 10.0343 0.89556C9.79351 1.05928 9.61296 1.2973 9.52019 1.57327L8.77352 4.01328C8.66952 4.32192 8.45615 4.58182 8.17367 4.74394C7.89119 4.90606 7.55914 4.95918 7.24019 4.89328L4.66685 4.38661C4.40625 4.34978 4.14059 4.3909 3.90332 4.50479C3.66605 4.61868 3.46779 4.80025 3.33352 5.02661L0.666854 9.63994C0.521734 9.88081 0.456483 10.1614 0.480431 10.4416C0.504378 10.7218 0.616297 10.9872 0.800187 11.1999L2.49352 13.1199C2.70728 13.3633 2.82517 13.6761 2.82517 13.9999C2.82517 14.3238 2.70728 14.6366 2.49352 14.8799L0.800187 16.7999C0.616297 17.0127 0.504378 17.2781 0.480431 17.5583C0.456483 17.8385 0.521734 18.1191 0.666854 18.3599L3.33352 22.9733C3.47365 23.2166 3.68701 23.4094 3.94319 23.5244C4.19937 23.6393 4.48529 23.6704 4.76019 23.6133L7.26685 23.1066C7.58581 23.0407 7.91786 23.0938 8.20034 23.2559C8.48282 23.4181 8.69619 23.678 8.80019 23.9866L9.61352 26.4266C9.70629 26.7026 9.88685 26.9406 10.1276 27.1043C10.3684 27.268 10.6561 27.3485 10.9469 27.3333H16.2802C16.5597 27.334 16.8324 27.2469 17.0597 27.0842C17.287 26.9215 17.4574 26.6914 17.5469 26.4266L18.3602 23.9866C18.4642 23.678 18.6776 23.4181 18.96 23.2559C19.2425 23.0938 19.5746 23.0407 19.8935 23.1066L22.4002 23.6133C22.6751 23.6704 22.961 23.6393 23.2172 23.5244C23.4734 23.4094 23.6867 23.2166 23.8269 22.9733L26.4935 18.3599C26.6351 18.1164 26.6959 17.8342 26.6671 17.5539C26.6384 17.2737 26.5216 17.0097 26.3335 16.7999L24.5335 14.8799ZM22.5469 16.6666L23.6135 17.8666L21.9069 20.8266L20.3335 20.5066C19.3732 20.3103 18.3743 20.4734 17.5263 20.965C16.6783 21.4566 16.0404 22.2424 15.7335 23.1733L15.2269 24.6666H11.8135L11.3335 23.1466C11.0267 22.2157 10.3887 21.4299 9.54073 20.9383C8.69276 20.4468 7.69381 20.2836 6.73352 20.4799L5.16019 20.7999L3.42685 17.8533L4.49352 16.6533C5.14946 15.9199 5.5121 14.9705 5.5121 13.9866C5.5121 13.0027 5.14946 12.0533 4.49352 11.3199L3.42685 10.1199L5.13352 7.18661L6.70685 7.50661C7.66715 7.7029 8.66609 7.53978 9.51406 7.04821C10.362 6.55663 11 5.77082 11.3069 4.83994L11.8135 3.33327H15.2269L15.7335 4.85327C16.0404 5.78415 16.6783 6.56996 17.5263 7.06154C18.3743 7.55312 19.3732 7.71624 20.3335 7.51994L21.9069 7.19994L23.6135 10.1599L22.5469 11.3599C21.8983 12.0916 21.5401 13.0355 21.5401 14.0133C21.5401 14.991 21.8983 15.9349 22.5469 16.6666ZM13.5202 8.66661C12.4654 8.66661 11.4342 8.9794 10.5571 9.56544C9.68008 10.1515 8.9965 10.9844 8.59283 11.959C8.18916 12.9335 8.08354 14.0059 8.28933 15.0404C8.49512 16.075 9.00307 17.0253 9.74895 17.7712C10.4948 18.5171 11.4451 19.025 12.4797 19.2308C13.5143 19.4366 14.5866 19.331 15.5612 18.9273C16.5357 18.5236 17.3687 17.84 17.9547 16.963C18.5407 16.0859 18.8535 15.0548 18.8535 13.9999C18.8535 12.5855 18.2916 11.2289 17.2914 10.2287C16.2912 9.22851 14.9347 8.66661 13.5202 8.66661ZM13.5202 16.6666C12.9928 16.6666 12.4772 16.5102 12.0387 16.2172C11.6001 15.9242 11.2583 15.5077 11.0565 15.0204C10.8547 14.5332 10.8019 13.997 10.9048 13.4797C11.0077 12.9624 11.2616 12.4873 11.6346 12.1143C12.0075 11.7414 12.4827 11.4874 12.9999 11.3845C13.5172 11.2816 14.0534 11.3344 14.5407 11.5363C15.0279 11.7381 15.4444 12.0799 15.7374 12.5184C16.0305 12.957 16.1869 13.4725 16.1869 13.9999C16.1869 14.7072 15.9059 15.3855 15.4058 15.8856C14.9057 16.3857 14.2274 16.6666 13.5202 16.6666Z" fill="black"/>
    <path d="M24.5335 14.8799C24.3198 14.6366 24.2019 14.3238 24.2019 13.9999C24.2019 13.6761 24.3198 13.3633 24.5335 13.1199L26.2402 11.1999C26.4282 10.9902 26.545 10.7262 26.5738 10.446C26.6025 10.1657 26.5417 9.88352 26.4002 9.63994L23.7335 5.02661C23.5934 4.7833 23.38 4.59044 23.1239 4.47552C22.8677 4.3606 22.5818 4.32949 22.3069 4.38661L19.8002 4.89328C19.4812 4.95918 19.1492 4.90606 18.8667 4.74394C18.5842 4.58182 18.3709 4.32192 18.2669 4.01328L17.4535 1.57327C17.3641 1.30845 17.1937 1.07843 16.9664 0.915731C16.7391 0.753033 16.4664 0.665887 16.1869 0.666608H10.8535C10.5628 0.651432 10.275 0.731843 10.0343 0.89556C9.79351 1.05928 9.61296 1.2973 9.52019 1.57327L8.77352 4.01328C8.66952 4.32192 8.45615 4.58182 8.17367 4.74394C7.89119 4.90606 7.55914 4.95918 7.24019 4.89328L4.66685 4.38661C4.40625 4.34978 4.14059 4.3909 3.90332 4.50479C3.66605 4.61868 3.46779 4.80025 3.33352 5.02661L0.666854 9.63994C0.521734 9.88081 0.456483 10.1614 0.480431 10.4416C0.504378 10.7218 0.616297 10.9872 0.800187 11.1999L2.49352 13.1199C2.70728 13.3633 2.82517 13.6761 2.82517 13.9999C2.82517 14.3238 2.70728 14.6366 2.49352 14.8799L0.800187 16.7999C0.616297 17.0127 0.504378 17.2781 0.480431 17.5583C0.456483 17.8385 0.521734 18.1191 0.666854 18.3599L3.33352 22.9733C3.47365 23.2166 3.68701 23.4094 3.94319 23.5244C4.19937 23.6393 4.48529 23.6704 4.76019 23.6133L7.26685 23.1066C7.58581 23.0407 7.91786 23.0938 8.20034 23.2559C8.48282 23.4181 8.69619 23.678 8.80019 23.9866L9.61352 26.4266C9.70629 26.7026 9.88685 26.9406 10.1276 27.1043C10.3684 27.268 10.6561 27.3485 10.9469 27.3333H16.2802C16.5597 27.334 16.8324 27.2469 17.0597 27.0842C17.287 26.9215 17.4574 26.6914 17.5469 26.4266L18.3602 23.9866C18.4642 23.678 18.6776 23.4181 18.96 23.2559C19.2425 23.0938 19.5746 23.0407 19.8935 23.1066L22.4002 23.6133C22.6751 23.6704 22.961 23.6393 23.2172 23.5244C23.4734 23.4094 23.6867 23.2166 23.8269 22.9733L26.4935 18.3599C26.6351 18.1164 26.6959 17.8342 26.6671 17.5539C26.6384 17.2737 26.5216 17.0097 26.3335 16.7999L24.5335 14.8799ZM22.5469 16.6666L23.6135 17.8666L21.9069 20.8266L20.3335 20.5066C19.3732 20.3103 18.3743 20.4734 17.5263 20.965C16.6783 21.4566 16.0404 22.2424 15.7335 23.1733L15.2269 24.6666H11.8135L11.3335 23.1466C11.0267 22.2157 10.3887 21.4299 9.54073 20.9383C8.69276 20.4468 7.69381 20.2836 6.73352 20.4799L5.16019 20.7999L3.42685 17.8533L4.49352 16.6533C5.14946 15.9199 5.5121 14.9705 5.5121 13.9866C5.5121 13.0027 5.14946 12.0533 4.49352 11.3199L3.42685 10.1199L5.13352 7.18661L6.70685 7.50661C7.66715 7.7029 8.66609 7.53978 9.51406 7.04821C10.362 6.55663 11 5.77082 11.3069 4.83994L11.8135 3.33327H15.2269L15.7335 4.85327C16.0404 5.78415 16.6783 6.56996 17.5263 7.06154C18.3743 7.55312 19.3732 7.71624 20.3335 7.51994L21.9069 7.19994L23.6135 10.1599L22.5469 11.3599C21.8983 12.0916 21.5401 13.0355 21.5401 14.0133C21.5401 14.991 21.8983 15.9349 22.5469 16.6666ZM13.5202 8.66661C12.4654 8.66661 11.4342 8.9794 10.5571 9.56544C9.68008 10.1515 8.9965 10.9844 8.59283 11.959C8.18916 12.9335 8.08354 14.0059 8.28933 15.0404C8.49512 16.075 9.00307 17.0253 9.74895 17.7712C10.4948 18.5171 11.4451 19.025 12.4797 19.2308C13.5143 19.4366 14.5866 19.331 15.5612 18.9273C16.5357 18.5236 17.3687 17.84 17.9547 16.963C18.5407 16.0859 18.8535 15.0548 18.8535 13.9999C18.8535 12.5855 18.2916 11.2289 17.2914 10.2287C16.2912 9.22851 14.9347 8.66661 13.5202 8.66661ZM13.5202 16.6666C12.9928 16.6666 12.4772 16.5102 12.0387 16.2172C11.6001 15.9242 11.2583 15.5077 11.0565 15.0204C10.8547 14.5332 10.8019 13.997 10.9048 13.4797C11.0077 12.9624 11.2616 12.4873 11.6346 12.1143C12.0075 11.7414 12.4827 11.4874 12.9999 11.3845C13.5172 11.2816 14.0534 11.3344 14.5407 11.5363C15.0279 11.7381 15.4444 12.0799 15.7374 12.5184C16.0305 12.957 16.1869 13.4725 16.1869 13.9999C16.1869 14.7072 15.9059 15.3855 15.4058 15.8856C14.9057 16.3857 14.2274 16.6666 13.5202 16.6666Z" fill="url(#paint0_linear_4523_4206)"/>
    <defs>
        <linearGradient id="paint0_linear_4523_4206" x1="13.5748" y1="0.664795" x2="13.5748" y2="27.3351" gradientUnits="userSpaceOnUse">
            <stop stop-color="#F7A86F"/>
            <stop offset="1" stop-color="#F07264"/>
        </linearGradient>
    </defs>
</svg>
