<svg width="26" height="24" viewBox="0 0 26 24" fill="none" xmlns="http://www.w3.org/2000/svg">
    <path fill-rule="evenodd" clip-rule="evenodd" d="M18.614 1.01664e-06H7.38539H7.38534C6.75918 -1.98665e-05 6.21522 -3.80058e-05 5.76338 0.0348549C5.28356 0.0719086 4.80722 0.153617 4.3387 0.370726C3.63384 0.697351 3.03934 1.22216 2.62781 1.88107C2.35427 2.31904 2.21411 2.78157 2.11783 3.25308C2.02716 3.69712 1.9597 4.2369 1.88206 4.85825L0.269327 17.7601C0.171545 18.5421 0.0878441 19.2116 0.0662762 19.7637C0.0436807 20.3421 0.0804887 20.9264 0.312059 21.4992C0.6542 22.3455 1.27551 23.0494 2.07284 23.4938C2.61249 23.7946 3.18776 23.9037 3.76451 23.953C4.315 24.0001 4.98961 24 5.77772 24H5.7778H20.2216H20.2217C21.0098 24 21.6844 24.0001 22.2349 23.953C22.8117 23.9037 23.3869 23.7946 23.9266 23.4938C24.7239 23.0494 25.3452 22.3455 25.6874 21.4992C25.9189 20.9264 25.9557 20.3421 25.9332 19.7637C25.9116 19.2116 25.8279 18.5422 25.7301 17.7601L25.7301 17.7601L24.1174 4.85834L24.1174 4.85808C24.0397 4.2368 23.9723 3.69708 23.8816 3.25308C23.7853 2.78156 23.6452 2.31904 23.3716 1.88107C22.9601 1.22216 22.3656 0.697351 21.6607 0.370726C21.1922 0.153617 20.7159 0.0719086 20.2361 0.0348549C19.7842 -3.80068e-05 19.2402 -1.98665e-05 18.6141 1.01664e-06H18.614ZM10.3333 6.66667C10.3333 5.93029 9.73638 5.33333 9 5.33333C8.26362 5.33333 7.66667 5.93029 7.66667 6.66667C7.66667 9.61219 10.0545 12 13 12C15.9455 12 18.3333 9.61219 18.3333 6.66667C18.3333 5.93029 17.7364 5.33333 17 5.33333C16.2636 5.33333 15.6667 5.93029 15.6667 6.66667C15.6667 8.13943 14.4728 9.33333 13 9.33333C11.5272 9.33333 10.3333 8.13943 10.3333 6.66667Z" fill="url(#paint0_linear_4810_20208)"/>
    <defs>
        <linearGradient id="paint0_linear_4810_20208" x1="12.9997" y1="0" x2="12.9997" y2="24" gradientUnits="userSpaceOnUse">
            <stop stop-color="#F7A86F"/>
            <stop offset="1" stop-color="#F07264"/>
        </linearGradient>
    </defs>
</svg>
