<svg width="21" height="20" viewBox="0 0 21 20" fill="none" xmlns="http://www.w3.org/2000/svg">
    <path d="M19.9995 7.66999C19.9363 7.48708 19.8215 7.32642 19.6688 7.20749C19.5162 7.08857 19.3323 7.01649 19.1395 6.99999L13.4495 6.16999L10.8995 0.999993C10.8176 0.830922 10.6898 0.688335 10.5306 0.588566C10.3714 0.488798 10.1873 0.435883 9.99949 0.435883C9.81163 0.435883 9.62757 0.488798 9.4684 0.588566C9.30923 0.688335 9.18137 0.830922 9.09949 0.999993L6.54949 6.15999L0.859489 6.99999C0.674412 7.0263 0.500413 7.10396 0.357239 7.22415C0.214065 7.34435 0.107449 7.50227 0.0494892 7.67999C-0.00356587 7.85367 -0.00832693 8.03851 0.0357169 8.21469C0.0797607 8.39086 0.170947 8.55172 0.299489 8.67999L4.42949 12.68L3.42949 18.36C3.39379 18.5475 3.41248 18.7412 3.48336 18.9184C3.55424 19.0956 3.67434 19.2489 3.82949 19.36C3.98071 19.4681 4.15906 19.5319 4.34454 19.5443C4.53001 19.5566 4.71526 19.5171 4.87949 19.43L9.99949 16.76L15.0995 19.44C15.2398 19.5192 15.3983 19.5605 15.5595 19.56C15.7713 19.5607 15.9779 19.4942 16.1495 19.37C16.3046 19.2589 16.4247 19.1056 16.4956 18.9284C16.5665 18.7512 16.5852 18.5575 16.5495 18.37L15.5495 12.69L19.6795 8.68999C19.8239 8.56767 19.9306 8.4069 19.9872 8.22634C20.0439 8.04579 20.0481 7.85287 19.9995 7.66999ZM13.8495 11.67C13.7322 11.7834 13.6445 11.9238 13.5939 12.079C13.5434 12.2341 13.5316 12.3992 13.5595 12.56L14.2795 16.75L10.5195 14.75C10.3748 14.673 10.2134 14.6327 10.0495 14.6327C9.88557 14.6327 9.72417 14.673 9.57949 14.75L5.81949 16.75L6.53949 12.56C6.56742 12.3992 6.5556 12.2341 6.50505 12.079C6.45451 11.9238 6.36677 11.7834 6.24949 11.67L3.24949 8.66999L7.45949 8.05999C7.62149 8.03746 7.77549 7.97553 7.90799 7.87964C8.04049 7.78376 8.14745 7.65683 8.21949 7.50999L9.99949 3.69999L11.8795 7.51999C11.9515 7.66683 12.0585 7.79376 12.191 7.88964C12.3235 7.98553 12.4775 8.04746 12.6395 8.06999L16.8495 8.67999L13.8495 11.67Z" fill="url(#paint0_linear_2583_4984)"/>
    <defs>
        <linearGradient id="paint0_linear_2583_4984" x1="10.0195" y1="0.435883" x2="10.0195" y2="19.56" gradientUnits="userSpaceOnUse">
            <stop stop-color="#F7A86F"/>
            <stop offset="1" stop-color="#F07264"/>
        </linearGradient>
    </defs>
</svg>
