<svg width="20" height="21" viewBox="0 0 20 21" fill="none" xmlns="http://www.w3.org/2000/svg">
    <path fill-rule="evenodd" clip-rule="evenodd" d="M7.82429 0.792891C8.09868 1.06728 8.18956 1.47563 8.05743 1.84049C7.73937 2.71878 7.56551 3.66731 7.56551 4.65865C7.56551 9.22927 11.2707 12.9345 15.8413 12.9345C16.8327 12.9345 17.7812 12.7606 18.6595 12.4426C19.0244 12.3104 19.4327 12.4013 19.7071 12.6757C19.9815 12.9501 20.0724 13.3584 19.9402 13.7233C18.5095 17.6743 14.7239 20.5 10.2758 20.5C4.60065 20.5 0 15.8993 0 10.2242C0 5.77609 2.82567 1.99054 6.77669 0.559751C7.14155 0.427625 7.5499 0.518503 7.82429 0.792891ZM5.64652 3.36291C3.4457 4.85083 2 7.36948 2 10.2242C2 14.7948 5.70522 18.5 10.2758 18.5C13.1305 18.5 15.6492 17.0543 17.1371 14.8535C16.7125 14.907 16.28 14.9345 15.8413 14.9345C10.1662 14.9345 5.56551 10.3338 5.56551 4.65865C5.56551 4.22002 5.59304 3.78754 5.64652 3.36291ZM14.45 0.875923C14.7726 0.875923 15.0753 1.03154 15.2631 1.29385L16.9081 3.5919L19.2062 5.23691C19.4685 5.42468 19.6241 5.72746 19.6241 6.05005C19.6241 6.37264 19.4685 6.67542 19.2062 6.86319L16.9081 8.50821L15.2631 10.8063C15.0753 11.0686 14.7726 11.2242 14.45 11.2242C14.1274 11.2242 13.8246 11.0686 13.6368 10.8063L11.9918 8.50821L9.69377 6.86319C9.43146 6.67542 9.27584 6.37264 9.27584 6.05005C9.27584 5.72746 9.43146 5.42468 9.69377 5.23691L11.9918 3.5919L13.6368 1.29385C13.8246 1.03154 14.1274 0.875923 14.45 0.875923ZM14.45 3.59392L13.5217 4.89071C13.4579 4.97988 13.3798 5.05794 13.2906 5.12177L11.9938 6.05005L13.2906 6.97833C13.3798 7.04216 13.4579 7.12023 13.5217 7.2094L14.45 8.50618L15.3783 7.2094C15.4421 7.12023 15.5201 7.04216 15.6093 6.97833L16.9061 6.05005L15.6093 5.12177C15.5201 5.05794 15.4421 4.97988 15.3783 4.89071L14.45 3.59392Z" fill="url(#paint0_linear_3310_36351)"/>
    <defs>
        <linearGradient id="paint0_linear_3310_36351" x1="10" y1="0.499969" x2="10" y2="20.5" gradientUnits="userSpaceOnUse">
            <stop stop-color="#F7A86F"/>
            <stop offset="1" stop-color="#F07264"/>
        </linearGradient>
    </defs>
</svg>
