<svg width="32" height="32" viewBox="0 0 32 32" fill="none" xmlns="http://www.w3.org/2000/svg">
    <path d="M31.5216 19.8705C29.3847 28.442 20.7031 33.6584 12.1306 31.521C3.56168 29.3841 -1.65477 20.702 0.483083 12.1312C2.61906 3.5587 11.3006 -1.65814 19.8705 0.478775C28.4424 2.61569 33.6585 11.2987 31.5214 19.8706L31.5215 19.8705H31.5216Z" fill="#F7931A"/>
    <path fill-rule="evenodd" clip-rule="evenodd" d="M23.0573 13.7204C23.3758 11.5911 21.7547 10.4466 19.538 9.68306L20.2571 6.7988L18.5014 6.36131L17.8014 9.16963C17.3398 9.05451 16.8658 8.94604 16.3947 8.83851L17.0998 6.01165L15.3451 5.57417L14.6256 8.45748C14.2437 8.37052 13.8685 8.28457 13.5046 8.19401L13.5066 8.18493L11.0854 7.58032L10.6183 9.45556C10.6183 9.45556 11.9209 9.75415 11.8935 9.77253C12.6045 9.94998 12.733 10.4206 12.7117 10.7937L11.8926 14.0795C11.9415 14.092 12.005 14.1099 12.0751 14.1381L12.0241 14.1254C11.9808 14.1145 11.9357 14.1033 11.8895 14.0922L10.7414 18.6952C10.6545 18.9112 10.4339 19.2354 9.93685 19.1123C9.95445 19.1378 8.66075 18.7938 8.66075 18.7938L7.78906 20.8036L10.0739 21.3731C10.3241 21.4359 10.5713 21.5003 10.8161 21.5641C10.9871 21.6087 11.1569 21.653 11.3256 21.6961L10.5991 24.6135L12.3528 25.051L13.0723 22.1646C13.5514 22.2946 14.0163 22.4146 14.4715 22.5277L13.7544 25.4005L15.5102 25.8379L16.2367 22.9261C19.2306 23.4927 21.4818 23.2643 22.4293 20.5563C23.1929 18.376 22.3913 17.1185 20.8162 16.2984C21.9635 16.0338 22.8276 15.2793 23.058 13.7206L23.0574 13.7202L23.0573 13.7204ZM19.0459 19.3455C18.5481 21.3458 15.417 20.5188 13.9845 20.1404C13.8556 20.1064 13.7405 20.076 13.6423 20.0516L14.6064 16.1866C14.7261 16.2165 14.8724 16.2493 15.0381 16.2865L15.0381 16.2865C16.5199 16.6191 19.5559 17.3004 19.046 19.3455H19.0459ZM15.3354 14.4927C16.5297 14.8115 19.1351 15.5068 19.5889 13.6888H19.589C20.0524 11.8294 17.5203 11.2688 16.2837 10.995C16.1446 10.9642 16.0218 10.9371 15.9216 10.9121L15.0475 14.4174C15.13 14.4379 15.2269 14.4638 15.3354 14.4927Z" fill="white"/>
</svg>
