<svg width="32" height="32" viewBox="0 0 32 32" fill="none" xmlns="http://www.w3.org/2000/svg">
    <circle cx="16" cy="16" r="16" fill="#AA15DD"/>
    <path fill-rule="evenodd" clip-rule="evenodd" d="M15.5549 6.04549C15.5526 6.28658 15.7506 6.48488 15.9998 6.4909C16.1849 6.49346 16.353 6.38653 16.4239 6.22104C16.4961 6.05507 16.4594 5.86346 16.3306 5.7335C16.2029 5.60443 16.0064 5.56457 15.8359 5.63318C15.6669 5.7014 15.5549 5.86492 15.5549 6.04549ZM25.1033 11.4767C24.9991 11.5351 24.8751 11.5506 24.7589 11.5199C24.6428 11.4892 24.5442 11.4147 24.4853 11.3131C24.3925 11.1564 24.4047 10.9613 24.5164 10.8166C24.6268 10.6729 24.8168 10.6092 24.9955 10.6561C25.1748 10.7051 25.3064 10.853 25.3299 11.0319C25.3534 11.2107 25.2642 11.3858 25.1033 11.4767ZM6.89419 11.4767C6.67629 11.3506 6.60257 11.0791 6.72827 10.8657C6.81905 10.7096 6.99907 10.6228 7.1826 10.6467C7.36613 10.6705 7.51605 10.8003 7.56095 10.9741C7.60862 11.1483 7.54463 11.3332 7.39815 11.4446C7.253 11.5546 7.05299 11.5673 6.89419 11.4767ZM15.9994 25.7759C16.248 25.7772 16.4498 25.9767 16.4509 26.2213C16.4532 26.4646 16.2514 26.6639 15.9998 26.6667C15.8788 26.6656 15.7632 26.6181 15.6784 26.5346C15.5936 26.451 15.5466 26.3383 15.5477 26.2213C15.5466 26.1042 15.5936 25.9915 15.6784 25.908C15.7631 25.8245 15.8785 25.777 15.9994 25.7759ZM15.9994 25.7759L15.9987 25.7758H15.9998L15.9994 25.7759ZM7.23854 20.7569C7.1224 20.7261 6.99837 20.7417 6.89419 20.8001C6.67717 20.9254 6.60346 21.1955 6.72827 21.408C6.78682 21.51 6.8854 21.5849 7.00171 21.6156C7.11803 21.6464 7.24225 21.6305 7.3463 21.5716C7.56332 21.4463 7.63703 21.1762 7.51222 20.9636C7.45326 20.8621 7.35469 20.7876 7.23854 20.7569ZM24.0881 20.7299C23.861 21.1175 23.9585 21.6074 24.3183 21.8856L16.903 26.0989C16.8439 25.6597 16.4586 25.3302 16.0008 25.3274C15.543 25.3302 15.1578 25.6597 15.0987 26.0989L7.68124 21.8856C8.03976 21.6069 8.1364 21.1178 7.90938 20.7309C7.68733 20.3453 7.20282 20.1804 6.78012 20.3467V11.9201C7.20227 12.0859 7.68602 11.9216 7.90834 11.5368C8.13546 11.1509 8.04022 10.6626 7.68332 10.3832L15.0987 6.16988C15.1578 6.60905 15.543 6.9385 16.0008 6.94132C16.4589 6.93844 16.8444 6.60844 16.903 6.16888L24.3204 10.3822C23.9624 10.6607 23.8658 11.1492 24.0923 11.5358C24.3143 11.9215 24.7988 12.0863 25.2215 11.9201V20.3417C24.7969 20.1752 24.3107 20.3419 24.0892 20.7299H24.0881ZM12.8007 18.4417C13.9395 19.9567 16.0809 20.3882 17.7502 19.4388H17.7491C18.5505 18.9837 19.1543 18.2631 19.4487 17.4104C19.8894 16.1404 21.8711 16.8486 21.1307 18.4978C21.1307 18.5088 21.1239 18.5193 21.1176 18.5291C21.1147 18.5336 21.1119 18.5379 21.1099 18.542L23.5489 19.9264C23.7541 20.0484 23.822 20.306 23.7024 20.5082C23.5831 20.7108 23.3218 20.7821 23.1144 20.6677L20.691 19.2954C20.2059 20.0448 19.5428 20.6714 18.7571 21.1231C18.0606 21.5253 17.2816 21.7752 16.4747 21.8555V24.4637C16.4758 24.5797 16.4292 24.6914 16.3452 24.7742C16.2612 24.8569 16.1467 24.904 16.0267 24.9051C15.7789 24.9051 15.5777 24.7075 15.5777 24.4637V21.8775C13.7708 21.7717 12.1156 20.8647 11.0929 19.4198L8.88723 20.6697C8.78737 20.7263 8.66817 20.7418 8.55643 20.7125C8.44469 20.6833 8.34978 20.6118 8.29305 20.5142C8.17204 20.3103 8.24214 20.0502 8.45067 19.9294L10.648 18.6804C10.5049 18.3885 10.3877 18.0855 10.2944 17.7746L10.086 16.6269C10.0057 15.5881 10.2171 14.5476 10.6978 13.6154L8.45067 12.3374C8.2436 12.217 8.17325 11.959 8.29202 11.7555C8.34816 11.6579 8.44262 11.5862 8.55404 11.5568C8.66546 11.5273 8.78445 11.5426 8.88412 11.599L11.1489 12.8841C11.6304 12.2283 12.2503 11.6788 12.9677 11.272C13.7626 10.8189 14.6593 10.5593 15.5808 10.5156V7.80304C15.5797 7.68687 15.6265 7.57504 15.7107 7.49223C15.7949 7.40943 15.9098 7.36244 16.0299 7.36165C16.1498 7.36271 16.2643 7.40981 16.3483 7.49259C16.4324 7.57536 16.4789 7.68704 16.4778 7.80304V10.5407C18.1769 10.7307 19.704 11.633 20.6547 13.0085L23.1248 11.599C23.2239 11.5401 23.3438 11.5234 23.4561 11.5529C23.5683 11.5823 23.6631 11.6553 23.7179 11.7545C23.8361 11.9592 23.7635 12.22 23.5562 12.3374L20.1964 14.2494L20.1508 14.2705L19.3606 14.7219L17.6931 15.6689L12.8007 18.4417ZM25.1043 20.8001C25.321 20.9261 25.3946 21.1961 25.2703 21.409C25.2115 21.5109 25.1129 21.5855 24.9966 21.6161C24.8803 21.6466 24.7561 21.6306 24.6522 21.5716C24.4352 21.4463 24.3615 21.1762 24.4863 20.9636C24.5449 20.8617 24.6434 20.7868 24.7598 20.756C24.8761 20.7253 25.0003 20.7412 25.1043 20.8001ZM13.9445 12.9523C12.3071 13.8833 12.1018 15.0499 12.1464 16.7222L18.223 13.2693C17.006 12.3078 15.2987 12.1813 13.9445 12.9523Z" fill="white"/>
</svg>
