<svg width="32" height="32" viewBox="0 0 32 32" fill="none" xmlns="http://www.w3.org/2000/svg">
    <rect width="32" height="32" rx="16" fill="#181818"/>
    <path d="M8.12287 14.8581H5.86621V13.5099H8.12287C8.12287 13.473 8.12287 13.4424 8.12287 13.4118C8.12866 13.0183 8.11884 12.6244 8.14357 12.2317C8.19109 11.4774 8.38452 10.7667 8.83873 10.1467C9.31434 9.49741 9.96987 9.12597 10.7415 8.94052C11.3702 8.7897 12.0075 8.7743 12.6488 8.82872C13.3128 8.88633 13.9655 9.03626 14.5879 9.27416C14.623 9.28746 14.658 9.30233 14.7007 9.31965L14.319 10.537C14.2286 10.502 14.1437 10.467 14.0572 10.4352C13.2344 10.1295 12.3851 10.0503 11.5222 10.1843C10.5402 10.3363 9.94725 10.9541 9.78608 11.9365C9.72786 12.2929 9.73259 12.6507 9.73242 13.0092C9.73242 13.1717 9.73242 13.3344 9.73242 13.5057H13.7298V14.8499H9.73908V23.178H8.12287V14.8581Z" fill="white"/>
    <path fill-rule="evenodd" clip-rule="evenodd" d="M16.9218 22.5539C16.8015 22.6509 16.6785 22.75 16.556 22.8486C16.4079 22.9678 16.2606 23.0864 16.12 23.2C13.8696 21.1582 13.6194 17.2357 16.111 14.8618C16.2601 14.9813 16.4149 15.1068 16.57 15.2327L16.5701 15.2327C16.6855 15.3264 16.8011 15.4202 16.9148 15.5118L16.8985 15.5305C16.8343 15.6039 16.773 15.674 16.7126 15.7448C16.1689 16.3819 15.7922 17.0843 15.6333 17.9108C15.5332 18.4318 15.5148 18.9567 15.5516 19.4855C15.5932 20.0803 15.7305 20.651 15.9864 21.1916C16.2092 21.6567 16.4987 22.0869 16.8457 22.4688C16.8608 22.4849 16.8751 22.5011 16.8927 22.521L16.9218 22.5539ZM21.0479 19.0446C21.0446 19.039 21.0418 19.0331 21.0395 19.0271C21.0418 19.021 21.0446 19.0152 21.0479 19.0096C21.2827 18.587 21.5228 18.1514 21.7617 17.7182L21.7619 17.7179L21.7622 17.7173C21.9229 17.4259 22.0829 17.1357 22.2404 16.8511C22.3116 16.7221 22.3856 16.5919 22.4607 16.4598L22.4607 16.4597L22.4608 16.4596C22.5446 16.3121 22.6297 16.1622 22.7139 16.009H21.1882C21.1882 16.009 20.5134 17.5137 20.2061 18.1848H20.171C19.8317 17.5093 19.1013 16.009 19.1013 16.009L17.4958 16.0003C17.5182 16.0426 18.6611 18.0835 19.189 19.0096L19.1986 19.0271L19.189 19.0446C18.6611 19.9573 17.5007 22.0386 17.4782 22.0803L19.1013 22.0717C19.1013 22.0717 19.8317 20.5928 20.171 19.9279H20.2061C20.5134 20.5893 21.1882 22.0726 21.1882 22.0726H22.7314C22.6858 21.9908 22.5616 21.7667 22.3982 21.4719L22.3981 21.4717C21.9873 20.7308 21.3289 19.543 21.0479 19.0446ZM23.6736 22.8705C23.5422 22.7647 23.4099 22.6582 23.2807 22.5539C23.2854 22.5485 23.2898 22.5433 23.2941 22.5384C23.3187 22.5101 23.3367 22.4893 23.3561 22.4688C23.703 22.0869 23.9925 21.6566 24.2154 21.1916C24.4713 20.651 24.6084 20.0803 24.65 19.4855C24.6868 18.9567 24.6684 18.4319 24.5683 17.9108C24.4096 17.0843 24.0329 16.3819 23.4892 15.7448C23.4234 15.668 23.3572 15.5921 23.287 15.5118C23.4166 15.4076 23.5488 15.3005 23.6802 15.194C23.8195 15.0812 23.958 14.969 24.0914 14.8618C26.5831 17.2357 26.3327 21.1582 24.0823 23.2C23.9503 23.0934 23.8124 22.9824 23.6736 22.8705Z" fill="#F7D509"/>
</svg>
