<svg width="32" height="32" viewBox="0 0 32 32" fill="none" xmlns="http://www.w3.org/2000/svg">
    <circle cx="16" cy="16" r="16" fill="#1AE3AE"/>
    <path fill-rule="evenodd" clip-rule="evenodd" d="M21.0264 14.0446C21.6561 14.9273 21.998 15.9993 21.989 17.0802C21.989 18.1431 21.6472 19.206 21.0264 20.0707L22.3399 21.0705C23.1765 19.9175 23.6354 18.5124 23.6354 17.0892C23.6444 15.5849 23.1496 14.1077 22.2409 12.9187L21.4877 13.5977L21.0264 14.0446Z" fill="#0E0333"/>
    <path fill-rule="evenodd" clip-rule="evenodd" d="M23.5093 21.9562L19.092 18.5963C19.4069 18.1819 19.5868 17.6776 19.6138 17.1551C19.6318 16.6327 19.4969 16.1192 19.218 15.6779L21.3322 13.7683L23.5454 11.6965C23.6893 11.5614 23.6983 11.3272 23.5543 11.183L23.2485 10.8768C21.6741 9.28243 19.5509 8.35464 17.3197 8.28258L17.3287 7.06655C17.3377 6.98549 17.3287 6.90442 17.3107 6.82335C17.2837 6.74229 17.2477 6.67022 17.1937 6.60717C17.1398 6.54412 17.0768 6.49908 16.9958 6.46304C16.9238 6.42702 16.8429 6.409 16.7619 6.409C16.6809 6.409 16.6 6.42702 16.528 6.46304C16.456 6.49908 16.3841 6.54412 16.3301 6.60717C16.2761 6.67022 16.2311 6.74229 16.2131 6.81435C16.1861 6.89541 16.1771 6.97648 16.1951 7.05755L16.1861 8.30961C15.6553 8.36365 15.1245 8.46274 14.6117 8.61587L14.6207 7.05755C14.6297 6.97648 14.6207 6.89541 14.6027 6.81435C14.5758 6.73328 14.5397 6.66121 14.4858 6.59816C14.4318 6.53511 14.3688 6.49007 14.2879 6.45404C14.2159 6.41801 14.1349 6.39999 14.0539 6.39999C13.973 6.39999 13.8919 6.41801 13.8201 6.45404C13.7481 6.49007 13.6761 6.53511 13.622 6.59816C13.5681 6.66121 13.5231 6.73328 13.5052 6.80534C13.4781 6.8864 13.4691 6.96747 13.4871 7.04855L13.4602 9.03923C11.6428 9.84991 10.1494 11.2641 9.24074 13.0386C8.33209 14.8131 8.04419 16.8489 8.44004 18.8035C8.83589 20.7582 9.8885 22.5236 11.4179 23.8027C12.9474 25.0818 14.8726 25.8024 16.8608 25.8385L23.2934 25.8655C23.4914 25.8655 23.6533 25.7033 23.6533 25.5051V22.2534C23.6533 22.1363 23.5993 22.0282 23.5093 21.9562ZM16.9869 24.2711C15.4035 24.2621 13.865 23.7307 12.6145 22.7668C11.3639 21.794 10.4643 20.4339 10.0594 18.9025C9.65459 17.3713 9.77155 15.7409 10.3743 14.2817C10.9861 12.8224 12.0567 11.5974 13.4332 10.8047L13.4241 13.1737C13.4152 13.2548 13.4241 13.3359 13.4422 13.4169C13.4691 13.498 13.5052 13.5701 13.5591 13.6331C13.6131 13.6962 13.6761 13.7412 13.757 13.7772C13.829 13.8133 13.91 13.8313 13.991 13.8313C14.0719 13.8313 14.1529 13.8133 14.2248 13.7772C14.2968 13.7412 14.3688 13.6962 14.4228 13.6331C14.4767 13.5701 14.5217 13.498 14.5397 13.4259C14.5667 13.3449 14.5758 13.2638 14.5577 13.1828L14.5667 10.2733C15.3585 9.98503 16.1951 9.84991 17.0408 9.84991C18.5972 9.84991 20.1087 10.3633 21.3411 11.3001C21.4311 11.3722 21.4401 11.4983 21.3592 11.5794L17.9944 14.669C17.6885 14.5429 17.3557 14.4708 17.0228 14.4708C16.654 14.4708 16.2851 14.5429 15.9432 14.696C15.6014 14.8492 15.3044 15.0743 15.0615 15.3536C14.8187 15.6328 14.6387 15.966 14.5308 16.3174C14.4228 16.6777 14.3958 17.047 14.4497 17.4163C14.5038 17.7857 14.6297 18.1369 14.8276 18.4522C15.0256 18.7674 15.2954 19.0286 15.6014 19.2359C15.9163 19.434 16.2671 19.5691 16.6359 19.6232C17.0048 19.6773 17.3827 19.6502 17.7335 19.5421L22.0339 22.8119C22.0789 22.8479 22.1059 22.9019 22.1059 22.956L22.0969 24.1089C22.0969 24.2081 22.0159 24.2891 21.917 24.2891L16.9869 24.2711ZM18.0394 17.065C18.0394 17.2632 17.9764 17.4614 17.8685 17.6325C17.7515 17.8037 17.5986 17.9297 17.4097 18.0108C17.2207 18.0919 17.0138 18.1099 16.8249 18.0649C16.6359 18.0198 16.447 17.9297 16.303 17.7857C16.1592 17.6415 16.0601 17.4614 16.0242 17.2632C15.9882 17.065 16.0062 16.8578 16.0872 16.6777C16.1681 16.4885 16.2941 16.3354 16.465 16.2183C16.6359 16.1102 16.8339 16.0472 17.0318 16.0472C17.3017 16.0472 17.5626 16.1553 17.7515 16.3535C17.9314 16.5335 18.0394 16.7858 18.0394 17.065Z" fill="#0E0333"/>
</svg>
