<svg width="32" height="32" viewBox="0 0 32 32" fill="none" xmlns="http://www.w3.org/2000/svg">
    <circle cx="16" cy="16" r="16" fill="#F2F2F7"/>
    <path fill-rule="evenodd" clip-rule="evenodd" d="M21.6593 7.10339L26.5605 15.5962H26.5624C26.701 15.8706 26.701 16.1946 26.5624 16.469L21.6593 24.9618C21.4909 25.2192 21.2102 25.3813 20.9031 25.3985H18.6614L21.919 19.7568C22.0109 19.5754 22.0109 19.361 21.919 19.1796L18.219 12.7709C18.1077 12.6005 17.9218 12.4933 17.7186 12.4823H10.3192C10.116 12.4933 9.93016 12.6005 9.81885 12.7709L6.56064 18.4151L5.43697 16.469C5.29835 16.1946 5.29835 15.8706 5.43697 15.5962L10.34 7.10339C10.5085 6.84599 10.7892 6.68389 11.0963 6.66666H20.9031C21.2102 6.68389 21.4909 6.84599 21.6593 7.10339ZM20.7625 19.2571L17.5673 13.7251C17.4887 13.6065 17.359 13.5316 17.2169 13.5228H10.8266C10.6845 13.5316 10.5548 13.6065 10.4762 13.7251L7.28098 19.2596C7.21732 19.387 7.21732 19.5368 7.28098 19.6642L8.21747 21.2876L9.85603 18.4517C9.94608 18.3135 10.0966 18.2264 10.2613 18.2172H14.4711C14.6358 18.2264 14.7863 18.3135 14.8763 18.4517L16.9819 22.0981C17.0562 22.2453 17.0562 22.4191 16.9819 22.5663L15.3433 25.4023H17.215C17.3573 25.3935 17.487 25.3183 17.5654 25.1994L20.7606 19.6655C20.8261 19.5374 20.8268 19.3858 20.7625 19.2571ZM10.347 24.9725L8.90252 22.4705C8.85719 22.3781 8.85719 22.2699 8.90252 22.1775L10.5064 19.4001C10.5636 19.3132 10.6584 19.2583 10.7623 19.252H13.9694C14.0735 19.2583 14.1685 19.3132 14.2259 19.4001L15.8298 22.1775C15.8758 22.2709 15.8758 22.3803 15.8298 22.4737L14.2259 25.251C14.1688 25.3361 14.076 25.3904 13.9739 25.3985H11.0906C10.7901 25.3793 10.5155 25.222 10.347 24.9725Z" fill="url(#paint0_linear_2586_11439)"/>
    <defs>
        <linearGradient id="paint0_linear_2586_11439" x1="21.1846" y1="29.954" x2="29.8158" y2="10.5726" gradientUnits="userSpaceOnUse">
            <stop stop-color="#FFDC00"/>
            <stop offset="0.33" stop-color="#E58E2F"/>
            <stop offset="0.67" stop-color="#DB2D72"/>
            <stop offset="1" stop-color="#FF00FF"/>
        </linearGradient>
    </defs>
</svg>
