<svg width="32" height="32" viewBox="0 0 32 32" fill="none" xmlns="http://www.w3.org/2000/svg">
    <circle cx="16" cy="16" r="16" fill="white"/>
    <path fill-rule="evenodd" clip-rule="evenodd" d="M4.49316 14.776L9.41156 3.08479L23.3828 4.69439L26.2436 13.3232L24.8132 25.2592C22.7572 27.4656 21.4452 28.568 20.8788 28.568C20.3124 28.568 16.0212 27.7856 8.00356 26.2208L4.49476 17.5472L4.49316 14.776Z" fill="#F9F9F9"/>
    <path fill-rule="evenodd" clip-rule="evenodd" d="M22.704 25.2704H19.2976V19.4064C19.2976 18.4672 18.5376 17.704 17.5984 17.704H17.5968H12.7008C10.8208 17.704 9.296 16.1792 9.296 14.2992V6.7312H12.7008V12.5968C12.7008 13.536 13.4624 14.2992 14.4016 14.2992H19.2976C21.1776 14.3008 22.7008 15.824 22.7024 17.704L22.704 25.2704ZM12.8192 25.2704H9.4128V19.552C11.2928 19.552 12.8176 21.0752 12.8176 22.9568L12.8192 25.2704ZM19.1808 6.7296H22.5856V12.4512C20.704 12.4512 19.1808 10.9264 19.1808 9.0464V6.7296ZM16 0C7.1632 0 0 7.1648 0 16C0 24.8352 7.1632 32 16 32C24.8368 32 32 24.8368 32 16C32 7.1632 24.8368 0 16 0Z" fill="#005FFA"/>
</svg>
