<svg width="32" height="32" viewBox="0 0 32 32" fill="none" xmlns="http://www.w3.org/2000/svg">
    <circle cx="16" cy="16" r="16" fill="#CC1E46"/>
    <path fill-rule="evenodd" clip-rule="evenodd" d="M11.902 9.15655C13.5691 7.89006 15.5546 7.1225 17.6322 6.94137C17.8434 6.89807 18.0724 7.033 18.0655 7.26861C18.0796 7.66802 18.0767 8.06742 18.0738 8.46683C18.0726 8.63129 18.0714 8.79575 18.0714 8.96021C18.0854 9.13541 17.9938 9.36297 17.7945 9.368C15.9559 9.57341 14.2088 10.3326 12.6909 11.3818C12.5594 11.4566 12.5752 11.6211 12.588 11.7534L12.5913 11.7886C12.6586 12.4194 12.6538 13.0531 12.649 13.6868V13.6868C12.6463 14.0464 12.6436 14.406 12.654 14.765C15.308 14.7725 17.9626 14.7714 20.6175 14.7703H20.6176C22.9185 14.7693 25.2197 14.7684 27.5208 14.773C27.7569 14.7529 28.0059 14.8888 27.987 15.1557C28.003 16.2399 28.0005 17.3242 27.998 18.4082C27.9966 19.0103 27.9952 19.6124 27.9969 20.2143C28.0009 21.1306 27.8077 22.0791 27.2589 22.8283C26.3923 24.0053 24.8684 24.7112 23.4202 24.4514C22.3942 24.2963 21.5078 23.6529 20.8862 22.8363C19.1944 24.1227 17.1756 24.8962 15.0654 25.0666C14.8513 25.0696 14.6909 24.8572 14.7238 24.6497C14.7265 24.4208 14.7253 24.1916 14.7241 23.9623V23.9622C14.7222 23.6005 14.7203 23.2387 14.7337 22.8776C14.7717 22.6398 15.0015 22.6182 15.2087 22.5987L15.2088 22.5987C15.2736 22.5926 15.3362 22.5868 15.3901 22.5745C17.1272 22.3006 18.7886 21.5646 20.2069 20.5204C20.1338 19.4249 20.1082 18.3267 20.1302 17.2289C17.222 17.21 14.313 17.2125 11.4041 17.2151H11.4041C9.33977 17.2168 7.27553 17.2186 5.21163 17.2128C4.99251 17.2379 4.78135 17.0718 4.80226 16.8372C4.79828 15.062 4.79927 13.2859 4.80426 11.5107C4.81422 10.5823 5.10406 9.64389 5.71264 8.93604C6.51445 8.01372 7.72363 7.42468 8.95075 7.49718C10.1261 7.5445 11.2048 8.22013 11.902 9.15655ZM6.80629 11.8168C6.80429 12.8569 6.8033 13.8981 6.80828 14.9402C7.17325 14.9399 7.53805 14.9413 7.90275 14.9427H7.90277C8.76625 14.946 9.62918 14.9492 10.4926 14.9301C10.4931 14.682 10.4942 14.4339 10.4954 14.1858C10.4989 13.4193 10.5024 12.6531 10.4866 11.8863C10.4677 10.9136 9.59817 10.0537 8.63202 10.0738C7.68877 10.0346 6.82919 10.8693 6.80629 11.8158V11.8168ZM22.448 18.9237C22.4475 18.3302 22.447 17.7366 22.453 17.1433V17.1423C22.6576 17.142 22.8622 17.1415 23.0668 17.1411C24.0893 17.139 25.1118 17.1369 26.1343 17.1453C26.141 17.8768 26.14 18.6072 26.139 19.3381C26.1387 19.5992 26.1383 19.8604 26.1383 20.1217C26.1463 20.8769 25.6772 21.628 24.967 21.8939C24.1981 22.1949 23.2578 21.8969 22.7857 21.2152C22.5596 20.893 22.4411 20.5063 22.447 20.1106C22.4486 19.7151 22.4483 19.3194 22.448 18.9237Z" fill="white"/>
</svg>
