<svg width="25" height="24" viewBox="0 0 25 24" fill="none" xmlns="http://www.w3.org/2000/svg">
    <circle cx="12.2007" cy="12" r="12" fill="white"/>
    <circle cx="12.2007" cy="12" r="12" fill="#F7F7F9"/>
    <path fill-rule="evenodd" clip-rule="evenodd" d="M12.2006 21.0921C17.222 21.0921 21.2927 17.0214 21.2927 12C21.2927 6.97859 17.222 2.90794 12.2006 2.90794C7.17922 2.90794 3.10857 6.97859 3.10857 12C3.10857 17.0214 7.17922 21.0921 12.2006 21.0921ZM12.2006 21.7778C17.6007 21.7778 21.9784 17.4001 21.9784 12C21.9784 6.59988 17.6007 2.22222 12.2006 2.22222C6.80051 2.22222 2.42285 6.59988 2.42285 12C2.42285 17.4001 6.80051 21.7778 12.2006 21.7778Z" fill="url(#paint0_linear_3325_19397)"/>
    <path fill-rule="evenodd" clip-rule="evenodd" d="M15.603 16.7401C15.6529 16.6202 15.6764 16.4915 15.6721 16.3622C15.6721 16.0293 15.4597 15.6342 15.0671 15.1861L13.7445 13.758C13.7092 13.7199 13.6842 13.6741 13.6716 13.6244C13.659 13.5748 13.6592 13.523 13.6722 13.4734C13.6853 13.4239 13.7107 13.3783 13.7463 13.3405C13.7819 13.3028 13.8266 13.2741 13.8764 13.257C14.3151 13.1294 14.7105 12.891 15.0221 12.5663C15.3989 12.1511 15.609 11.6189 15.6142 11.0665V9.45482C15.6317 9.03929 15.542 8.62609 15.3532 8.25241C15.1645 7.87873 14.8826 7.55629 14.5329 7.31414C14.0701 7.01108 13.5417 6.8142 12.9882 6.73852C12.6692 6.68766 12.3462 6.66372 12.0228 6.66695H10.2529H10.092L9.91499 6.69496L9.73799 6.72918L9.64466 6.75407C9.53073 6.78485 9.42224 6.83206 9.32285 6.89409C9.29372 6.91096 9.26578 6.92967 9.23919 6.9501C9.18236 6.99458 9.13155 7.04581 9.08794 7.10256C9.06681 7.12647 9.04847 7.15255 9.03323 7.18034C9.02828 7.18896 9.02211 7.19757 9.01595 7.20618C9.00206 7.22557 8.98818 7.24496 8.98818 7.26435C8.94223 7.36254 8.91498 7.46795 8.90773 7.5755V7.69373C8.89593 7.85954 8.93325 8.02517 9.01533 8.1712C9.0974 8.31724 9.22083 8.43763 9.37113 8.51827C9.45421 8.54956 9.54264 8.56539 9.6318 8.56494H12.0228C12.3058 8.55023 12.5884 8.60145 12.8466 8.71429C13.0186 8.80289 13.1594 8.93897 13.2511 9.1052C13.3428 9.27144 13.3812 9.4603 13.3615 9.64773V11.0603C13.3615 11.8133 12.9046 12.1929 11.9971 12.1929H10.2143C9.85751 12.1929 9.51536 12.3299 9.2631 12.5738C9.01083 12.8177 8.86912 13.1485 8.86912 13.4935V15.7897C8.86912 16.7667 9.2231 17.2583 9.93751 17.2583C10.6498 17.2583 11.0059 16.7698 11.0059 15.7928V14.4518C11.0063 14.3875 11.0273 14.3249 11.0659 14.2726C11.1046 14.2203 11.1591 14.1809 11.2219 14.1598C11.2846 14.1386 11.3527 14.1368 11.4166 14.1546C11.4805 14.1723 11.5371 14.2088 11.5787 14.2589L13.5096 16.5987C13.9118 17.0872 14.2948 17.333 14.6552 17.333C14.7891 17.3363 14.9224 17.3138 15.0473 17.2667C15.1721 17.2197 15.2861 17.1492 15.3825 17.0592C15.4781 16.9688 15.5531 16.8601 15.603 16.7401ZM8.38636 9.36458H11.1539C12.1644 9.36458 12.6664 9.70684 12.6664 10.4007C12.6664 11.0873 12.1633 11.4306 11.1571 11.4306H8.38314C7.37267 11.4306 6.86743 11.0883 6.86743 10.3976C6.86743 9.70684 7.37589 9.36458 8.38636 9.36458Z" fill="url(#paint1_linear_3325_19397)"/>
    <defs>
        <linearGradient id="paint0_linear_3325_19397" x1="12.2006" y1="2.22222" x2="12.2006" y2="21.7778" gradientUnits="userSpaceOnUse">
            <stop stop-color="#F7A86F"/>
            <stop offset="1" stop-color="#F07264"/>
        </linearGradient>
        <linearGradient id="paint1_linear_3325_19397" x1="11.27" y1="6.66666" x2="11.27" y2="17.3333" gradientUnits="userSpaceOnUse">
            <stop stop-color="#F7A86F"/>
            <stop offset="1" stop-color="#F07264"/>
        </linearGradient>
    </defs>
</svg>
