<svg width="512" height="512" viewBox="0 0 512 512" fill="none" xmlns="http://www.w3.org/2000/svg">
    <g clip-path="url(#clip0_5_2)">
        <path d="M256 512C397.385 512 512 397.385 512 256C512 114.615 397.385 0 256 0C114.615 0 0 114.615 0 256C0 397.385 114.615 512 256 512Z" fill="#100339"/>
        <path d="M159.653 314.885C161.405 313.137 163.78 312.156 166.255 312.158H394.044C394.967 312.157 395.87 312.43 396.638 312.942C397.406 313.455 398.005 314.184 398.359 315.037C398.712 315.89 398.805 316.829 398.624 317.734C398.444 318.64 397.999 319.471 397.345 320.124L352.347 365.122C350.595 366.87 348.22 367.851 345.745 367.849H117.956C117.033 367.85 116.13 367.577 115.362 367.064C114.593 366.552 113.995 365.823 113.641 364.97C113.288 364.117 113.195 363.178 113.376 362.273C113.556 361.367 114.001 360.535 114.655 359.883L159.653 314.885Z" fill="url(#paint0_linear_5_2)"/>
        <path d="M159.653 146.878C161.421 145.153 163.785 144.176 166.255 144.151H394.044C394.967 144.15 395.87 144.423 396.638 144.936C397.406 145.448 398.005 146.177 398.359 147.03C398.712 147.883 398.805 148.822 398.624 149.727C398.444 150.633 397.999 151.465 397.345 152.117L352.347 197.115C350.595 198.863 348.22 199.844 345.745 199.842H117.956C117.033 199.843 116.13 199.57 115.362 199.058C114.593 198.545 113.995 197.816 113.641 196.963C113.288 196.11 113.195 195.171 113.376 194.266C113.556 193.36 114.001 192.529 114.655 191.876L159.653 146.878Z" fill="url(#paint1_linear_5_2)"/>
        <path d="M352.347 230.343C350.595 228.595 348.22 227.614 345.745 227.616H117.956C117.033 227.615 116.13 227.888 115.362 228.401C114.593 228.913 113.995 229.642 113.641 230.495C113.288 231.348 113.195 232.287 113.376 233.193C113.556 234.098 114.001 234.93 114.655 235.582L159.653 280.58C161.405 282.328 163.78 283.309 166.255 283.307H394.044C394.967 283.308 395.87 283.035 396.638 282.523C397.406 282.01 398.005 281.281 398.359 280.428C398.712 279.575 398.805 278.637 398.624 277.731C398.444 276.825 397.999 275.994 397.345 275.341L352.347 230.343Z" fill="url(#paint2_linear_5_2)"/>
    </g>
    <defs>
        <linearGradient id="paint0_linear_5_2" x1="372.285" y1="117.271" x2="214.637" y2="419.23" gradientUnits="userSpaceOnUse">
            <stop stop-color="#00FFA3"/>
            <stop offset="1" stop-color="#DC1FFF"/>
        </linearGradient>
        <linearGradient id="paint1_linear_5_2" x1="303.359" y1="81.2858" x2="145.711" y2="383.245" gradientUnits="userSpaceOnUse">
            <stop stop-color="#00FFA3"/>
            <stop offset="1" stop-color="#DC1FFF"/>
        </linearGradient>
        <linearGradient id="paint2_linear_5_2" x1="337.601" y1="99.1632" x2="179.953" y2="401.122" gradientUnits="userSpaceOnUse">
            <stop stop-color="#00FFA3"/>
            <stop offset="1" stop-color="#DC1FFF"/>
        </linearGradient>
        <clipPath id="clip0_5_2">
            <rect width="512" height="512" fill="white"/>
        </clipPath>
    </defs>
</svg>
