<svg preserveAspectRatio="none" fill="none" xmlns="http://www.w3.org/2000/svg" viewBox="0 0 40 40"><path d="M20 40c11.046 0 20-8.954 20-20S31.046 0 20 0 0 8.954 0 20s8.954 20 20 20Z" fill="#26A17B"/><path d="M22.132 21.846v-.004c-.138.01-.852.052-2.44.052-1.27 0-2.161-.035-2.476-.052v.004c-4.885-.216-8.528-1.065-8.528-2.084 0-1.016 3.646-1.868 8.528-2.084V21c.318.023 1.234.077 2.498.077 1.518 0 2.277-.064 2.418-.077v-3.318c4.875.218 8.508 1.067 8.508 2.083 0 1.016-3.637 1.865-8.508 2.084v-.003Zm0-4.508v-2.972h6.8v-4.53H10.419v4.53h6.8v2.972c-5.527.254-9.68 1.347-9.68 2.659 0 1.312 4.157 2.405 9.68 2.662v9.524h4.917V22.66c5.518-.254 9.666-1.347 9.666-2.659 0-1.309-4.148-2.405-9.666-2.66" fill="#fff"/></svg>