<svg preserveAspectRatio="none" viewBox="0 0 40 40" fill="none" xmlns="http://www.w3.org/2000/svg">
    <g clip-path="url(#clip0_9369_201047)">
        <path d="M20 40C31.0834 40 40 31.0834 40 20C40 8.9166 31.0834 0 20 0C8.9166 0 0 8.9166 0 20C0 31.0834 8.9166 40 20 40Z" fill="#2775CA"/>
        <path d="M25.1666 23C25.1666 20.0834 23.4166 19.0834 19.9166 18.6668C17.4166 18.3334 16.9166 17.6668 16.9166 16.5C16.9166 15.3332 17.75 14.5834 19.4166 14.5834C20.9166 14.5834 21.75 15.0834 22.1666 16.3334C22.25 16.5834 22.5 16.75 22.75 16.75H24.0832C24.4166 16.75 24.6666 16.5 24.6666 16.1668V16.0834C24.3332 14.25 22.8332 12.8334 20.9166 12.6668V10.6668C20.9166 10.3334 20.6666 10.0834 20.25 10H19C18.6666 10 18.4166 10.25 18.3332 10.6668V12.5834C15.8332 12.9168 14.25 14.5834 14.25 16.6668C14.25 19.4168 15.9166 20.5 19.4166 20.9168C21.75 21.3334 22.5 21.8334 22.5 23.1668C22.5 24.5002 21.3332 25.4168 19.75 25.4168C17.5832 25.4168 16.8332 24.5 16.5832 23.25C16.5 22.9168 16.25 22.75 16 22.75H14.5832C14.25 22.75 14 23 14 23.3334V23.4168C14.3332 25.5 15.6666 27 18.4166 27.4168V29.4168C18.4166 29.75 18.6666 30 19.0832 30.0834H20.3332C20.6666 30.0834 20.9166 29.8334 21 29.4168V27.4168C23.5 27 25.1666 25.25 25.1666 23Z" fill="white"/>
        <path d="M15.7499 31.9166C9.24992 29.5834 5.91652 22.3334 8.33332 15.9166C9.58332 12.4166 12.3333 9.75 15.7499 8.5C16.0833 8.3334 16.2499 8.0834 16.2499 7.6666V6.5C16.2499 6.1666 16.0833 5.9166 15.7499 5.8334C15.6665 5.8334 15.4999 5.8334 15.4165 5.9166C7.49992 8.4166 3.16652 16.8334 5.66652 24.75C7.16652 29.4166 10.7499 33 15.4165 34.5C15.7499 34.6666 16.0833 34.5 16.1665 34.1666C16.2499 34.0834 16.2499 34 16.2499 33.8334V32.6666C16.2499 32.4166 15.9999 32.0834 15.7499 31.9166ZM24.5833 5.9166C24.2499 5.75 23.9165 5.9166 23.8333 6.25C23.7499 6.3334 23.7499 6.4166 23.7499 6.5834V7.75C23.7499 8.0834 23.9999 8.4166 24.2499 8.5834C30.7499 10.9166 34.0833 18.1666 31.6665 24.5834C30.4165 28.0834 27.6665 30.75 24.2499 32C23.9165 32.1666 23.7499 32.4166 23.7499 32.8334V34C23.7499 34.3334 23.9165 34.5834 24.2499 34.6666C24.3333 34.6666 24.4999 34.6666 24.5833 34.5834C32.4999 32.0834 36.8333 23.6666 34.3333 15.75C32.8333 11 29.1665 7.4166 24.5833 5.9166Z" fill="white"/>
    </g>
    <defs>
        <clipPath id="clip0_9369_201047">
            <rect width="40" height="40" fill="white"/>
        </clipPath>
    </defs>
</svg>
