<svg width="32" height="32" viewBox="0 0 32 32" fill="none" xmlns="http://www.w3.org/2000/svg">
    <circle cx="16" cy="16" r="16" fill="#F2F2F7"/>
    <path fill-rule="evenodd" clip-rule="evenodd" d="M8.40273 9.86674H12.7547C12.778 9.86629 12.8009 9.8718 12.8214 9.88274C12.8409 9.89359 12.8574 9.90917 12.8694 9.92807L18.1681 18.4001C18.1969 18.4437 18.1969 18.5004 18.1681 18.5441L16.0001 22.0027C15.9881 22.0216 15.9716 22.0372 15.9521 22.0481C15.9114 22.0704 15.8621 22.0704 15.8214 22.0481C15.8018 22.0372 15.7853 22.0216 15.7734 22.0027L8.28806 10.0721C8.27514 10.0521 8.26777 10.0291 8.26673 10.0054C8.26568 9.98127 8.27121 9.95731 8.28273 9.93607C8.29468 9.91488 8.3122 9.89735 8.33339 9.8854C8.35436 9.87296 8.37834 9.8665 8.40273 9.86674ZM17.5254 9.86667H23.3547C23.3791 9.86644 23.4031 9.8729 23.4241 9.88534C23.4423 9.89837 23.457 9.9158 23.4667 9.93601C23.4781 9.95729 23.4836 9.98122 23.4827 10.0053C23.4833 10.0286 23.4778 10.0516 23.4667 10.072L20.5547 14.7227C20.5428 14.7416 20.5263 14.7572 20.5067 14.768C20.466 14.7903 20.4168 14.7903 20.3761 14.768C20.3565 14.7572 20.34 14.7416 20.3281 14.7227L17.4134 10.072C17.4005 10.0521 17.3931 10.0291 17.3921 10.0053C17.391 9.98121 17.3965 9.95724 17.4081 9.93601C17.42 9.91481 17.4375 9.89729 17.4587 9.88534C17.4789 9.87336 17.5019 9.86692 17.5254 9.86667Z" fill="#FF8836"/>
</svg>
