<svg width="28" height="16" viewBox="0 0 28 16" fill="none" xmlns="http://www.w3.org/2000/svg">
    <path d="M4.6665 2.66667H23.3332C23.6868 2.66667 24.0259 2.52619 24.276 2.27614C24.526 2.02609 24.6665 1.68696 24.6665 1.33333C24.6665 0.979711 24.526 0.640573 24.276 0.390525C24.0259 0.140476 23.6868 0 23.3332 0H4.6665C4.31288 0 3.97374 0.140476 3.7237 0.390525C3.47365 0.640573 3.33317 0.979711 3.33317 1.33333C3.33317 1.68696 3.47365 2.02609 3.7237 2.27614C3.97374 2.52619 4.31288 2.66667 4.6665 2.66667ZM25.9998 6.66667H1.99984C1.64622 6.66667 1.30708 6.80714 1.05703 7.05719C0.80698 7.30724 0.666504 7.64638 0.666504 8C0.666504 8.35362 0.80698 8.69276 1.05703 8.94281C1.30708 9.19286 1.64622 9.33333 1.99984 9.33333H25.9998C26.3535 9.33333 26.6926 9.19286 26.9426 8.94281C27.1927 8.69276 27.3332 8.35362 27.3332 8C27.3332 7.64638 27.1927 7.30724 26.9426 7.05719C26.6926 6.80714 26.3535 6.66667 25.9998 6.66667ZM23.3332 13.3333H4.6665C4.31288 13.3333 3.97374 13.4738 3.7237 13.7239C3.47365 13.9739 3.33317 14.313 3.33317 14.6667C3.33317 15.0203 3.47365 15.3594 3.7237 15.6095C3.97374 15.8595 4.31288 16 4.6665 16H23.3332C23.6868 16 24.0259 15.8595 24.276 15.6095C24.526 15.3594 24.6665 15.0203 24.6665 14.6667C24.6665 14.313 24.526 13.9739 24.276 13.7239C24.0259 13.4738 23.6868 13.3333 23.3332 13.3333Z" fill="currentColor" fill-opacity="0.6"/>
</svg>
