<svg width="10" height="16" viewBox="0 0 10 16" fill="none" xmlns="http://www.w3.org/2000/svg">
    <path d="M3.93424 8.00001L9.24424 2.69001C9.52362 2.40897 9.68043 2.02879 9.68043 1.63251C9.68043 1.23624 9.52362 0.856058 9.24424 0.575015C9.1048 0.434422 8.9389 0.32283 8.75611 0.246677C8.57332 0.170524 8.37726 0.131317 8.17924 0.131317C7.98123 0.131317 7.78517 0.170524 7.60238 0.246677C7.41959 0.32283 7.25369 0.434422 7.11424 0.575015L0.754244 6.93501C0.613652 7.07446 0.502061 7.24036 0.425908 7.42315C0.349755 7.60594 0.310547 7.802 0.310547 8.00001C0.310547 8.19803 0.349755 8.39409 0.425908 8.57688C0.502061 8.75967 0.613652 8.92557 0.754244 9.06501L7.11424 15.5C7.2544 15.639 7.42063 15.749 7.60338 15.8237C7.78614 15.8983 7.98183 15.9362 8.17924 15.935C8.37665 15.9362 8.57235 15.8983 8.7551 15.8237C8.93786 15.749 9.10408 15.639 9.24424 15.5C9.52362 15.219 9.68043 14.8388 9.68043 14.4425C9.68043 14.0462 9.52362 13.6661 9.24424 13.385L3.93424 8.00001Z" fill="currentColor"/>
</svg>
