<svg width="12" height="18" viewBox="0 0 12 18" fill="none" xmlns="http://www.w3.org/2000/svg">
    <path d="M7.17484 9.00002L1.27484 3.10002C0.964424 2.78774 0.790189 2.36533 0.790189 1.92502C0.790189 1.48471 0.964424 1.06229 1.27484 0.750016C1.42978 0.593802 1.61412 0.469811 1.81721 0.385197C2.02031 0.300582 2.23816 0.257019 2.45818 0.257019C2.6782 0.257019 2.89604 0.300582 3.09914 0.385197C3.30224 0.469811 3.48657 0.593802 3.64151 0.750016L10.7082 7.81668C10.8644 7.97162 10.9884 8.15595 11.073 8.35905C11.1576 8.56215 11.2012 8.77999 11.2012 9.00002C11.2012 9.22003 11.1576 9.43788 11.073 9.64098C10.9884 9.84408 10.8644 10.0284 10.7082 10.1833L3.64151 17.3333C3.48578 17.4878 3.30108 17.61 3.09802 17.693C2.89496 17.7759 2.67752 17.818 2.45818 17.8167C2.23883 17.818 2.02139 17.7759 1.81833 17.693C1.61527 17.61 1.43058 17.4878 1.27484 17.3333C0.964424 17.0211 0.790189 16.5987 0.790189 16.1583C0.790189 15.718 0.964424 15.2956 1.27484 14.9833L7.17484 9.00002Z" fill="currentColor"/>
</svg>
