<svg width="28" height="28" viewBox="0 0 28 28" fill="none" xmlns="http://www.w3.org/2000/svg">
    <path fill-rule="evenodd" clip-rule="evenodd" d="M0.666504 14C0.666504 21.364 6.63584 27.3334 13.9998 27.3334C21.3638 27.3334 27.3332 21.364 27.3332 14C27.3332 6.63602 21.3638 0.666687 13.9998 0.666687C6.63584 0.666687 0.666504 6.63602 0.666504 14ZM21.5423 21.5425C19.5419 23.5429 16.8288 24.6667 13.9998 24.6667C11.1709 24.6667 8.45775 23.5429 6.45737 21.5425C4.45698 19.5421 3.33317 16.829 3.33317 14C3.33317 11.171 4.45698 8.45794 6.45737 6.45755C8.45775 4.45716 11.1709 3.33335 13.9998 3.33335C16.8288 3.33335 19.5419 4.45716 21.5423 6.45755C23.5427 8.45794 24.6665 11.171 24.6665 14C24.6665 16.829 23.5427 19.5421 21.5423 21.5425ZM7.72371 12.7659C7.97376 13.0159 8.3129 13.1564 8.66652 13.1564H19.3329C19.6865 13.1564 20.0258 13.0158 20.2759 12.7657C20.4001 12.6422 20.4987 12.4953 20.566 12.3335C20.6333 12.1718 20.6679 11.9983 20.6679 11.8231C20.6679 11.6478 20.6333 11.4744 20.566 11.3126C20.4987 11.1508 20.4001 11.0039 20.2759 10.8804L14.6185 5.22306C14.4955 5.09571 14.3484 4.99414 14.1857 4.92426C14.0231 4.85438 13.8481 4.8176 13.6711 4.81606C13.494 4.81452 13.3184 4.84826 13.1546 4.9153C12.9907 4.98234 12.8418 5.08134 12.7167 5.20653C12.5915 5.33172 12.4925 5.48059 12.4254 5.64445C12.3584 5.80832 12.3246 5.98389 12.3262 6.16093C12.3277 6.33797 12.3645 6.51293 12.4344 6.6756C12.5043 6.83827 12.6058 6.9854 12.7332 7.10839L16.1145 10.4897H8.66652C8.3129 10.4897 7.97376 10.6302 7.72371 10.8803C7.47366 11.1303 7.33319 11.4694 7.33319 11.8231C7.33319 12.1767 7.47366 12.5158 7.72371 12.7659ZM20.2774 15.2065C20.0273 14.9565 19.6882 14.816 19.3346 14.816H8.66819C8.31457 14.816 7.97529 14.9566 7.72524 15.2067C7.60099 15.3302 7.50239 15.4771 7.43511 15.6389C7.36783 15.8006 7.33319 15.9741 7.33319 16.1493C7.33319 16.3246 7.36783 16.498 7.43511 16.6598C7.50239 16.8216 7.60099 16.9685 7.72524 17.092L13.3826 22.7493C13.5056 22.8767 13.6527 22.9783 13.8154 23.0481C13.978 23.118 14.153 23.1548 14.33 23.1563C14.5071 23.1579 14.6826 23.1241 14.8465 23.0571C15.0104 22.9901 15.1592 22.8911 15.2844 22.7659C15.4096 22.6407 15.5086 22.4918 15.5757 22.3279C15.6427 22.1641 15.6764 21.9885 15.6749 21.8115C15.6734 21.6344 15.6366 21.4595 15.5667 21.2968C15.4968 21.1341 15.3952 20.987 15.2679 20.864L11.8866 17.4827H19.3346C19.6882 17.4827 20.0273 17.3422 20.2774 17.0921C20.5274 16.8421 20.6679 16.503 20.6679 16.1493C20.6679 15.7957 20.5274 15.4566 20.2774 15.2065Z" fill="currentColor" fill-opacity="0.6"/>
</svg>
