<svg width="12" height="12" viewBox="0 0 12 12" fill="none" xmlns="http://www.w3.org/2000/svg">
    <path d="M5.61666 0.0782776C5.49392 0.125877 5.38177 0.197278 5.28666 0.288278L0.286666 5.28828C0.193428 5.38152 0.119467 5.49221 0.0690069 5.61403C0.0185466 5.73585 -0.00742531 5.86642 -0.00742531 5.99828C-0.00742531 6.26458 0.0983631 6.51998 0.286666 6.70828C0.379905 6.80152 0.490595 6.87548 0.612417 6.92594C0.734239 6.9764 0.864807 7.00237 0.996666 7.00237C1.26297 7.00237 1.51837 6.89658 1.70667 6.70828L4.99667 3.40828L4.99667 10.9983C4.99667 11.2635 5.10203 11.5178 5.28956 11.7054C5.4771 11.8929 5.73144 11.9983 5.99667 11.9983C6.26189 11.9983 6.51623 11.8929 6.70377 11.7054C6.8913 11.5178 6.99667 11.2635 6.99667 10.9983L6.99667 3.40828L10.2866 6.70828C10.3796 6.80201 10.4902 6.8764 10.6121 6.92717C10.7339 6.97794 10.8646 7.00408 10.9966 7.00408C11.1287 7.00408 11.2594 6.97794 11.3812 6.92717C11.5031 6.8764 11.6137 6.80201 11.7066 6.70828C11.8004 6.61532 11.8748 6.50472 11.9255 6.38286C11.9763 6.261 12.0024 6.13029 12.0024 5.99828C12.0024 5.86627 11.9763 5.73556 11.9255 5.6137C11.8748 5.49184 11.8004 5.38124 11.7066 5.28828L6.70667 0.288278C6.61157 0.197278 6.49941 0.125877 6.37667 0.0782776C6.1332 -0.0217228 5.86013 -0.0217228 5.61666 0.0782776Z" fill="currentColor"/>
</svg>
