<svg width="20" height="21" viewBox="0 0 20 21" fill="none" xmlns="http://www.w3.org/2000/svg">
    <path d="M15.87 6.59998C15.7955 6.42869 15.6745 6.2817 15.5208 6.17566C15.367 6.06961 15.1866 6.00875 15 5.99998H10.42L11.69 1.25998C11.7305 1.11165 11.7362 0.955997 11.7067 0.80511C11.6772 0.654223 11.6134 0.512165 11.52 0.389976C11.4259 0.267618 11.3046 0.168734 11.1658 0.101071C11.027 0.0334085 10.8745 -0.00119375 10.72 -2.38712e-05H3.72005C3.49428 -0.00775711 3.27255 0.0611759 3.09097 0.195548C2.90938 0.32992 2.77865 0.521814 2.72005 0.739976L0.0400456 10.74C-0.000727952 10.891 -0.00548748 11.0495 0.0261498 11.2028C0.0577872 11.356 0.124938 11.4997 0.222204 11.6222C0.31947 11.7448 0.444136 11.8428 0.586179 11.9084C0.728222 11.974 0.883677 12.0054 1.04005 12H4.89005L3.08005 18.74C3.02074 18.9573 3.03657 19.1883 3.12495 19.3955C3.21333 19.6028 3.3691 19.7741 3.56701 19.8817C3.76491 19.9893 3.99337 20.027 4.21535 19.9886C4.43733 19.9501 4.63983 19.8379 4.79005 19.67L15.69 7.66998C15.8198 7.52786 15.9059 7.35131 15.9378 7.16151C15.9697 6.97171 15.9462 6.77674 15.87 6.59998ZM6.08005 15.28L7.16005 11.28C7.20516 11.1295 7.21419 10.9705 7.18639 10.8159C7.15859 10.6612 7.09475 10.5153 7.00005 10.39C6.90484 10.2663 6.782 10.1665 6.64134 10.0988C6.50069 10.0311 6.34613 9.99725 6.19005 9.99998H2.35005L4.49005 1.99998H9.42005L8.15005 6.73998C8.10927 6.89103 8.10451 7.04955 8.13615 7.20278C8.16779 7.35601 8.23494 7.49968 8.3322 7.62223C8.42947 7.74479 8.55414 7.84281 8.69618 7.90841C8.83822 7.97402 8.99368 8.00538 9.15005 7.99998H12.72L6.08005 15.28ZM17 11H16C15.2044 11 14.4413 11.316 13.8787 11.8787C13.3161 12.4413 13 13.2043 13 14V19C13 19.2652 13.1054 19.5195 13.2929 19.7071C13.4805 19.8946 13.7348 20 14 20C14.2653 20 14.5196 19.8946 14.7072 19.7071C14.8947 19.5195 15 19.2652 15 19V17H18V19C18 19.2652 18.1054 19.5195 18.2929 19.7071C18.4805 19.8946 18.7348 20 19 20C19.2653 20 19.5196 19.8946 19.7072 19.7071C19.8947 19.5195 20 19.2652 20 19V14C20 13.2043 19.684 12.4413 19.1214 11.8787C18.5588 11.316 17.7957 11 17 11ZM18 15H15V14C15 13.7348 15.1054 13.4804 15.2929 13.2929C15.4805 13.1053 15.7348 13 16 13H17C17.2653 13 17.5196 13.1053 17.7072 13.2929C17.8947 13.4804 18 13.7348 18 14V15Z" fill="currentColor"/>
</svg>
