<svg width="28" height="29" viewBox="0 0 28 29" fill="none" xmlns="http://www.w3.org/2000/svg">
    <path fill-rule="evenodd" clip-rule="evenodd" d="M7.04065 0.88243C7.48382 1.47053 7.36632 2.30653 6.77822 2.7497C5.12317 3.99687 3.8193 5.65141 2.99362 7.55218C2.70022 8.22758 1.91485 8.53727 1.23945 8.24387C0.564038 7.95048 0.254357 7.16511 0.547751 6.4897C1.55692 4.16654 3.15054 2.14433 5.17338 0.620003C5.76148 0.176838 6.59749 0.294331 7.04065 0.88243ZM20.9597 0.88243C21.4029 0.294331 22.2389 0.176838 22.827 0.620003C24.8499 2.14433 26.4435 4.16654 27.4526 6.4897C27.746 7.16511 27.4364 7.95048 26.7609 8.24387C26.0855 8.53726 25.3002 8.22758 25.0068 7.55218C24.1811 5.65141 22.8772 3.99687 21.2222 2.7497C20.6341 2.30653 20.5166 1.47053 20.9597 0.88243ZM13.9999 4.33329C9.58158 4.3333 5.99985 7.91502 5.99985 12.3333V17.2965C5.99985 17.8879 5.76447 18.4541 5.34741 18.8711L4.82808 19.3905C4.74338 19.4752 4.70089 19.518 4.67111 19.5497L4.66819 19.5529L4.66805 19.5568C4.66667 19.6006 4.66652 19.6608 4.66652 19.7812C4.66652 20.0533 4.66701 20.2021 4.67313 20.3101C4.67345 20.3157 4.67377 20.321 4.67409 20.3258C4.67856 20.3261 4.68333 20.3264 4.68841 20.3267C4.79525 20.3328 4.94248 20.3333 5.21259 20.3333H22.7872C23.0572 20.3333 23.2048 20.3328 23.3119 20.3267C23.3166 20.3265 23.3211 20.3262 23.3252 20.3259C23.3256 20.321 23.3259 20.3157 23.3262 20.3101C23.3323 20.2021 23.3328 20.0533 23.3328 19.7812C23.3328 19.6615 23.3326 19.6014 23.3312 19.558L23.331 19.5524L23.3292 19.5504C23.2989 19.5182 23.2563 19.4754 23.1714 19.3905L22.6521 18.8711C22.2345 18.4535 21.9999 17.8871 21.9999 17.2965V12.3333C21.9999 7.915 18.4181 4.33328 13.9999 4.33329ZM3.33318 12.3333C3.33318 6.44226 8.10882 1.66664 13.9998 1.66662C19.8909 1.66661 24.6665 6.44225 24.6665 12.3333V17.1143L25.0571 17.5049C25.0679 17.5157 25.0789 17.5267 25.0903 17.538C25.2137 17.661 25.3701 17.8168 25.4997 17.9973C25.7415 18.334 25.8981 18.7191 25.964 19.1206C26.0001 19.3407 25.9998 19.5598 25.9995 19.7369C25.9995 19.752 25.9995 19.7668 25.9995 19.7812C25.9995 19.8175 25.9996 19.8548 25.9998 19.893C26.0012 20.282 26.003 20.7606 25.8596 21.1858C25.5941 21.973 24.9768 22.5936 24.1861 22.8604C23.7617 23.0035 23.284 23.0017 22.898 23.0002C22.8601 23.0001 22.8232 23 22.7872 23H19.3332C19.3332 25.9455 16.9454 28.3333 13.9999 28.3333C11.0543 28.3333 8.66652 25.9455 8.66652 23H5.21259C5.17662 23 5.13963 23.0001 5.10177 23.0002C4.71572 23.0017 4.239 23.0035 3.81458 22.8604C3.02605 22.5944 2.406 21.9752 2.13972 21.1858C1.99629 20.7605 1.9981 20.2821 1.99957 19.893C1.99971 19.8549 1.99985 19.8175 1.99985 19.7812C1.99985 19.766 1.99982 19.7503 1.99979 19.7342C1.99947 19.5594 1.99906 19.3399 2.03505 19.1206C2.10143 18.7162 2.26002 18.3317 2.50013 17.9973C2.63015 17.8162 2.78565 17.6612 2.91079 17.5365C2.92158 17.5257 2.93215 17.5152 2.94246 17.5049L3.33318 17.1141V12.3333ZM11.3332 23C11.3332 24.4727 12.5271 25.6666 13.9999 25.6666C15.4726 25.6666 16.6665 24.4727 16.6665 23H11.3332Z" fill="currentColor" fill-opacity="0.6"/>
</svg>
