<svg width="21" height="21" viewBox="0 0 21 21" fill="none" xmlns="http://www.w3.org/2000/svg">
    <path d="M6.67002 2.22998C6.8319 2.27253 7.00187 2.27378 7.16436 2.23359C7.32684 2.19341 7.47664 2.11308 7.60002 1.99998H12.7L11.43 6.73998C11.3896 6.8883 11.3839 7.04395 11.4134 7.19484C11.4428 7.34573 11.5067 7.48779 11.6 7.60998C11.6932 7.73099 11.8128 7.82906 11.9498 7.89666C12.0867 7.96427 12.2373 7.99961 12.39 7.99998H16L14.87 9.23998C14.6928 9.43644 14.6006 9.69515 14.6137 9.95944C14.6268 10.2237 14.7442 10.472 14.94 10.65C15.1234 10.8167 15.3622 10.9093 15.61 10.91C15.7496 10.9096 15.8875 10.8801 16.0149 10.8233C16.1424 10.7664 16.2565 10.6836 16.35 10.58L19 7.66998C19.1313 7.52465 19.2171 7.34397 19.2466 7.15036C19.2761 6.95675 19.2481 6.75873 19.1661 6.58087C19.0841 6.40301 18.9517 6.25315 18.7853 6.14989C18.6189 6.04662 18.4258 5.99449 18.23 5.99998H13.69L15 1.25998C15.0391 1.1109 15.0432 0.954806 15.0119 0.803889C14.9807 0.652973 14.915 0.511315 14.82 0.389976C14.7238 0.264876 14.5994 0.164323 14.4568 0.0965392C14.3143 0.0287555 14.1578 -0.00433412 14 -2.38712e-05H7.00002C6.77426 -0.00775711 6.55253 0.0611759 6.37095 0.195548C6.18936 0.32992 6.05862 0.521814 6.00002 0.739976V0.999976C5.92838 1.2519 5.95843 1.52187 6.08372 1.75187C6.209 1.98187 6.41952 2.15354 6.67002 2.22998ZM19.67 18.29L1.67002 0.289976C1.47541 0.148101 1.23613 0.0812266 0.99616 0.101643C0.756189 0.12206 0.531647 0.228396 0.363799 0.401109C0.19595 0.573823 0.0960718 0.801311 0.0825183 1.04177C0.0689649 1.28222 0.142647 1.51949 0.290024 1.70998L4.61002 5.99998L3.35002 10.74C3.31096 10.8891 3.30688 11.0451 3.3381 11.1961C3.36933 11.347 3.43501 11.4886 3.53002 11.61C3.62318 11.731 3.74282 11.8291 3.87976 11.8967C4.0167 11.9643 4.16731 11.9996 4.32002 12H8.16002L6.35002 18.74C6.2914 18.9574 6.30789 19.1883 6.39682 19.3952C6.48575 19.6021 6.64192 19.7729 6.84002 19.88C6.98745 19.9595 7.1525 20.0008 7.32002 20C7.45957 19.9996 7.5975 19.9701 7.72494 19.9133C7.85239 19.8564 7.96653 19.7736 8.06002 19.67L12.91 14.33L18.29 19.71C18.383 19.8037 18.4936 19.8781 18.6154 19.9289C18.7373 19.9796 18.868 20.0058 19 20.0058C19.132 20.0058 19.2627 19.9796 19.3846 19.9289C19.5065 19.8781 19.6171 19.8037 19.71 19.71C19.8038 19.617 19.8781 19.5064 19.9289 19.3846C19.9797 19.2627 20.0058 19.132 20.0058 19C20.0058 18.868 19.9797 18.7373 19.9289 18.6154C19.8781 18.4935 19.8038 18.3829 19.71 18.29H19.67ZM5.62002 9.99998L6.25002 7.65998L8.59002 9.99998H5.62002ZM9.35002 15.28L10.35 11.72L11.55 12.91L9.35002 15.28Z" fill="currentColor"/>
</svg>
