<svg width="26" height="26" viewBox="0 0 26 26" fill="none" xmlns="http://www.w3.org/2000/svg">
    <path d="M5.14819 18.7811C6.04065 16.9851 6.50366 15.0063 6.50072 13.0009C6.4998 12.0263 6.71845 11.064 7.14042 10.1855C7.5624 9.30707 8.17687 8.53494 8.93819 7.92651"
          stroke="currentColor" stroke-width="1.5" stroke-linecap="round" stroke-linejoin="round"/>
    <path d="M13.0007 13.0009C13.0058 16.3046 12.1677 19.5549 10.5657 22.4442" stroke="currentColor" stroke-width="1.5"
          stroke-linecap="round" stroke-linejoin="round"/>
    <path d="M9.75049 13.0009C9.75049 12.1389 10.0929 11.3123 10.7024 10.7028C11.3119 10.0933 12.1385 9.75085 13.0005 9.75085C13.8624 9.75085 14.6891 10.0933 15.2986 10.7028C15.9081 11.3123 16.2505 12.1389 16.2505 13.0009C16.2552 16.3508 15.5173 19.6601 14.0897 22.6906"
          stroke="currentColor" stroke-width="1.5" stroke-linecap="round" stroke-linejoin="round"/>
    <path d="M22.198 18.6884C22.5665 16.815 22.7516 14.9101 22.7506 13.0009C22.7506 10.415 21.7234 7.93504 19.8949 6.10656C18.0664 4.27808 15.5865 3.25085 13.0006 3.25085C10.4147 3.25085 7.93479 4.27808 6.10631 6.10656C4.27783 7.93504 3.2506 10.415 3.2506 13.0009C3.25182 14.1079 3.06419 15.207 2.6958 16.2509"
          stroke="currentColor" stroke-width="1.5" stroke-linecap="round" stroke-linejoin="round"/>
    <path d="M9.42571 16.2509C9.07885 17.9593 8.45754 19.6003 7.58594 21.1101" stroke="currentColor" stroke-width="1.5"
          stroke-linecap="round" stroke-linejoin="round"/>
    <path d="M12.188 6.55115C13.1029 6.43672 14.0316 6.51808 14.9126 6.78983C15.7937 7.06157 16.6069 7.5175 17.2983 8.12738C17.9898 8.73726 18.5437 9.48716 18.9234 10.3274C19.303 11.1676 19.4998 12.0789 19.5005 13.0009C19.5007 14.0873 19.4336 15.1727 19.2993 16.2508"
          stroke="currentColor" stroke-width="1.5" stroke-linecap="round" stroke-linejoin="round"/>
    <path d="M18.6817 19.5009C18.527 20.102 18.3516 20.6944 18.1555 21.2782" stroke="currentColor" stroke-width="1.5"
          stroke-linecap="round" stroke-linejoin="round"/>
</svg>
