<svg width="17" height="21" viewBox="0 0 17 21" fill="none" xmlns="http://www.w3.org/2000/svg">
    <path d="M16.3646 6.59998C16.29 6.42869 16.1691 6.2817 16.0153 6.17566C15.8615 6.06961 15.6811 6.00875 15.4946 5.99998H10.9146L12.1846 1.25998C12.225 1.11165 12.2307 0.955997 12.2012 0.80511C12.1717 0.654223 12.1079 0.512165 12.0146 0.389976C11.9204 0.267618 11.7991 0.168734 11.6603 0.101071C11.5215 0.0334085 11.369 -0.00119375 11.2146 -2.38711e-05H4.21455C3.98879 -0.00775711 3.76706 0.0611759 3.58548 0.195548C3.40389 0.32992 3.27315 0.521814 3.21455 0.739976L0.534552 10.74C0.493779 10.891 0.489019 11.0495 0.520657 11.2028C0.552294 11.356 0.619445 11.4997 0.716711 11.6222C0.813977 11.7448 0.938643 11.8428 1.08069 11.9084C1.22273 11.974 1.37818 12.0054 1.53455 12H5.38455L3.57455 18.74C3.51525 18.9573 3.53107 19.1883 3.61946 19.3955C3.70784 19.6028 3.8636 19.7741 4.06151 19.8817C4.25942 19.9893 4.48787 20.027 4.70986 19.9886C4.93184 19.9501 5.13434 19.8379 5.28455 19.67L16.1846 7.66998C16.3143 7.52786 16.4004 7.35131 16.4323 7.16151C16.4642 6.97171 16.4407 6.77674 16.3646 6.59998ZM6.57455 15.28L7.65455 11.28C7.69967 11.1295 7.7087 10.9705 7.6809 10.8159C7.6531 10.6612 7.58926 10.5153 7.49455 10.39C7.39935 10.2663 7.2765 10.1665 7.13585 10.0988C6.99519 10.0311 6.84064 9.99725 6.68455 9.99998H2.84455L4.98455 1.99998H9.91455L8.64455 6.73998C8.60378 6.89103 8.59902 7.04955 8.63066 7.20278C8.66229 7.35601 8.72945 7.49968 8.82671 7.62223C8.92398 7.74479 9.04864 7.84281 9.19069 7.90841C9.33273 7.97402 9.48818 8.00538 9.64455 7.99998H13.2146L6.57455 15.28Z" fill="currentColor"/>
</svg>
