<svg width="24" height="24" viewBox="0 0 24 24" fill="none" xmlns="http://www.w3.org/2000/svg">
<path d="M19.8326 10.3123C19.941 10.9148 20 11.5447 20 12.2021C20 17.3439 16.6834 21 11.674 21C10.5348 21.0004 9.40675 20.7678 8.35421 20.3156C7.30167 19.8635 6.34532 19.2006 5.53979 18.3648C4.73426 17.529 4.09535 16.5367 3.65956 15.4446C3.22378 14.3525 2.99965 13.182 3 12C2.99965 10.818 3.22378 9.64752 3.65956 8.55542C4.09535 7.46333 4.73426 6.47103 5.53979 5.63524C6.34532 4.79944 7.30167 4.13652 8.35421 3.68435C9.40675 3.23219 10.5348 2.99964 11.674 3C14.0161 3 15.9732 3.89415 17.4746 5.346L15.0294 7.88308V7.87668C14.1192 6.97704 12.964 6.51534 11.674 6.51534C8.81206 6.51534 6.48582 9.02408 6.48582 11.9945C6.48582 14.964 8.81206 17.4783 11.674 17.4783C14.2708 17.4783 16.0384 15.9377 16.4014 13.8221H11.674V10.3123H19.8335H19.8326Z" fill="currentColor"/>
</svg>
