<svg width="19" height="18" viewBox="0 0 19 18" fill="none" xmlns="http://www.w3.org/2000/svg">
    <path d="M3.18999 9.34499C3.37183 9.16363 3.61817 9.06178 3.87499 9.06178C4.13182 9.06178 4.37816 9.16363 4.55999 9.34499C4.64983 9.43471 4.72109 9.54126 4.76971 9.65854C4.81834 9.77582 4.84336 9.90153 4.84336 10.0285C4.84336 10.1555 4.81834 10.2812 4.76971 10.3985C4.72109 10.5157 4.64983 10.6223 4.55999 10.712L2.50499 12.764C2.32518 12.9434 2.18252 13.1566 2.08519 13.3913C1.98785 13.6259 1.93775 13.8775 1.93775 14.1315C1.93775 14.3855 1.98785 14.6371 2.08519 14.8717C2.18252 15.1064 2.32518 15.3195 2.50499 15.499C2.86867 15.8617 3.36135 16.0654 3.87499 16.0654C4.38864 16.0654 4.88132 15.8617 5.24499 15.499L10.039 10.712C10.1288 10.6223 10.2001 10.5157 10.2487 10.3985C10.2973 10.2812 10.3224 10.1555 10.3224 10.0285C10.3224 9.90153 10.2973 9.77582 10.2487 9.65854C10.2001 9.54126 10.1288 9.43471 10.039 9.34499C9.94901 9.25526 9.87762 9.14865 9.82891 9.03128C9.7802 8.91391 9.75512 8.78807 9.75512 8.66099C9.75512 8.53391 9.7802 8.40808 9.82891 8.29071C9.87762 8.17334 9.94901 8.06673 10.039 7.97699C10.2208 7.79563 10.4672 7.69378 10.724 7.69378C10.9808 7.69378 11.2272 7.79563 11.409 7.97699C11.6788 8.24618 11.8928 8.56595 12.0389 8.91797C12.1849 9.27 12.2601 9.64737 12.2601 10.0285C12.2601 10.4096 12.1849 10.787 12.0389 11.139C11.8928 11.491 11.6788 11.8108 11.409 12.08L6.61399 16.867C5.88677 17.5927 4.90136 18.0003 3.87399 18.0003C2.84662 18.0003 1.86121 17.5927 1.13399 16.867C0.774366 16.5081 0.489053 16.0818 0.294383 15.6125C0.0997141 15.1432 -0.000488281 14.6401 -0.000488281 14.132C-0.000488281 13.6239 0.0997141 13.1208 0.294383 12.6515C0.489053 12.1822 0.774366 11.7559 1.13399 11.397L3.18999 9.34399V9.34499ZM14.81 8.65499C14.6282 8.83636 14.3818 8.93821 14.125 8.93821C13.8682 8.93821 13.6218 8.83636 13.44 8.65499C13.3502 8.56528 13.2789 8.45873 13.2303 8.34145C13.1817 8.22417 13.1566 8.09845 13.1566 7.97149C13.1566 7.84453 13.1817 7.71882 13.2303 7.60154C13.2789 7.48426 13.3502 7.37771 13.44 7.28799L15.495 5.23599C15.6748 5.05654 15.8175 4.84339 15.9148 4.60873C16.0121 4.37408 16.0622 4.12253 16.0622 3.86849C16.0622 3.61445 16.0121 3.36291 15.9148 3.12825C15.8175 2.8936 15.6748 2.68045 15.495 2.50099C15.1313 2.13827 14.6386 1.93457 14.125 1.93457C13.6113 1.93457 13.1187 2.13827 12.755 2.50099L7.96199 7.28799C7.87216 7.37771 7.8009 7.48426 7.75227 7.60154C7.70365 7.71882 7.67862 7.84453 7.67862 7.97149C7.67862 8.09845 7.70365 8.22417 7.75227 8.34145C7.8009 8.45873 7.87216 8.56528 7.96199 8.65499C8.05198 8.74473 8.12337 8.85134 8.17208 8.96871C8.22079 9.08608 8.24586 9.21191 8.24586 9.33899C8.24586 9.46607 8.22079 9.5919 8.17208 9.70928C8.12337 9.82665 8.05198 9.93326 7.96199 10.023C7.78016 10.2044 7.53382 10.3062 7.27699 10.3062C7.02017 10.3062 6.77383 10.2044 6.59199 10.023C6.3222 9.75381 6.10815 9.43404 5.9621 9.08202C5.81606 8.72999 5.74088 8.35261 5.74088 7.97149C5.74088 7.59037 5.81606 7.213 5.9621 6.86097C6.10815 6.50894 6.3222 6.18918 6.59199 5.91999L11.387 1.13299C12.1142 0.407293 13.0996 -0.000274658 14.127 -0.000274658C15.1544 -0.000274658 16.1398 0.407293 16.867 1.13299C17.2266 1.4919 17.5119 1.91821 17.7066 2.38751C17.9013 2.85682 18.0015 3.35991 18.0015 3.86799C18.0015 4.37607 17.9013 4.87917 17.7066 5.34847C17.5119 5.81778 17.2266 6.24409 16.867 6.60299L14.81 8.65599V8.65499Z" fill="currentColor"/>
</svg>
