<svg width="22" height="21" viewBox="0 0 22 21" fill="none" xmlns="http://www.w3.org/2000/svg">
    <path fill-rule="evenodd" clip-rule="evenodd" d="M16.7063 4.53693H15.5316C14.8091 2.74299 13.0523 1.47676 10.9997 1.47676C8.94718 1.47676 7.19037 2.74299 6.46784 4.53693H5.28448C6.11579 2.18502 8.35881 0.5 10.9954 0.5C13.632 0.5 15.875 2.18502 16.7063 4.53693ZM7.54354 4.53693H14.4559C13.8008 3.29785 12.4989 2.4535 10.9997 2.4535C9.50059 2.4535 8.19866 3.29785 7.54354 4.53693ZM4.22354 4.53714C4.39378 3.96512 4.63452 3.42346 4.93569 2.92224H3.52738C2.85851 2.92224 2.31628 3.46447 2.31628 4.13334V4.56792C2.44771 4.54766 2.58235 4.53714 2.71945 4.53714H4.22354ZM17.7679 4.53714H19.2711C19.4086 4.53714 19.5436 4.54771 19.6754 4.56809V4.13334C19.6754 3.46447 19.1331 2.92224 18.4643 2.92224H17.0557C17.3569 3.42346 17.5976 3.96512 17.7679 4.53714ZM0.5 7.16082C0.5 6.26899 1.22297 5.54602 2.1148 5.54602H19.8776C20.7694 5.54602 21.4924 6.26899 21.4924 7.16082V10.9959H20.4834C19.3686 10.9959 18.4649 11.8996 18.4649 13.0144C18.4649 14.1292 19.3686 15.0329 20.4834 15.0329H21.4924V18.8681C21.4924 19.7599 20.7694 20.4829 19.8776 20.4829H2.1148C1.22297 20.4829 0.5 19.7599 0.5 18.8681V7.16082ZM16.0304 12.0406H17.7584C17.7169 11.617 17.6098 11.2405 17.437 10.9113C17.2642 10.582 17.0396 10.3046 16.7631 10.0789C16.4866 9.851 16.1664 9.67832 15.8023 9.56089C15.4383 9.44116 15.042 9.3813 14.6135 9.3813C13.9845 9.3813 13.4166 9.52175 12.9097 9.80265C12.4029 10.0836 12.0008 10.4945 11.7036 11.0356C11.4064 11.5767 11.2578 12.2364 11.2578 13.0146C11.2578 13.7905 11.4041 14.449 11.6967 14.9901C11.9893 15.5312 12.3879 15.9433 12.8924 16.2265C13.3993 16.5074 13.973 16.6479 14.6135 16.6479C15.0996 16.6479 15.5305 16.5742 15.906 16.4269C16.2839 16.2795 16.6041 16.0815 16.8668 15.8328C17.1294 15.5818 17.3356 15.3044 17.4854 15.0005C17.6374 14.6965 17.7285 14.388 17.7584 14.0749L16.0304 14.0645C16.0005 14.2349 15.9463 14.388 15.868 14.5239C15.792 14.6574 15.6941 14.7714 15.5743 14.8658C15.4568 14.9579 15.3197 15.0281 15.163 15.0765C15.0086 15.1248 14.837 15.149 14.6481 15.149C14.3117 15.149 14.0202 15.0695 13.7737 14.9107C13.5295 14.7495 13.3394 14.5112 13.2035 14.1958C13.0699 13.878 13.003 13.4843 13.003 13.0146C13.003 12.5633 13.0687 12.1788 13.2 11.8611C13.3337 11.5433 13.5237 11.3004 13.7703 11.1323C14.0191 10.9642 14.3151 10.8802 14.6584 10.8802C14.852 10.8802 15.0282 10.9078 15.1872 10.9631C15.3485 11.0161 15.4879 11.0932 15.6054 11.1945C15.7229 11.2958 15.8173 11.4178 15.8887 11.5606C15.9602 11.7033 16.0074 11.8634 16.0304 12.0406ZM10.2582 16.5512V9.478H8.55093V13.5534H8.49218L5.7067 9.478H4.23447V16.5512H5.94516V12.4689H5.99009L8.80667 16.5512H10.2582ZM20.4835 12.0054C19.9261 12.0054 19.4742 12.4572 19.4742 13.0146C19.4742 13.572 19.9261 14.0239 20.4835 14.0239C21.0409 14.0239 21.4927 13.572 21.4927 13.0146C21.4927 12.4572 21.0409 12.0054 20.4835 12.0054Z" fill="currentColor"/>
</svg>
