<svg width="20" height="20" viewBox="0 0 20 20" fill="none" xmlns="http://www.w3.org/2000/svg">
    <path d="M18 9V3C18 1.897 17.103 1 16 1H13C13 0.734784 12.8946 0.48043 12.7071 0.292893C12.5196 0.105357 12.2652 0 12 0H6C5.73478 0 5.48043 0.105357 5.29289 0.292893C5.10536 0.48043 5 0.734784 5 1H2C0.897 1 0 1.897 0 3V16C0 17.103 0.897 18 2 18H9C9 19.103 9.897 20 11 20H18C19.103 20 20 19.103 20 18V11C20 9.897 19.103 9 18 9ZM9 11V16H2V3H5V5H13V3H16V9H11C9.897 9 9 9.897 9 11ZM11 18V11H18L18.001 18H11Z" fill="currentColor"/>
</svg>
