<svg width="26" height="24" viewBox="0 0 26 24" fill="none" xmlns="http://www.w3.org/2000/svg">
    <path fill-rule="evenodd" clip-rule="evenodd" d="M7.38539 1.10589e-06H18.614C19.2402 -2.09876e-05 19.7842 -4.00618e-05 20.2361 0.0348538C20.7159 0.0719075 21.1922 0.153616 21.6607 0.370725C22.3656 0.69735 22.9601 1.22216 23.3716 1.88106C23.6452 2.31904 23.7853 2.78156 23.8816 3.25308C23.9723 3.69714 24.0397 4.23695 24.1174 4.85834L25.7301 17.7601C25.8279 18.5421 25.9116 19.2116 25.9332 19.7637C25.9558 20.3421 25.9189 20.9264 25.6874 21.4992C25.3452 22.3455 24.7239 23.0494 23.9266 23.4938C23.3869 23.7946 22.8117 23.9036 22.2349 23.953C21.6844 24.0001 21.0098 24 20.2216 24H5.7778C4.98966 24 4.31502 24.0001 3.76451 23.953C3.18776 23.9036 2.61249 23.7946 2.07284 23.4938C1.27551 23.0494 0.6542 22.3455 0.312059 21.4992C0.0804887 20.9264 0.0436807 20.3421 0.0662762 19.7637C0.0878441 19.2116 0.171545 18.5421 0.269327 17.7601L1.88206 4.85825C1.9597 4.2369 2.02716 3.69712 2.11783 3.25308C2.21411 2.78157 2.35427 2.31904 2.62781 1.88106C3.03934 1.22216 3.63384 0.697349 4.3387 0.370725C4.80722 0.153616 5.28356 0.0719075 5.76338 0.0348538C6.21523 -4.00618e-05 6.75921 -2.09876e-05 7.38539 1.10589e-06ZM5.9687 2.6936C5.64842 2.71834 5.5247 2.7602 5.45988 2.79024C5.22492 2.89912 5.02676 3.07405 4.88958 3.29369C4.85173 3.35429 4.79485 3.47186 4.73058 3.7866C4.66299 4.11762 4.60749 4.55417 4.52224 5.23617L2.92224 18.0362C2.81575 18.888 2.74749 19.4434 2.73091 19.8678C2.71486 20.2787 2.75614 20.43 2.78433 20.4997C2.89838 20.7818 3.10548 21.0165 3.37126 21.1646C3.43696 21.2012 3.58196 21.261 3.99172 21.296C4.41493 21.3322 4.97442 21.3333 5.83292 21.3333H20.1665C21.025 21.3333 21.5845 21.3322 22.0077 21.296C22.4175 21.261 22.5625 21.2012 22.6282 21.1646C22.8939 21.0165 23.1011 20.7818 23.2151 20.4997C23.2433 20.43 23.2846 20.2787 23.2685 19.8678C23.2519 19.4434 23.1837 18.888 23.0772 18.0362L21.4772 5.23617C21.3919 4.55417 21.3364 4.11762 21.2689 3.7866C21.2046 3.47186 21.1477 3.35429 21.1098 3.29369C20.9727 3.07405 20.7745 2.89912 20.5396 2.79024C20.4747 2.7602 20.351 2.71834 20.0307 2.6936C19.6939 2.66759 19.2538 2.66667 18.5665 2.66667H7.43292C6.74561 2.66667 6.30555 2.66759 5.9687 2.6936Z" fill="currentColor" fill-opacity="0.6"/>
    <path fill-rule="evenodd" clip-rule="evenodd" d="M9.00033 5.33337C9.73671 5.33337 10.3337 5.93033 10.3337 6.66671C10.3337 8.13947 11.5276 9.33337 13.0003 9.33337C14.4731 9.33337 15.667 8.13947 15.667 6.66671C15.667 5.93033 16.2639 5.33337 17.0003 5.33337C17.7367 5.33337 18.3337 5.93033 18.3337 6.66671C18.3337 9.61223 15.9458 12 13.0003 12C10.0548 12 7.66699 9.61223 7.66699 6.66671C7.66699 5.93033 8.26395 5.33337 9.00033 5.33337Z" fill="currentColor" fill-opacity="0.6"/>
</svg>
