<svg width="45" height="45" viewBox="0 0 45 45" fill="none" xmlns="http://www.w3.org/2000/svg">
    <path d="M19.3115 1.84743C20.7806 -0.61581 24.2194 -0.615811 25.6885 1.84743L30.6789 10.2151C31.1958 11.0818 32.0169 11.7037 32.9672 11.9484L42.1429 14.3106C44.844 15.006 45.9067 18.4156 44.1135 20.6333L38.0221 28.1671C37.3912 28.9474 37.0775 29.9537 37.148 30.9716L37.8285 40.7992C38.0288 43.6922 35.2467 45.7994 32.6694 44.7068L23.9143 40.9953C23.0075 40.6109 21.9925 40.6109 21.0857 40.9953L12.3306 44.7068C9.7533 45.7994 6.97123 43.6922 7.17154 40.7992L7.85199 30.9716C7.92247 29.9537 7.60883 28.9474 6.97792 28.1671L0.886499 20.6333C-0.906667 18.4156 0.155987 15.006 2.85708 14.3106L12.0328 11.9484C12.9831 11.7037 13.8042 11.0818 14.3211 10.2151L19.3115 1.84743Z" fill="currentColor"/>
</svg>
