<svg width="28" height="20" viewBox="0 0 28 20" fill="none" xmlns="http://www.w3.org/2000/svg">
    <rect width="28" height="20" rx="2" fill="white"/>
    <path fill-rule="evenodd" clip-rule="evenodd" d="M26 1H2C1.44772 1 1 1.44772 1 2V18C1 18.5523 1.44772 19 2 19H26C26.5523 19 27 18.5523 27 18V2C27 1.44772 26.5523 1 26 1ZM2 0C0.895431 0 0 0.895431 0 2V18C0 19.1046 0.895431 20 2 20H26C27.1046 20 28 19.1046 28 18V2C28 0.895431 27.1046 0 26 0H2Z" fill="#DFDFDF"/>
    <mask id="mask0_2057:20496" style="mask-type:alpha" maskUnits="userSpaceOnUse" x="0" y="0" width="28" height="20">
        <rect x="0.5" y="0.5" width="27" height="19" rx="1.5" fill="white" stroke="white"/>
    </mask>
    <g mask="url(#mask0_2057:20496)">
        <path fill-rule="evenodd" clip-rule="evenodd" d="M0 13.3333H28V6.66663H0V13.3333Z" fill="#0C47B7"/>
        <path fill-rule="evenodd" clip-rule="evenodd" d="M0 20H28V13.3334H0V20Z" fill="#E53B35"/>
    </g>
</svg>
