<svg width="24" height="24" viewBox="0 0 24 24" fill="none" xmlns="http://www.w3.org/2000/svg">
    <g clip-path="url(#clip0_2583_8692)">
        <path d="M12 24C18.6274 24 24 18.6274 24 12C24 5.37258 18.6274 0 12 0C5.37258 0 0 5.37258 0 12C0 18.6274 5.37258 24 12 24Z" fill="#F0F0F0"/>
        <path d="M2.4813 4.69415C1.53869 5.92054 0.827922 7.33406 0.414062 8.86964H6.65678L2.4813 4.69415Z" fill="#0052B4"/>
        <path d="M23.5864 8.86964C23.1725 7.3341 22.4617 5.92059 21.5191 4.6942L17.3438 8.86964H23.5864Z" fill="#0052B4"/>
        <path d="M0.414062 15.1305C0.827969 16.666 1.53873 18.0795 2.4813 19.3059L6.65664 15.1305H0.414062Z" fill="#0052B4"/>
        <path d="M19.3063 2.48067C18.0799 1.53806 16.6664 0.827297 15.1309 0.413391V6.65606L19.3063 2.48067Z" fill="#0052B4"/>
        <path d="M4.69531 21.5193C5.9217 22.4619 7.33522 23.1727 8.87075 23.5866V17.344L4.69531 21.5193Z" fill="#0052B4"/>
        <path d="M8.8707 0.413391C7.33517 0.827297 5.92166 1.53806 4.69531 2.48063L8.8707 6.65602V0.413391Z" fill="#0052B4"/>
        <path d="M15.1309 23.5866C16.6664 23.1727 18.0799 22.4619 19.3062 21.5194L15.1309 17.344V23.5866Z" fill="#0052B4"/>
        <path d="M17.3438 15.1305L21.5191 19.3059C22.4617 18.0796 23.1725 16.666 23.5864 15.1305H17.3438Z" fill="#0052B4"/>
        <path d="M23.8984 10.4348H13.5653H13.5653V0.101578C13.0529 0.034875 12.5305 0 12 0C11.4694 0 10.9471 0.034875 10.4348 0.101578V10.4347V10.4347H0.101578C0.034875 10.9471 0 11.4695 0 12C0 12.5306 0.034875 13.0529 0.101578 13.5652H10.4347H10.4347V23.8984C10.9471 23.9651 11.4694 24 12 24C12.5305 24 13.0529 23.9652 13.5652 23.8984V13.5653V13.5653H23.8984C23.9651 13.0529 24 12.5306 24 12C24 11.4695 23.9651 10.9471 23.8984 10.4348Z" fill="#D80027"/>
        <path d="M15.1309 15.1305L20.4857 20.4853C20.732 20.2391 20.9669 19.9817 21.191 19.7149L16.6066 15.1304H15.1309V15.1305Z" fill="#D80027"/>
        <path d="M8.87048 15.1305H8.87039L3.51562 20.4853C3.76181 20.7315 4.0192 20.9665 4.28602 21.1906L8.87048 16.6061V15.1305Z" fill="#D80027"/>
        <path d="M8.86878 8.86965V8.86955L3.51397 3.51469C3.26769 3.76088 3.03275 4.01827 2.80859 4.28508L7.39311 8.8696H8.86878V8.86965Z" fill="#D80027"/>
        <path d="M15.1309 8.86964L20.4857 3.51473C20.2395 3.26845 19.9821 3.03351 19.7153 2.8094L15.1309 7.39392V8.86964Z" fill="#D80027"/>
    </g>
    <defs>
        <clipPath id="clip0_2583_8692">
            <rect width="24" height="24" fill="white"/>
        </clipPath>
    </defs>
</svg>
