<svg width="24" height="24" viewBox="0 0 24 24" fill="none" xmlns="http://www.w3.org/2000/svg">
    <g clip-path="url(#clip0_2583_15582)">
        <mask id="mask0_2583_15582" style="mask-type:alpha" maskUnits="userSpaceOnUse" x="0" y="0" width="24" height="24">
            <circle cx="12" cy="12" r="12" fill="#D9D9D9"/>
        </mask>
        <g mask="url(#mask0_2583_15582)">
        </g>
        <g clip-path="url(#clip1_2583_15582)">
            <path fill-rule="evenodd" clip-rule="evenodd" d="M24 12C24 18.6274 18.6274 24 12 24C5.37257 24 0 18.6274 0 12C0 5.37257 5.37257 0 12 0C18.6274 0 24 5.37257 24 12Z" fill="#D80027"/>
            <path fill-rule="evenodd" clip-rule="evenodd" d="M8.57143 23.5028C3.61459 22.0276 0 17.4358 0 11.9997C0 6.5637 3.61459 1.97188 8.57143 0.496651V23.5028Z" fill="#359846"/>
            <path fill-rule="evenodd" clip-rule="evenodd" d="M8.57115 9.42857C7.15097 9.42857 5.99972 10.5798 5.99972 12C5.99972 13.4202 7.15097 14.5714 8.57115 14.5714C9.99133 14.5714 11.1426 13.4202 11.1426 12C11.1426 10.5798 9.99133 9.42857 8.57115 9.42857ZM5.14258 12C5.14258 10.1065 6.67761 8.57143 8.57115 8.57143C10.4647 8.57143 11.9997 10.1065 11.9997 12C11.9997 13.8935 10.4647 15.4286 8.57115 15.4286C6.67761 15.4286 5.14258 13.8935 5.14258 12Z" fill="#FFDA44"/>
            <path fill-rule="evenodd" clip-rule="evenodd" d="M10.4107 14.4461L6.125 10.1604L6.73105 9.55431L11.0168 13.84L10.4107 14.4461Z" fill="#FFDA44"/>
            <path fill-rule="evenodd" clip-rule="evenodd" d="M8.14258 15.0304V8.9695H8.99972V15.0304H8.14258Z" fill="#FFDA44"/>
            <path fill-rule="evenodd" clip-rule="evenodd" d="M5.57227 11.6019H11.6332V12.4591H5.57227V11.6019Z" fill="#FFDA44"/>
            <path fill-rule="evenodd" clip-rule="evenodd" d="M6.73105 14.4461L11.0168 10.1604L10.4107 9.55431L6.125 13.84L6.73105 14.4461Z" fill="#FFDA44"/>
            <path d="M9.85742 10.2857H7.28599C7.04931 10.2857 6.85742 10.4776 6.85742 10.7143V12.4286C6.85742 13.3753 7.62494 14.1429 8.57171 14.1429C9.51848 14.1429 10.286 13.3753 10.286 12.4286V10.7143C10.286 10.4776 10.0941 10.2857 9.85742 10.2857Z" fill="#D80027"/>
            <path d="M9.42913 11.1429H7.71484V12.4286C7.71484 12.902 8.09858 13.2857 8.57199 13.2857C9.0454 13.2857 9.42913 12.902 9.42913 12.4286V11.1429Z" fill="#FBFBFB"/>
        </g>
    </g>
    <defs>
        <clipPath id="clip0_2583_15582">
            <rect width="24" height="24" fill="white"/>
        </clipPath>
        <clipPath id="clip1_2583_15582">
            <rect width="24" height="24" fill="white"/>
        </clipPath>
    </defs>
</svg>
