<svg width="24" height="24" viewBox="0 0 24 24" fill="none" xmlns="http://www.w3.org/2000/svg">
    <g clip-path="url(#clip0_2583_30313)">
        <mask id="mask0_2583_30313" style="mask-type:alpha" maskUnits="userSpaceOnUse" x="0" y="0" width="24" height="24">
            <circle cx="12" cy="12" r="12" fill="#D9D9D9"/>
        </mask>
        <g mask="url(#mask0_2583_30313)">
        </g>
        <g clip-path="url(#clip1_2583_30313)">
            <path d="M0 12C0 13.4679 0.264047 14.8739 0.746391 16.1739L12 17.2174L23.2536 16.1739C23.736 14.8739 24 13.4679 24 12C24 10.5322 23.736 9.12611 23.2536 7.82612L12 6.78264L0.746391 7.82612C0.264047 9.12611 0 10.5322 0 12H0Z" fill="#FFDA44"/>
            <path d="M23.2553 7.82611C21.5597 3.25655 17.1612 0 12.0017 0C6.84208 0 2.44356 3.25655 0.748047 7.82611H23.2553Z" fill="#D80027"/>
            <path d="M0.748047 16.174C2.44356 20.7435 6.84208 24.0001 12.0017 24.0001C17.1612 24.0001 21.5597 20.7435 23.2553 16.174H0.748047Z" fill="#D80027"/>
        </g>
    </g>
    <defs>
        <clipPath id="clip0_2583_30313">
            <rect width="24" height="24" fill="white"/>
        </clipPath>
        <clipPath id="clip1_2583_30313">
            <rect width="24" height="24" fill="white"/>
        </clipPath>
    </defs>
</svg>
