<svg width="21" height="20" viewBox="0 0 21 20" fill="none" xmlns="http://www.w3.org/2000/svg">
    <path d="M10.5 20C4.977 20 0.5 15.523 0.5 10C0.5 4.477 4.977 0 10.5 0C16.023 0 20.5 4.477 20.5 10C20.5 15.523 16.023 20 10.5 20ZM10.5 18C12.6217 18 14.6566 17.1571 16.1569 15.6569C17.6571 14.1566 18.5 12.1217 18.5 10C18.5 7.87827 17.6571 5.84344 16.1569 4.34315C14.6566 2.84285 12.6217 2 10.5 2C8.37827 2 6.34344 2.84285 4.84315 4.34315C3.34285 5.84344 2.5 7.87827 2.5 10C2.5 12.1217 3.34285 14.1566 4.84315 15.6569C6.34344 17.1571 8.37827 18 10.5 18ZM12.086 11H6.5C6.23478 11 5.98043 10.8946 5.79289 10.7071C5.60536 10.5196 5.5 10.2652 5.5 10C5.5 9.73478 5.60536 9.48043 5.79289 9.29289C5.98043 9.10536 6.23478 9 6.5 9H12.086L9.55 6.464C9.45449 6.37175 9.37831 6.26141 9.3259 6.1394C9.27349 6.0174 9.2459 5.88618 9.24475 5.7534C9.2436 5.62062 9.2689 5.48894 9.31918 5.36605C9.36946 5.24315 9.44371 5.1315 9.53761 5.0376C9.6315 4.94371 9.74315 4.86946 9.86605 4.81918C9.98894 4.7689 10.1206 4.7436 10.2534 4.74475C10.3862 4.7459 10.5174 4.77349 10.6394 4.8259C10.7614 4.87831 10.8718 4.95449 10.964 5.05L15.207 9.293C15.3002 9.38565 15.3741 9.49581 15.4246 9.61715C15.4751 9.73848 15.501 9.86859 15.501 10C15.501 10.1314 15.4751 10.2615 15.4246 10.3829C15.3741 10.5042 15.3002 10.6143 15.207 10.707L10.964 14.95C10.8718 15.0455 10.7614 15.1217 10.6394 15.1741C10.5174 15.2265 10.3862 15.2541 10.2534 15.2552C10.1206 15.2564 9.98894 15.2311 9.86605 15.1808C9.74315 15.1305 9.6315 15.0563 9.53761 14.9624C9.44371 14.8685 9.36946 14.7569 9.31918 14.634C9.2689 14.5111 9.2436 14.3794 9.24475 14.2466C9.2459 14.1138 9.27349 13.9826 9.3259 13.8606C9.37831 13.7386 9.45449 13.6282 9.55 13.536L12.086 11Z" fill="currentColor"/>
</svg>
