<svg width="62" height="62" viewBox="0 0 62 62" fill="none" xmlns="http://www.w3.org/2000/svg">
    <rect width="62" height="62" rx="31" fill="url(#paint0_linear_0_3)"/>
    <rect width="62" height="62" rx="31" fill="url(#paint1_radial_0_3)" fill-opacity="0.2"/>
    <path d="M39.5 25.7583C36.8083 25.7583 34.5417 23.4917 34.5417 20.8C34.5417 18.1083 36.8083 15.8417 39.5 15.8417C42.1917 15.8417 44.4583 18.1083 44.4583 20.8C44.4583 23.4917 42.1917 25.7583 39.5 25.7583ZM39.5 18.675C38.3667 18.675 37.375 19.6667 37.375 20.8C37.375 21.9333 38.3667 22.925 39.5 22.925C40.6333 22.925 41.625 21.9333 41.625 20.8C41.625 19.6667 40.6333 18.675 39.5 18.675ZM31 46.1583C30.7167 46.1583 30.4333 46.0167 30.15 45.875C29.5833 45.45 29.4417 44.4583 29.8667 43.8917L33.975 38.5083L27.4583 34.2583C27.0333 33.975 26.75 33.55 26.75 33.125C26.75 32.7 26.8917 32.275 27.3167 31.9917L33.2667 27.6L28.025 25.05L22.925 26.8917C22.2167 27.175 21.3667 26.75 21.225 26.0417C20.9417 25.1917 21.3667 24.4833 22.075 24.2L27.7417 22.2167C28.025 22.075 28.45 22.075 28.875 22.2167L36.6667 25.9C37.0917 26.1833 37.375 26.6083 37.5167 27.0333C37.5167 27.4583 37.375 28.025 36.95 28.3083L30.7167 32.8417L36.8083 36.8083C37.0917 37.0917 37.375 37.375 37.375 37.8C37.375 38.225 37.375 38.65 37.0917 38.9333L32.1333 45.5917C31.85 46.0167 31.425 46.1583 31 46.1583ZM40.9167 31.425C40.6333 31.425 40.4917 31.425 40.2083 31.2833L38.3667 30.2917C37.6583 29.8667 37.375 29.0167 37.8 28.3083C38.225 27.6 39.075 27.3167 39.7833 27.7417L40.775 28.3083L44.3167 25.05C44.8833 24.4833 45.7333 24.4833 46.3 25.05C46.8667 25.6167 46.8667 26.4667 46.3 27.0333L42.05 31C41.625 31.2833 41.2 31.425 40.9167 31.425Z" fill="white"/>
    <path d="M16.8333 44.0333C16.2667 44.0333 15.8417 43.75 15.5583 43.325C15.1333 42.6167 15.4167 41.7667 16.125 41.3417L22.925 37.5167L24.9083 34.9667C25.3333 34.4 26.325 34.2583 26.8917 34.6833C27.4583 35.1083 27.6 36.1 27.175 36.6667L25.05 39.5L24.625 39.925L17.6833 43.8917C17.2583 44.0333 17.1167 44.0333 16.8333 44.0333Z" fill="white"/>
    <defs>
        <linearGradient id="paint0_linear_0_3" x1="31" y1="0" x2="31" y2="62" gradientUnits="userSpaceOnUse">
            <stop stop-color="#F7A86F"/>
            <stop offset="1" stop-color="#F07264"/>
        </linearGradient>
        <radialGradient id="paint1_radial_0_3" cx="0" cy="0" r="1" gradientUnits="userSpaceOnUse" gradientTransform="translate(31 26) rotate(90) scale(29.5 45.0395)">
            <stop stop-color="#F8B34B" stop-opacity="0.56"/>
            <stop offset="1" stop-color="#FF4307"/>
        </radialGradient>
    </defs>
</svg>
