<svg width="16" height="21" viewBox="0 0 16 21" fill="none" xmlns="http://www.w3.org/2000/svg">
    <path d="M15.8646 6.6001C15.79 6.42882 15.6691 6.28183 15.5153 6.17578C15.3615 6.06974 15.1811 6.00888 14.9946 6.0001H10.4146L11.6846 1.2601C11.725 1.11177 11.7307 0.956119 11.7012 0.805232C11.6717 0.654345 11.6079 0.512287 11.5146 0.390098C11.4204 0.267741 11.2991 0.168856 11.1603 0.101193C11.0215 0.0335306 10.869 -0.00107168 10.7146 9.81992e-05H3.71455C3.48879 -0.00763504 3.26706 0.061298 3.08548 0.19567C2.90389 0.330042 2.77315 0.521936 2.71455 0.740098L0.0345524 10.7401C-0.00622112 10.8912 -0.0109806 11.0497 0.0206567 11.2029C0.052294 11.3561 0.119445 11.4998 0.216711 11.6224C0.313977 11.7449 0.438643 11.8429 0.580686 11.9085C0.722729 11.9741 0.878184 12.0055 1.03455 12.0001H4.88455L3.07455 18.7401C3.01525 18.9574 3.03107 19.1884 3.11946 19.3957C3.20784 19.6029 3.3636 19.7742 3.56151 19.8818C3.75942 19.9895 3.98787 20.0271 4.20986 19.9887C4.43184 19.9503 4.63434 19.838 4.78455 19.6701L15.6846 7.6701C15.8143 7.52798 15.9004 7.35143 15.9323 7.16163C15.9642 6.97184 15.9407 6.77686 15.8646 6.6001ZM6.07455 15.2801L7.15455 11.2801C7.19967 11.1296 7.2087 10.9706 7.1809 10.816C7.1531 10.6614 7.08926 10.5155 6.99455 10.3901C6.89935 10.2664 6.7765 10.1667 6.63585 10.0989C6.49519 10.0312 6.34064 9.99737 6.18455 10.0001H2.34455L4.48455 2.0001H9.41455L8.14455 6.7401C8.10378 6.89115 8.09902 7.04967 8.13066 7.2029C8.16229 7.35613 8.22945 7.4998 8.32671 7.62235C8.42398 7.74491 8.54864 7.84293 8.69069 7.90854C8.83273 7.97414 8.98818 8.0055 9.14455 8.0001H12.7146L6.07455 15.2801Z" fill="url(#paint0_linear_2580_8404)"/>
    <defs>
        <linearGradient id="paint0_linear_2580_8404" x1="15.9461" y1="20.0033" x2="-4.07363" y2="14.3009" gradientUnits="userSpaceOnUse">
            <stop stop-color="#8466F5"/>
            <stop offset="1" stop-color="#F899C1"/>
        </linearGradient>
    </defs>
</svg>
