<svg width="24" height="24" viewBox="0 0 24 24" fill="none" xmlns="http://www.w3.org/2000/svg">
    <g clip-path="url(#clip0_1513_11478)">
        <path d="M12 24C18.6274 24 24 18.6274 24 12C24 5.37258 18.6274 0 12 0C5.37258 0 0 5.37258 0 12C0 18.6274 5.37258 24 12 24Z" fill="#F0F0F0"/>
        <path d="M23.9997 11.9999C23.9997 6.84037 20.7432 2.44185 16.1736 0.746338V23.2536C20.7432 21.558 23.9997 17.1595 23.9997 11.9999Z" fill="#D80027"/>
        <path d="M0 11.9999C0 17.1595 3.25655 21.558 7.82611 23.2536V0.746338C3.25655 2.44185 0 6.84037 0 11.9999Z" fill="#359846"/>
    </g>
    <defs>
        <clipPath id="clip0_1513_11478">
            <rect width="24" height="24" fill="white"/>
        </clipPath>
    </defs>
</svg>
