<svg width="240" height="59" viewBox="0 0 240 59" fill="none" xmlns="http://www.w3.org/2000/svg">
<path d="M145.935 33.0834C145.648 32.7857 145.299 32.5538 144.914 32.4037C144.528 32.2535 144.114 32.1887 143.701 32.2136H123.788C122.805 32.2105 121.844 32.5145 121.042 33.0834C120.246 33.6051 119.685 34.4162 119.476 35.3447L115.494 51.2201C115.386 51.5988 115.373 51.9981 115.456 52.3829C115.539 52.7677 115.716 53.1261 115.97 53.4266C116.248 53.7393 116.594 53.9843 116.981 54.143C117.368 54.3016 117.786 54.3698 118.204 54.3421H138.117C139.108 54.3489 140.074 54.0269 140.863 53.4266C141.636 52.9042 142.195 52.121 142.438 51.2201L146.421 35.3447C146.534 34.9572 146.549 34.5474 146.465 34.1525C146.38 33.7576 146.198 33.3901 145.935 33.0834ZM135.489 38.247L132.962 48.3911C132.745 49.1472 132.26 49.7982 131.598 50.2222C130.876 50.7068 130.023 50.9591 129.154 50.9455H128.879C128.501 50.9747 128.122 50.9255 127.764 50.8011C127.407 50.6766 127.078 50.4795 126.801 50.2222C126.576 49.9807 126.421 49.6831 126.352 49.3608C126.283 49.0385 126.302 48.7035 126.407 48.3911L128.943 38.2561C129.171 37.5007 129.661 36.8514 130.325 36.4251C130.993 35.9384 131.797 35.6727 132.623 35.6652H132.98C133.352 35.6484 133.722 35.7071 134.07 35.8377C134.418 35.9684 134.735 36.1682 135.004 36.4251C135.251 36.65 135.429 36.9415 135.515 37.2646C135.601 37.5877 135.592 37.9288 135.489 38.247Z" fill="url(#paint0_linear_1304_7831)"/>
<path d="M176.111 33.1474C175.833 32.8347 175.487 32.5897 175.1 32.431C174.713 32.2723 174.295 32.2042 173.877 32.2319H163.742C163.392 32.2495 163.042 32.1943 162.714 32.0698C162.386 31.9453 162.088 31.7542 161.838 31.5086C161.613 31.2796 161.444 31.0019 161.344 30.697C161.244 30.3922 161.216 30.0684 161.261 29.7507L161.508 28.7253C161.615 28.3475 161.626 27.9491 161.542 27.5657C161.457 27.1824 161.279 26.8259 161.023 26.5281C160.745 26.2154 160.399 25.9704 160.012 25.8117C159.625 25.653 159.207 25.5849 158.789 25.6125H155.594C154.602 25.6058 153.637 25.9277 152.847 26.5281C152.077 27.0474 151.521 27.8279 151.282 28.7253L145.669 51.2384C145.535 51.6209 145.505 52.0327 145.584 52.4305C145.663 52.8284 145.847 53.1977 146.118 53.4998C146.407 53.8059 146.759 54.0461 147.149 54.2041C147.539 54.3621 147.959 54.4342 148.38 54.4153H168.302C169.27 54.4016 170.209 54.0811 170.984 53.4998C171.775 52.9651 172.344 52.1615 172.586 51.2384L176.569 35.363C176.682 34.9847 176.7 34.5841 176.62 34.1973C176.54 33.8105 176.365 33.4497 176.111 33.1474ZM165.674 38.1828L163.138 48.327C162.906 49.0831 162.413 49.7322 161.746 50.1581C161.06 50.6479 160.237 50.9105 159.393 50.9088H159.027C158.667 50.9239 158.307 50.865 157.97 50.7359C157.633 50.6068 157.326 50.4102 157.068 50.1581C156.827 49.927 156.657 49.632 156.577 49.3078C156.498 48.9835 156.513 48.6433 156.619 48.327L159.21 37.9997C159.308 37.617 159.482 37.2579 159.721 36.9434C159.96 36.6289 160.259 36.3655 160.602 36.1687C161.307 35.7272 162.123 35.4954 162.955 35.5003H163.193C163.575 35.4746 163.957 35.529 164.317 35.6598C164.676 35.7907 165.005 35.9952 165.28 36.2602C165.511 36.5168 165.669 36.8302 165.738 37.1681C165.807 37.506 165.785 37.8563 165.674 38.1828Z" fill="url(#paint1_linear_1304_7831)"/>
<path d="M206.287 33.0833C205.999 32.7856 205.651 32.5537 205.265 32.4036C204.88 32.2535 204.466 32.1886 204.053 32.2135H184.14C183.156 32.2104 182.196 32.5145 181.393 33.0833C180.598 33.6051 180.036 34.4161 179.828 35.3447L175.845 51.2201C175.738 51.5987 175.725 51.998 175.808 52.3828C175.891 52.7676 176.067 53.1261 176.321 53.4265C176.599 53.7392 176.945 53.9842 177.332 54.1429C177.719 54.3016 178.138 54.3697 178.555 54.3421H198.459C199.451 54.3488 200.416 54.0269 201.206 53.4265C201.979 52.9042 202.538 52.1209 202.78 51.2201L206.763 35.3447C206.878 34.9579 206.895 34.5485 206.811 34.1537C206.728 33.7588 206.548 33.3909 206.287 33.0833ZM195.841 38.2469L193.314 48.3911C193.097 49.1471 192.612 49.7981 191.95 50.2222C191.228 50.7067 190.375 50.9591 189.505 50.9454H189.304C188.926 50.9746 188.547 50.9255 188.189 50.801C187.831 50.6765 187.503 50.4795 187.225 50.2222C187.001 49.9806 186.846 49.683 186.777 49.3608C186.708 49.0385 186.727 48.7035 186.832 48.3911L189.368 38.2561C189.596 37.5006 190.086 36.8513 190.75 36.425C191.418 35.9383 192.222 35.6727 193.048 35.6651H193.405C193.776 35.6484 194.147 35.7071 194.495 35.8377C194.843 35.9683 195.16 36.1681 195.429 36.425C195.663 36.6581 195.827 36.9533 195.9 37.276C195.973 37.5987 195.952 37.9355 195.841 38.2469Z" fill="url(#paint2_linear_1304_7831)"/>
<path d="M115.914 33.1932C115.636 32.8805 115.29 32.6355 114.903 32.4768C114.515 32.3182 114.097 32.25 113.68 32.2777H90.7455C89.7538 32.2702 88.7878 32.5922 87.9989 33.1932C87.2236 33.7131 86.6639 34.4974 86.4242 35.3996L81.4803 55.3767C81.3454 55.7592 81.3159 56.1709 81.3948 56.5688C81.4737 56.9667 81.6582 57.336 81.9289 57.638C82.2186 57.9432 82.5704 58.1828 82.9604 58.3407C83.3505 58.4986 83.7698 58.5712 84.1902 58.5536H87.3946C88.3631 58.5399 89.3024 58.2193 90.0772 57.638C90.8659 57.1016 91.4348 56.2987 91.6794 55.3767L92.5949 51.449C92.7888 50.7463 93.1757 50.1119 93.7118 49.6179C94.2262 49.1317 94.9084 48.8627 95.6162 48.8672H98.6283C98.9945 48.8672 99.3424 49.1327 99.6903 49.6546C100.06 50.2305 100.367 50.8443 100.606 51.4856C100.863 52.1893 101.053 52.9158 101.173 53.6555C101.295 54.2227 101.295 54.8094 101.173 55.3767C101.041 55.7601 101.013 56.1721 101.094 56.5698C101.174 56.9675 101.36 57.3364 101.631 57.638C101.92 57.9447 102.271 58.1852 102.662 58.3433C103.052 58.5013 103.472 58.573 103.893 58.5536H107.088C108.059 58.5418 109.002 58.2212 109.78 57.638C110.568 57.1036 111.135 56.2994 111.373 55.3767L111.62 54.4611C111.755 53.4692 111.671 52.4596 111.373 51.5039C111.057 50.2293 110.653 48.9781 110.164 47.7594C111.049 47.6276 111.882 47.2644 112.581 46.7065C113.281 46.2177 113.791 45.5034 114.028 44.6832L116.326 35.3905C116.441 35.0183 116.463 34.6238 116.391 34.2409C116.319 33.8581 116.156 33.4985 115.914 33.1932ZM105.531 38.3202L104.323 42.9711C104.159 43.6224 103.79 44.2035 103.27 44.6283C102.724 45.0913 102.068 45.4066 101.366 45.5438H96.5409C96.2336 45.5684 95.9256 45.5048 95.6531 45.3604C95.3807 45.2161 95.1551 44.997 95.0028 44.729C94.8442 44.4648 94.7413 44.1709 94.7004 43.8655C94.6594 43.5601 94.6813 43.2495 94.7647 42.9528L95.9733 38.3019C96.161 37.5156 96.634 36.8271 97.3008 36.3701C98.0082 35.8835 98.8502 35.6306 99.7087 35.6468H102.968C103.351 35.6206 103.735 35.6711 104.098 35.7953C104.462 35.9195 104.796 36.1149 105.083 36.3701C105.332 36.6209 105.506 36.9365 105.586 37.2811C105.665 37.6257 105.646 37.9857 105.531 38.3202Z" fill="url(#paint3_linear_1304_7831)"/>
<path d="M239.879 35.3996L239.219 38.1462C239.085 38.6377 238.891 39.1111 238.643 39.5562C238.3 40.2047 237.918 40.8315 237.498 41.433C237.031 42.0922 236.528 42.7789 235.988 43.4838C235.447 44.1888 234.889 44.8388 234.331 45.4431C234.865 46.7241 235.257 48.0595 235.502 49.4257C235.762 50.4935 235.793 51.6042 235.594 52.685L234.935 55.4316C234.69 56.3536 234.121 57.1565 233.333 57.693C232.558 58.2743 231.619 58.5948 230.65 58.6085H227.446C227.025 58.6261 226.606 58.5535 226.216 58.3956C225.826 58.2377 225.474 57.9981 225.184 57.693C224.914 57.3909 224.729 57.0216 224.65 56.6237C224.571 56.2259 224.601 55.8141 224.736 55.4316L225.157 53.6005C225.279 53.0332 225.279 52.4466 225.157 51.8793C225.038 51.1385 224.845 50.4115 224.58 49.7095C224.349 49.0649 224.041 48.4502 223.665 47.8784C223.326 47.3565 222.978 47.091 222.612 47.091H221.403C220.849 47.1904 220.341 47.4667 219.957 47.8784C219.301 48.4422 218.689 49.0543 218.125 49.7095C217.536 50.3968 216.992 51.1216 216.496 51.8793C216.121 52.4133 215.814 52.9914 215.58 53.6005L215.159 55.4316C214.921 56.3543 214.355 57.1585 213.566 57.693C212.789 58.2761 211.846 58.5967 210.874 58.6085H207.679C207.259 58.6279 206.839 58.5562 206.448 58.3982C206.058 58.2401 205.706 57.9996 205.418 57.693C205.146 57.3913 204.961 57.0224 204.88 56.6247C204.8 56.227 204.827 55.815 204.96 55.4316L205.628 52.685C205.756 52.1897 205.947 51.7128 206.196 51.2659C206.54 50.631 206.926 50.0193 207.35 49.4348C207.807 48.7665 208.265 48.0981 208.824 47.4115C209.382 46.7248 209.895 46.084 210.453 45.4797C210.206 44.8484 209.995 44.2034 209.822 43.5479C209.638 42.8613 209.492 42.1838 209.364 41.4971C209.254 40.8674 209.184 40.2313 209.153 39.5928C209.126 39.1208 209.156 38.6473 209.245 38.1829L209.913 35.4363C210.148 34.5124 210.715 33.7075 211.506 33.1749C212.283 32.5917 213.226 32.2711 214.198 32.2593H217.393C217.814 32.2399 218.234 32.3116 218.624 32.4697C219.014 32.6277 219.366 32.8683 219.654 33.1749C219.927 33.476 220.113 33.8449 220.193 34.2428C220.274 34.6407 220.246 35.0529 220.112 35.4363L219.691 37.2673C219.561 37.843 219.561 38.4404 219.691 39.016C219.813 39.7462 220.003 40.4635 220.259 41.1584C220.498 41.7997 220.805 42.4135 221.174 42.9894C221.513 43.5113 221.87 43.7768 222.236 43.7768H223.436C223.994 43.6799 224.505 43.4034 224.891 42.9894C225.544 42.4233 226.156 41.8114 226.722 41.1584C227.307 40.4768 227.851 39.7615 228.352 39.016C228.744 38.483 229.053 37.8933 229.268 37.2673L229.689 35.4363C229.931 34.5132 230.5 33.7096 231.291 33.1749C232.066 32.5936 233.005 32.273 233.973 32.2593H237.178C237.598 32.2405 238.018 32.3125 238.408 32.4705C238.799 32.6285 239.15 32.8688 239.439 33.1749C239.702 33.4742 239.881 33.8375 239.958 34.2282C240.035 34.6188 240.008 35.0229 239.879 35.3996Z" fill="url(#paint4_linear_1304_7831)"/>
<path d="M24.9554 8.50112C24.8342 8.94472 24.6187 9.35695 24.3237 9.70963C24.1905 9.87838 24.0208 10.0147 23.8273 10.1083C23.6338 10.2018 23.4216 10.2502 23.2067 10.2498H17.2923C16.4344 10.2289 15.5908 10.4718 14.8753 10.9456C14.207 11.3847 13.7321 12.0627 13.5478 12.8408L11.0118 22.9849C10.9065 23.2973 10.8875 23.6323 10.9568 23.9546C11.0261 24.2769 11.1811 24.5745 11.4054 24.816C11.6833 25.0733 12.0113 25.2704 12.369 25.3949C12.7266 25.5193 13.1062 25.5685 13.4837 25.5393H19.3981C19.5771 25.5155 19.7588 25.5534 19.9135 25.6465C20.0683 25.7397 20.1867 25.8826 20.2495 26.052C20.3686 26.4366 20.3686 26.8483 20.2495 27.233C19.9657 28.3591 19.3981 28.9176 18.5558 28.9176H2.80854C2.39104 28.9452 1.97276 28.8771 1.5856 28.7184C1.19845 28.5598 0.85265 28.3147 0.574624 28.0021C0.31881 27.7042 0.140664 27.3478 0.056002 26.9644C-0.0286599 26.581 -0.0171792 26.1826 0.0894182 25.8048L4.07198 9.93852C4.3273 9.056 4.88056 8.28924 5.63757 7.7687C6.41615 7.14235 7.38494 6.80005 8.38418 6.79823H24.1314C24.9096 6.80739 25.1934 7.37501 24.9554 8.50112Z" fill="url(#paint5_linear_1304_7831)"/>
<path d="M73.0307 9.93855L69.0481 25.814C68.8088 26.7114 68.2526 27.492 67.4825 28.0113C66.6933 28.6116 65.7275 28.9335 64.7359 28.9268H62.0808C61.3721 29.0705 60.709 29.3847 60.1491 29.8423C59.6446 30.2644 59.2858 30.8345 59.1237 31.472L58.8856 32.4424C58.6441 33.3659 58.0745 34.1698 57.2834 34.7038C56.5105 35.2886 55.5701 35.6095 54.6009 35.6194H51.5247C51.1041 35.6388 50.6842 35.5671 50.2939 35.409C49.9035 35.251 49.552 35.0104 49.2633 34.7038C48.9919 34.4022 48.8063 34.0333 48.7258 33.6356C48.6453 33.2379 48.6728 32.8259 48.8056 32.4424L49.0528 31.472C49.3732 30.0712 48.7873 29.2198 47.295 28.9359H44.823C44.4055 28.9636 43.9872 28.8954 43.6001 28.7368C43.2129 28.5781 42.8671 28.3331 42.5891 28.0204C42.3354 27.7214 42.1586 27.3649 42.074 26.9819C41.9894 26.599 41.9997 26.2012 42.1038 25.8231L46.0956 9.94771C46.2974 9.01633 46.8604 8.20305 47.6611 7.68633C48.4566 7.09785 49.4183 6.77725 50.4078 6.77079H53.603C54.0197 6.75042 54.4357 6.82187 54.8218 6.98008C55.2078 7.13828 55.5543 7.37939 55.8369 7.68633C56.0974 7.99432 56.2781 8.36182 56.3627 8.75626C56.4473 9.1507 56.4334 9.55993 56.3221 9.94771L53.0628 22.985C52.9528 23.2942 52.9279 23.6272 52.9907 23.9494C53.0535 24.2715 53.2018 24.5708 53.4199 24.816C53.6669 25.0755 53.968 25.2774 54.3019 25.4072C54.6358 25.5369 54.9943 25.5914 55.3517 25.5668H55.7728C56.6429 25.5846 57.497 25.3319 58.2173 24.8435C58.8792 24.421 59.3617 23.7689 59.5723 23.0124L62.8408 9.97517C63.0425 9.04379 63.6056 8.23053 64.4063 7.71381C65.2015 7.12476 66.1634 6.8041 67.1529 6.79827H70.3573C70.774 6.7779 71.1901 6.84935 71.5761 7.00755C71.9622 7.16576 72.3087 7.40687 72.5912 7.71381C72.8402 8.0208 73.0103 8.38394 73.0869 8.77167C73.1635 9.1594 73.1442 9.55998 73.0307 9.93855Z" fill="url(#paint6_linear_1304_7831)"/>
<path d="M101.477 16.8326L99.2435 25.8231C99.0041 26.7206 98.4481 27.5011 97.6779 28.0204C96.8888 28.6208 95.9229 28.9427 94.9313 28.936H84.7322C83.8167 28.936 83.5512 28.3775 83.8167 27.2514C83.9412 26.8155 84.16 26.4123 84.4575 26.0703C84.5942 25.9076 84.7653 25.7772 84.9584 25.6886C85.1516 25.5999 85.362 25.5552 85.5745 25.5576C86.5415 25.5942 87.4975 25.3425 88.3211 24.8344C88.9926 24.414 89.4875 23.7629 89.7127 23.0033L91.2784 16.6678C91.3539 16.1648 91.3321 15.6519 91.2142 15.1571C91.0884 14.4931 90.9172 13.8385 90.7016 13.1979C90.4981 12.5652 90.2375 11.9524 89.9233 11.3668C89.717 10.9408 89.401 10.5773 89.0077 10.314C88.242 10.389 87.5111 10.6707 86.8929 11.1288C86.2928 11.5309 85.8623 12.1407 85.6843 12.8408L80.7954 32.4608C80.3463 33.2824 79.7541 34.0172 79.0467 34.6306C78.3569 35.2671 77.4492 35.6145 76.5107 35.6011H73.3155C72.898 35.6287 72.4797 35.5606 72.0925 35.4019C71.7054 35.2432 71.3596 34.9982 71.0816 34.6855C70.8251 34.3881 70.6473 34.0312 70.5641 33.6474C70.481 33.2637 70.4952 32.8651 70.6055 32.4883L76.2085 9.97519C76.419 9.04513 76.9839 8.23385 77.7832 7.71383C78.5786 7.12535 79.5404 6.80475 80.5298 6.79829H97.4216C97.9434 6.79829 98.4928 7.20112 99.0513 8.0068C99.658 8.89387 100.144 9.85749 100.498 10.8724C100.908 11.9581 101.214 13.08 101.413 14.2233C101.611 15.0798 101.633 15.9674 101.477 16.8326Z" fill="url(#paint7_linear_1304_7831)"/>
<path d="M152.123 7.68634C151.841 7.37839 151.495 7.1366 151.108 6.97831C150.722 6.82003 150.306 6.74916 149.889 6.7708H129.976C128.987 6.77726 128.025 7.09786 127.229 7.68634C126.434 8.20809 125.872 9.01915 125.664 9.94772L121.681 25.8231C121.574 26.2003 121.561 26.5982 121.644 26.9815C121.727 27.3649 121.903 27.7217 122.157 28.0204C122.435 28.3331 122.781 28.5781 123.168 28.7368C123.556 28.8955 123.974 28.9636 124.391 28.936H144.313C145.305 28.9434 146.271 28.6214 147.06 28.0204C147.835 27.5039 148.395 26.7227 148.635 25.8231L152.617 9.94772C152.73 9.55944 152.743 9.1492 152.657 8.75428C152.571 8.35935 152.387 7.99225 152.123 7.68634ZM141.686 12.8408L139.15 22.985C138.932 23.7406 138.447 24.3914 137.786 24.816C137.066 25.3055 136.211 25.5584 135.341 25.5393H135.103C134.726 25.5685 134.346 25.5194 133.988 25.3949C133.631 25.2704 133.303 25.0734 133.025 24.816C132.8 24.5745 132.645 24.2769 132.576 23.9547C132.507 23.6324 132.526 23.2974 132.631 22.985L135.167 12.8408C135.395 12.0853 135.886 11.436 136.55 11.0097C137.219 10.5258 138.022 10.2633 138.848 10.259H139.205C139.575 10.241 139.945 10.2983 140.293 10.4273C140.641 10.5563 140.959 10.7545 141.228 11.0097C141.471 11.2395 141.644 11.5335 141.727 11.8576C141.809 12.1818 141.798 12.5227 141.695 12.8408H141.686Z" fill="url(#paint8_linear_1304_7831)"/>
<path d="M43.5959 8.50112C43.4677 8.94374 43.2496 9.35515 42.9551 9.70964C42.8229 9.87941 42.6534 10.0165 42.4597 10.1101C42.266 10.2038 42.0533 10.2516 41.8381 10.2498H40.5014C39.6462 10.2273 38.805 10.4704 38.0936 10.9456C37.4254 11.3847 36.9504 12.0627 36.7661 12.8408L33.5068 25.8231C33.2756 26.7096 32.741 27.4871 31.9961 28.0204C31.2096 28.6257 30.2419 28.9483 29.2495 28.9359H26.0451C25.6276 28.9635 25.2093 28.8954 24.8222 28.7367C24.435 28.5781 24.0892 28.333 23.8112 28.0204C23.557 27.7217 23.3804 27.3648 23.2974 26.9815C23.2143 26.5981 23.2273 26.2002 23.3351 25.8231L27.2536 9.93852C27.509 9.05601 28.0622 8.28924 28.8192 7.7687C29.5963 7.13974 30.5661 6.7971 31.5658 6.79824H42.7353C43.5502 6.80739 43.834 7.37501 43.5959 8.50112Z" fill="url(#paint9_linear_1304_7831)"/>
<path d="M123.073 8.43704C122.799 9.56315 122.249 10.1308 121.453 10.1308H119.988C119.195 10.1274 118.418 10.3566 117.754 10.79C117.11 11.1939 116.606 11.7849 116.308 12.4837L113.717 22.9849C113.611 23.2973 113.592 23.6323 113.662 23.9546C113.731 24.2769 113.886 24.5745 114.11 24.816C114.388 25.0733 114.716 25.2704 115.074 25.3949C115.432 25.5193 115.811 25.5685 116.189 25.5393H117.727C117.914 25.5118 118.106 25.5472 118.272 25.6399C118.437 25.7327 118.567 25.8775 118.642 26.052C118.773 26.4349 118.773 26.8501 118.642 27.233C118.358 28.3591 117.727 28.9176 116.894 28.9176H105.513C105.096 28.9452 104.678 28.8771 104.29 28.7184C103.903 28.5598 103.558 28.3147 103.279 28.0021C103.025 27.7034 102.849 27.3465 102.766 26.9632C102.683 26.5798 102.696 26.1819 102.803 25.8048L108.416 3.22764C108.653 2.30489 109.22 1.50072 110.009 0.966259C110.792 0.399444 111.734 0.0949861 112.7 0.096502H115.896C116.313 0.0706066 116.731 0.134888 117.121 0.284971C117.511 0.435054 117.865 0.667417 118.157 0.966259C118.428 1.2679 118.614 1.63677 118.694 2.03447C118.775 2.43218 118.747 2.84419 118.615 3.22764L118.313 4.38121C118.264 4.68892 118.288 5.00368 118.381 5.30075C118.475 5.59782 118.636 5.8691 118.853 6.09327C119.13 6.34218 119.454 6.53222 119.807 6.65183C120.159 6.77145 120.532 6.81813 120.904 6.78907H122.304C122.475 6.76385 122.65 6.79834 122.798 6.88674C122.946 6.97513 123.06 7.11202 123.119 7.27431C123.221 7.65764 123.205 8.06294 123.073 8.43704Z" fill="url(#paint10_linear_1304_7831)"/>
<defs>
<linearGradient id="paint0_linear_1304_7831" x1="146.519" y1="54.3481" x2="112.79" y2="37.4094" gradientUnits="userSpaceOnUse">
<stop stop-color="#F4A42C"/>
<stop offset="1" stop-color="#FF71AC"/>
</linearGradient>
<linearGradient id="paint1_linear_1304_7831" x1="176.669" y1="54.4182" x2="139.898" y2="40.2225" gradientUnits="userSpaceOnUse">
<stop stop-color="#F4A42C"/>
<stop offset="1" stop-color="#FF71AC"/>
</linearGradient>
<linearGradient id="paint2_linear_1304_7831" x1="206.863" y1="54.3481" x2="173.139" y2="37.4153" gradientUnits="userSpaceOnUse">
<stop stop-color="#F4A42C"/>
<stop offset="1" stop-color="#FF71AC"/>
</linearGradient>
<linearGradient id="paint3_linear_1304_7831" x1="116.432" y1="58.5567" x2="77.6391" y2="40.0564" gradientUnits="userSpaceOnUse">
<stop stop-color="#F4A42C"/>
<stop offset="1" stop-color="#FF71AC"/>
</linearGradient>
<linearGradient id="paint4_linear_1304_7831" x1="240.001" y1="58.6116" x2="201.11" y2="40.0696" gradientUnits="userSpaceOnUse">
<stop stop-color="#F4A42C"/>
<stop offset="1" stop-color="#FF71AC"/>
</linearGradient>
<linearGradient id="paint5_linear_1304_7831" x1="25.0371" y1="28.9236" x2="-4.17091" y2="17.1134" gradientUnits="userSpaceOnUse">
<stop stop-color="#F4A42C"/>
<stop offset="1" stop-color="#FF71AC"/>
</linearGradient>
<linearGradient id="paint6_linear_1304_7831" x1="73.1329" y1="35.6225" x2="36.3588" y2="21.4528" gradientUnits="userSpaceOnUse">
<stop stop-color="#F4A42C"/>
<stop offset="1" stop-color="#FF71AC"/>
</linearGradient>
<linearGradient id="paint7_linear_1304_7831" x1="101.58" y1="35.6071" x2="64.8617" y2="21.4576" gradientUnits="userSpaceOnUse">
<stop stop-color="#F4A42C"/>
<stop offset="1" stop-color="#FF71AC"/>
</linearGradient>
<linearGradient id="paint8_linear_1304_7831" x1="152.713" y1="28.942" x2="118.958" y2="12.0133" gradientUnits="userSpaceOnUse">
<stop stop-color="#F4A42C"/>
<stop offset="1" stop-color="#FF71AC"/>
</linearGradient>
<linearGradient id="paint9_linear_1304_7831" x1="43.6773" y1="28.9419" x2="18.6617" y2="20.6934" gradientUnits="userSpaceOnUse">
<stop stop-color="#F4A42C"/>
<stop offset="1" stop-color="#FF71AC"/>
</linearGradient>
<linearGradient id="paint10_linear_1304_7831" x1="123.186" y1="28.9236" x2="97.0768" y2="22.2989" gradientUnits="userSpaceOnUse">
<stop stop-color="#F4A42C"/>
<stop offset="1" stop-color="#FF71AC"/>
</linearGradient>
</defs>
</svg>
