<svg width="28" height="27" viewBox="0 0 28 27" fill="none" xmlns="http://www.w3.org/2000/svg">
    <path fill-rule="evenodd" clip-rule="evenodd" d="M21.6084 5.38257H20.0422C19.0788 2.99066 16.7364 1.30234 13.9996 1.30234C11.2629 1.30234 8.92049 2.99066 7.95712 5.38257H6.37931C7.48773 2.2467 10.4784 0 13.9938 0C17.5093 0 20.5 2.2467 21.6084 5.38257ZM13.9996 2.60467C12.0008 2.60467 10.2649 3.73046 9.39139 5.38257H18.6079C17.7344 3.73046 15.9985 2.60467 13.9996 2.60467ZM4.96472 5.38286C5.19171 4.62016 5.5127 3.89795 5.91425 3.22965H4.03651C3.14468 3.22965 2.42171 3.95262 2.42171 4.84445V5.4239C2.59695 5.39688 2.77647 5.38286 2.95927 5.38286H4.96472ZM23.0239 5.38286H25.0282C25.2115 5.38286 25.3915 5.39695 25.5671 5.42412V4.84445C25.5671 3.95262 24.8442 3.22965 23.9524 3.22965H22.0743C22.4759 3.89795 22.7969 4.62016 23.0239 5.38286ZM0 8.34282C0 7.451 0.72297 6.72803 1.6148 6.72803H26.375C27.2669 6.72803 27.9898 7.451 27.9898 8.34282V13.9945H26.6445C25.1581 13.9945 23.9532 15.1994 23.9532 16.6858C23.9532 18.1722 25.1581 19.3772 26.6445 19.3772H27.9898V25.0291C27.9898 25.9209 27.2669 26.6439 26.375 26.6439H1.6148C0.72297 26.6439 0 25.9209 0 25.0291V8.34282ZM20.7072 15.3875H23.0112C22.9559 14.8227 22.8131 14.3207 22.5827 13.8817C22.3523 13.4427 22.0528 13.0728 21.6841 12.7719C21.3155 12.468 20.8885 12.2378 20.4031 12.0812C19.9178 11.9216 19.3894 11.8417 18.818 11.8417C17.9794 11.8417 17.2221 12.029 16.5463 12.4035C15.8705 12.7781 15.3344 13.3261 14.9381 14.0475C14.5419 14.7689 14.3437 15.6485 14.3437 16.6861C14.3437 17.7207 14.5388 18.5987 14.9289 19.3202C15.3191 20.0416 15.8505 20.5911 16.5233 20.9687C17.1991 21.3433 17.964 21.5305 18.818 21.5305C19.4662 21.5305 20.0406 21.4323 20.5414 21.2358C21.0452 21.0393 21.4722 20.7753 21.8224 20.4438C22.1726 20.1091 22.4475 19.7392 22.6472 19.334C22.8499 18.9287 22.9713 18.5174 23.0112 18.0998L20.7072 18.086C20.6673 18.3132 20.5951 18.5174 20.4907 18.6985C20.3893 18.8765 20.2587 19.0285 20.099 19.1544C19.9423 19.2772 19.7596 19.3708 19.5507 19.4353C19.3448 19.4997 19.116 19.532 18.8641 19.532C18.4156 19.532 18.027 19.4261 17.6983 19.2142C17.3727 18.9993 17.1192 18.6816 16.938 18.261C16.7598 17.8374 16.6707 17.3124 16.6707 16.6861C16.6707 16.0844 16.7583 15.5717 16.9334 15.1481C17.1115 14.7244 17.365 14.4005 17.6937 14.1764C18.0254 13.9523 18.4202 13.8403 18.8779 13.8403C19.136 13.8403 19.371 13.8771 19.5829 13.9508C19.798 14.0214 19.9838 14.1242 20.1405 14.2593C20.2971 14.3944 20.4231 14.5571 20.5183 14.7474C20.6136 14.9378 20.6765 15.1511 20.7072 15.3875ZM13.0109 21.4016V11.9707H10.7346V17.4045H10.6562L6.94227 11.9707H4.9793V21.4016H7.26021V15.9585H7.32012L11.0756 21.4016H13.0109ZM26.6447 15.3405C25.9015 15.3405 25.299 15.943 25.299 16.6862C25.299 17.4293 25.9015 18.0318 26.6447 18.0318C27.3878 18.0318 27.9903 17.4293 27.9903 16.6862C27.9903 15.943 27.3878 15.3405 26.6447 15.3405Z" fill="#F38568"/>
</svg>
