<svg width="21" height="21" viewBox="0 0 21 21" fill="none" xmlns="http://www.w3.org/2000/svg">
    <path d="M12.0848 8.91504C12.4742 9.30435 12.474 9.93559 12.0845 10.3247L2.20015 20.2004C1.81333 20.5868 1.18649 20.5867 0.799844 20.2C0.413194 19.8134 0.413055 19.1866 0.799534 18.7997L10.6752 8.91535C11.0643 8.52587 11.6955 8.52573 12.0848 8.91504ZM17.2698 6.73004C17.5957 6.40419 17.5957 5.87589 17.2698 5.55004L17.0698 5.35004C17.4233 4.99658 17.4233 4.42351 17.0698 4.07004L16.9298 3.93004C16.5764 3.57658 16.0033 3.57658 15.6498 3.93004L15.4498 3.73004C15.124 3.4042 14.5957 3.40419 14.2698 3.73004C12.7706 2.50649 11.1079 1.49082 9.33316 0.72143C8.85141 0.512586 8.2986 0.739361 8.07772 1.21571L8.04005 1.29694C7.81587 1.78042 8.0114 2.35288 8.47333 2.61864C9.90479 3.4422 11.241 4.4007 12.4998 5.50004C12.2237 5.77619 12.2237 6.2239 12.4998 6.50004L14.4998 8.50004C14.776 8.77619 15.2237 8.77619 15.4998 8.50004C16.5992 9.75884 17.5577 11.0951 18.3812 12.5266C18.647 12.9885 19.2195 13.184 19.7029 12.9598L19.7842 12.9222C20.2605 12.7013 20.4873 12.1485 20.2785 11.6667C19.5091 9.89195 18.4934 8.22933 17.2698 6.73004Z" fill="url(#paint0_linear_2580_535)"/>
    <defs>
        <linearGradient id="paint0_linear_2580_535" x1="10.433" y1="0.643555" x2="10.433" y2="20.4901" gradientUnits="userSpaceOnUse">
            <stop stop-color="#F7A86F"/>
            <stop offset="1" stop-color="#F07264"/>
        </linearGradient>
    </defs>
</svg>
