<svg width="24" height="24" viewBox="0 0 24 24" fill="none" xmlns="http://www.w3.org/2000/svg">
    <g clip-path="url(#clip0_1513_11483)">
        <path fill-rule="evenodd" clip-rule="evenodd" d="M24 12C24 18.6274 18.6274 24 12 24C5.37257 24 0 18.6274 0 12C0 5.37257 5.37257 0 12 0C18.6274 0 24 5.37257 24 12Z" fill="#D80027"/>
        <path fill-rule="evenodd" clip-rule="evenodd" d="M8.57143 23.5028C3.61459 22.0276 0 17.4358 0 11.9998C0 6.56375 3.61459 1.97193 8.57143 0.496704V23.5028Z" fill="#359846"/>
        <path fill-rule="evenodd" clip-rule="evenodd" d="M8.57145 9.42855C7.15128 9.42855 6.00003 10.5798 6.00003 12C6.00003 13.4202 7.15128 14.5714 8.57145 14.5714C9.99163 14.5714 11.1429 13.4202 11.1429 12C11.1429 10.5798 9.99163 9.42855 8.57145 9.42855ZM5.14288 12C5.14288 10.1064 6.67792 8.57141 8.57145 8.57141C10.465 8.57141 12 10.1064 12 12C12 13.8935 10.465 15.4286 8.57145 15.4286C6.67792 15.4286 5.14288 13.8935 5.14288 12Z" fill="#FFDA44"/>
        <path fill-rule="evenodd" clip-rule="evenodd" d="M10.4107 14.4461L6.125 10.1604L6.73105 9.55432L11.0168 13.84L10.4107 14.4461Z" fill="#FFDA44"/>
        <path fill-rule="evenodd" clip-rule="evenodd" d="M8.14288 15.0304V8.96948H9.00003V15.0304H8.14288Z" fill="#FFDA44"/>
        <path fill-rule="evenodd" clip-rule="evenodd" d="M5.57141 11.6019H11.6323V12.4591H5.57141V11.6019Z" fill="#FFDA44"/>
        <path fill-rule="evenodd" clip-rule="evenodd" d="M6.73105 14.4461L11.0168 10.1604L10.4107 9.55432L6.125 13.84L6.73105 14.4461Z" fill="#FFDA44"/>
        <path d="M9.85712 10.2858H7.28569C7.04901 10.2858 6.85712 10.4777 6.85712 10.7143V12.4286C6.85712 13.3754 7.62463 14.1429 8.5714 14.1429C9.51817 14.1429 10.2857 13.3754 10.2857 12.4286V10.7143C10.2857 10.4777 10.0938 10.2858 9.85712 10.2858Z" fill="#D80027"/>
        <path d="M9.42858 11.1428H7.71429V12.4285C7.71429 12.9019 8.09803 13.2857 8.57144 13.2857C9.04485 13.2857 9.42858 12.9019 9.42858 12.4285V11.1428Z" fill="#FBFBFB"/>
    </g>
    <defs>
        <clipPath id="clip0_1513_11483">
            <rect width="24" height="24" fill="white"/>
        </clipPath>
    </defs>
</svg>
