<svg width="234" height="51" viewBox="0 0 234 51" fill="none" xmlns="http://www.w3.org/2000/svg">
    <path d="M96.1218 13.1374C95.7018 12.7025 95.1927 12.3637 94.6293 12.1444C94.0659 11.925 93.4616 11.8303 92.8581 11.8667H63.7666C62.3294 11.8621 60.9266 12.3063 59.754 13.1374C58.5913 13.8996 57.771 15.0845 57.4668 16.4411L51.6485 39.6341C51.4911 40.1872 51.4722 40.7706 51.5935 41.3327C51.7148 41.8949 51.9725 42.4186 52.3441 42.8575C52.7503 43.3144 53.2554 43.6723 53.8211 43.9041C54.3867 44.1359 54.9977 44.2355 55.6076 44.1951H84.6991C86.1478 44.205 87.5588 43.7346 88.7118 42.8575C89.8411 42.0944 90.6579 40.9501 91.0125 39.6341L96.8307 16.4411C96.9969 15.8749 97.019 15.2762 96.8952 14.6993C96.7714 14.1224 96.5056 13.5855 96.1218 13.1374ZM80.8604 20.6811L77.1688 35.5011C76.8521 36.6055 76.1435 37.5567 75.1759 38.1761C74.1209 38.8841 72.875 39.2528 71.6047 39.2328H71.2034C70.6518 39.2755 70.0974 39.2037 69.5749 39.0218C69.0524 38.84 68.573 38.5521 68.1671 38.1761C67.8394 37.8233 67.613 37.3885 67.5118 36.9177C67.4105 36.4469 67.4383 35.9574 67.5921 35.5011L71.2969 20.6945C71.6302 19.5907 72.3464 18.6422 73.3166 18.0194C74.2926 17.3084 75.4664 16.9203 76.6739 16.9092H77.1956C77.7377 16.8848 78.2792 16.9705 78.7873 17.1613C79.2954 17.3522 79.7594 17.644 80.1515 18.0194C80.513 18.348 80.7722 18.7738 80.898 19.2459C81.0237 19.7179 81.0106 20.2162 80.8604 20.6811Z" fill="url(#paint0_linear_1304_7831)"/>
    <path d="M140.207 13.2309C139.801 12.7741 139.296 12.4161 138.73 12.1843C138.164 11.9525 137.553 11.853 136.943 11.8934H122.137C121.625 11.9191 121.114 11.8385 120.635 11.6566C120.156 11.4748 119.72 11.1956 119.355 10.8367C119.026 10.5022 118.78 10.0965 118.633 9.65111C118.487 9.20572 118.446 8.73265 118.512 8.26863L118.873 6.77058C119.029 6.21855 119.046 5.63656 118.922 5.07647C118.798 4.51639 118.538 3.99558 118.164 3.56047C117.758 3.10367 117.253 2.74571 116.687 2.5139C116.122 2.2821 115.511 2.18257 114.901 2.22293H110.233C108.784 2.21306 107.373 2.68342 106.22 3.56047C105.095 4.31914 104.283 5.45943 103.933 6.77058L95.7337 39.6607C95.5366 40.2196 95.4935 40.8211 95.6088 41.4024C95.7241 41.9836 95.9936 42.5232 96.3891 42.9645C96.8113 43.4117 97.325 43.7627 97.8951 43.9935C98.4653 44.2243 99.0785 44.3295 99.693 44.302H128.798C130.213 44.282 131.585 43.8137 132.717 42.9645C133.872 42.1833 134.703 41.0093 135.057 39.6607L140.876 16.4678C141.042 15.9151 141.067 15.3299 140.951 14.7648C140.834 14.1997 140.578 13.6726 140.207 13.2309ZM124.959 20.5874L121.254 35.4073C120.915 36.512 120.195 37.4602 119.221 38.0824C118.218 38.7981 117.016 39.1817 115.783 39.1792H115.249C114.722 39.2012 114.196 39.1153 113.704 38.9267C113.212 38.7381 112.763 38.4508 112.386 38.0824C112.034 37.7448 111.786 37.3139 111.669 36.8402C111.553 36.3665 111.575 35.8694 111.731 35.4073L115.516 20.3199C115.659 19.7608 115.913 19.2361 116.262 18.7766C116.611 18.3172 117.049 17.9323 117.549 17.6448C118.579 16.9999 119.771 16.6613 120.987 16.6684H121.334C121.892 16.6309 122.451 16.7102 122.976 16.9014C123.501 17.0926 123.981 17.3913 124.384 17.7786C124.721 18.1534 124.952 18.6112 125.053 19.1049C125.154 19.5986 125.121 20.1103 124.959 20.5874Z" fill="url(#paint1_linear_1304_7831)"/>
    <path d="M184.292 13.1373C183.872 12.7024 183.363 12.3637 182.799 12.1443C182.236 11.925 181.632 11.8302 181.028 11.8666H151.937C150.499 11.8621 149.097 12.3063 147.924 13.1373C146.761 13.8995 145.941 15.0844 145.637 16.441L139.819 39.634C139.661 40.1871 139.642 40.7705 139.763 41.3327C139.885 41.8948 140.142 42.4185 140.514 42.8575C140.92 43.3143 141.425 43.6722 141.991 43.904C142.557 44.1359 143.168 44.2354 143.778 44.195H172.856C174.304 44.2049 175.715 43.7345 176.868 42.8575C177.998 42.0944 178.814 40.95 179.169 39.634L184.987 16.441C185.155 15.8759 185.18 15.2779 185.058 14.701C184.937 14.1242 184.673 13.5867 184.292 13.1373ZM169.03 20.681L165.339 35.501C165.022 36.6055 164.314 37.5566 163.346 38.1761C162.291 38.884 161.045 39.2527 159.775 39.2327H159.48C158.929 39.2754 158.374 39.2036 157.852 39.0218C157.329 38.8399 156.85 38.552 156.444 38.1761C156.116 37.8233 155.89 37.3885 155.789 36.9177C155.687 36.4468 155.715 35.9574 155.869 35.501L159.574 20.6944C159.907 19.5907 160.623 18.6421 161.594 18.0193C162.57 17.3083 163.743 16.9202 164.951 16.9092H165.473C166.015 16.8847 166.556 16.9705 167.064 17.1613C167.572 17.3521 168.036 17.644 168.428 18.0193C168.771 18.3598 169.01 18.7911 169.117 19.2625C169.224 19.734 169.194 20.2261 169.03 20.681Z" fill="url(#paint2_linear_1304_7831)"/>
    <path d="M52.262 13.2978C51.8559 12.841 51.3507 12.4831 50.7851 12.2513C50.2195 12.0195 49.6085 11.9199 48.9985 11.9603H15.493C14.0443 11.9494 12.6329 12.4199 11.4804 13.2978C10.3477 14.0574 9.53 15.2032 9.17987 16.5213L1.95711 45.7065C1.76002 46.2653 1.71689 46.8669 1.8322 47.4481C1.94751 48.0294 2.217 48.5689 2.61249 49.0102C3.0358 49.4561 3.54966 49.8061 4.11951 50.0368C4.68936 50.2675 5.30194 50.3735 5.91618 50.3478H10.5976C12.0125 50.3278 13.3847 49.8595 14.5166 49.0102C15.6689 48.2265 16.5 47.0535 16.8573 45.7065L18.1949 39.9684C18.4781 38.9418 19.0434 38.015 19.8266 37.2933C20.578 36.5829 21.5748 36.19 22.6088 36.1966H27.0092C27.5443 36.1966 28.0526 36.5845 28.5608 37.3469C29.101 38.1882 29.5494 39.085 29.8984 40.0219C30.2746 41.05 30.5522 42.1114 30.7276 43.1919C30.9055 44.0207 30.9055 44.8777 30.7276 45.7065C30.5337 46.2667 30.4935 46.8686 30.6111 47.4496C30.7287 48.0307 30.9999 48.5695 31.3964 49.0102C31.8181 49.4582 32.3317 49.8096 32.902 50.0405C33.4722 50.2714 34.0856 50.3762 34.7001 50.3478H39.3681C40.7877 50.3306 42.165 49.8621 43.3006 49.0102C44.4531 48.2294 45.2807 47.0546 45.6279 45.7065L45.989 44.369C46.1872 42.9198 46.0639 41.4448 45.6279 40.0487C45.1666 38.1865 44.5768 36.3586 43.8624 34.5781C45.1544 34.3856 46.3725 33.855 47.3934 33.04C48.4156 32.3258 49.1617 31.2823 49.5068 30.084L52.864 16.508C53.0319 15.9642 53.0647 15.3878 52.9599 14.8285C52.855 14.2692 52.6155 13.7438 52.262 13.2978ZM37.0944 20.7881L35.3289 27.5828C35.0898 28.5342 34.5504 29.3832 33.7907 30.0037C32.993 30.6803 32.035 31.1408 31.0085 31.3413H23.9598C23.5108 31.3772 23.0607 31.2843 22.6627 31.0734C22.2647 30.8625 21.9351 30.5425 21.7126 30.1509C21.4809 29.7649 21.3306 29.3356 21.2708 28.8894C21.211 28.4432 21.243 27.9894 21.3649 27.556L23.1305 20.7613C23.4046 19.6126 24.0958 18.6068 25.0699 17.9391C26.1033 17.2282 27.3335 16.8587 28.5876 16.8825H33.3492C33.9086 16.8441 34.4701 16.9178 35.0007 17.0993C35.5312 17.2807 36.0202 17.5662 36.439 17.9391C36.8031 18.3056 37.0576 18.7666 37.1734 19.27C37.2892 19.7735 37.2618 20.2993 37.0944 20.7881Z" fill="url(#paint3_linear_1304_7831)"/>
    <path d="M233.367 16.5213L232.404 20.5339C232.207 21.2519 231.924 21.9435 231.562 22.5937C231.061 23.5411 230.503 24.4569 229.89 25.3357C229.207 26.2987 228.472 27.3019 227.683 28.3318C226.893 29.3617 226.078 30.3113 225.262 31.1941C226.042 33.0657 226.616 35.0166 226.974 37.0124C227.353 38.5725 227.398 40.1951 227.108 41.7741L226.144 45.7867C225.787 47.1337 224.956 48.3067 223.804 49.0904C222.672 49.9397 221.3 50.408 219.885 50.428H215.203C214.589 50.4537 213.976 50.3477 213.407 50.117C212.837 49.8863 212.323 49.5362 211.9 49.0904C211.504 48.6491 211.235 48.1096 211.119 47.5283C211.004 46.9471 211.047 46.3455 211.244 45.7867L211.86 43.1116C212.037 42.2829 212.037 41.4258 211.86 40.597C211.686 39.5147 211.404 38.4527 211.017 37.4271C210.679 36.4854 210.23 35.5873 209.679 34.752C209.184 33.9896 208.676 33.6017 208.141 33.6017H206.376C205.566 33.7469 204.824 34.1504 204.262 34.752C203.305 35.5756 202.411 36.4698 201.587 37.4271C200.726 38.4312 199.931 39.4901 199.206 40.597C198.659 41.3772 198.21 42.2218 197.869 43.1116L197.254 45.7867C196.906 47.1348 196.079 48.3096 194.926 49.0904C193.791 49.9423 192.413 50.4108 190.994 50.428H186.326C185.711 50.4564 185.098 50.3516 184.528 50.1207C183.957 49.8898 183.444 49.5384 183.022 49.0904C182.626 48.6497 182.354 48.1108 182.237 47.5298C182.119 46.9488 182.159 46.3469 182.353 45.7867L183.33 41.7741C183.517 41.0505 183.795 40.3538 184.159 39.7009C184.662 38.7733 185.225 37.8797 185.844 37.0258C186.513 36.0494 187.182 35.073 187.998 34.0698C188.814 33.0667 189.563 32.1304 190.379 31.2476C190.017 30.3253 189.709 29.383 189.456 28.4254C189.188 27.4222 188.974 26.4325 188.787 25.4293C188.626 24.5093 188.524 23.5801 188.479 22.6472C188.439 21.9577 188.484 21.2659 188.613 20.5874L189.589 16.5748C189.933 15.2251 190.762 14.0492 191.917 13.271C193.052 12.4191 194.43 11.9507 195.849 11.9335H200.517C201.132 11.9051 201.745 12.0099 202.315 12.2408C202.886 12.4717 203.399 12.8231 203.821 13.271C204.219 13.711 204.491 14.2499 204.608 14.8312C204.726 15.4125 204.685 16.0148 204.49 16.5748L203.874 19.2499C203.684 20.0908 203.684 20.9636 203.874 21.8046C204.053 22.8714 204.331 23.9192 204.704 24.9344C205.053 25.8713 205.501 26.7682 206.041 27.6095C206.536 28.3719 207.058 28.7598 207.593 28.7598H209.345C210.16 28.6182 210.907 28.2143 211.472 27.6095C212.426 26.7825 213.32 25.8885 214.147 24.9344C215.001 23.9387 215.796 22.8936 216.528 21.8046C217.1 21.0258 217.552 20.1644 217.865 19.2499L218.48 16.5748C218.834 15.2262 219.666 14.0522 220.821 13.271C221.953 12.4218 223.325 11.9535 224.74 11.9335H229.421C230.036 11.906 230.649 12.0112 231.219 12.242C231.789 12.4728 232.303 12.8238 232.725 13.271C233.109 13.7083 233.37 14.2391 233.483 14.8099C233.596 15.3806 233.556 15.9709 233.367 16.5213Z" fill="url(#paint4_linear_1304_7831)"/>
    <defs>
        <linearGradient id="paint0_linear_1304_7831" x1="74.2444" y1="11.8591" x2="74.2444" y2="44.2038" gradientUnits="userSpaceOnUse">
            <stop stop-color="#F7A86F"/>
            <stop offset="1" stop-color="#F07264"/>
        </linearGradient>
        <linearGradient id="paint1_linear_1304_7831" x1="118.284" y1="2.21417" x2="118.284" y2="44.3063" gradientUnits="userSpaceOnUse">
            <stop stop-color="#F7A86F"/>
            <stop offset="1" stop-color="#F07264"/>
        </linearGradient>
        <linearGradient id="paint2_linear_1304_7831" x1="162.409" y1="11.859" x2="162.409" y2="44.2038" gradientUnits="userSpaceOnUse">
            <stop stop-color="#F7A86F"/>
            <stop offset="1" stop-color="#F07264"/>
        </linearGradient>
        <linearGradient id="paint3_linear_1304_7831" x1="27.3945" y1="11.9515" x2="27.3945" y2="50.3523" gradientUnits="userSpaceOnUse">
            <stop stop-color="#F7A86F"/>
            <stop offset="1" stop-color="#F07264"/>
        </linearGradient>
        <linearGradient id="paint4_linear_1304_7831" x1="207.858" y1="11.929" x2="207.858" y2="50.4325" gradientUnits="userSpaceOnUse">
            <stop stop-color="#F7A86F"/>
            <stop offset="1" stop-color="#F07264"/>
        </linearGradient>
    </defs>
</svg>
