<svg width="54" height="54" viewBox="0 0 54 54" fill="none" xmlns="http://www.w3.org/2000/svg">
<circle cx="27" cy="27" r="27" fill="white"/>
<path fill-rule="evenodd" clip-rule="evenodd" d="M27 47.4571C38.2982 47.4571 47.4571 38.2982 47.4571 27C47.4571 15.7018 38.2982 6.54286 27 6.54286C15.7018 6.54286 6.54286 15.7018 6.54286 27C6.54286 38.2982 15.7018 47.4571 27 47.4571ZM27 49C39.1503 49 49 39.1503 49 27C49 14.8497 39.1503 5 27 5C14.8497 5 5 14.8497 5 27C5 39.1503 14.8497 49 27 49Z" fill="url(#paint0_linear_1525_12148)"/>
<path fill-rule="evenodd" clip-rule="evenodd" d="M34.655 37.6653C34.7672 37.3954 34.8202 37.1058 34.8105 36.8151C34.8105 36.066 34.3326 35.1769 33.4493 34.1688L30.4734 30.9554C30.394 30.8698 30.3376 30.7666 30.3093 30.655C30.2809 30.5434 30.2814 30.4267 30.3108 30.3153C30.3401 30.2039 30.3974 30.1012 30.4775 30.0162C30.5577 29.9313 30.6582 29.8667 30.7702 29.8283C31.7572 29.5412 32.647 29.0047 33.3479 28.2741C34.1957 27.3399 34.6685 26.1425 34.6802 24.8997V21.2733C34.7195 20.3384 34.5178 19.4087 34.0931 18.5679C33.6684 17.7271 33.0341 17.0017 32.2473 16.4568C31.2059 15.7749 30.0172 15.332 28.7718 15.1617C28.0539 15.0472 27.3271 14.9934 26.5996 15.0007H22.6173H22.2552L21.857 15.0637L21.4588 15.1407L21.2488 15.1967C20.9924 15.2659 20.7483 15.3721 20.5247 15.5117C20.4592 15.5497 20.3963 15.5918 20.3365 15.6377C20.2086 15.7378 20.0943 15.8531 19.9961 15.9808C19.9486 16.0346 19.9073 16.0933 19.873 16.1558C19.8619 16.1752 19.848 16.1945 19.8342 16.2139C19.8029 16.2576 19.7717 16.3012 19.7717 16.3448C19.6683 16.5657 19.607 16.8029 19.5907 17.0449V17.3109C19.5641 17.684 19.6481 18.0566 19.8328 18.3852C20.0174 18.7138 20.2951 18.9847 20.6333 19.1661C20.8202 19.2365 21.0192 19.2721 21.2198 19.2711H26.5996C27.2364 19.238 27.8721 19.3533 28.4532 19.6072C28.8401 19.8065 29.1569 20.1127 29.3632 20.4867C29.5696 20.8607 29.6561 21.2857 29.6117 21.7074V24.8857C29.6117 26.5799 28.5836 27.434 26.5417 27.434H22.5304C21.7277 27.434 20.9578 27.7423 20.3902 28.2911C19.8226 28.8399 19.5038 29.5842 19.5038 30.3603V35.5269C19.5038 37.7252 20.3002 38.8313 21.9077 38.8313C23.5103 38.8313 24.3116 37.7322 24.3116 35.5339V32.5166C24.3124 32.3719 24.3596 32.2311 24.4466 32.1135C24.5336 31.9958 24.6562 31.9071 24.7975 31.8595C24.9387 31.8119 25.0918 31.8078 25.2356 31.8478C25.3794 31.8877 25.5068 31.9697 25.6004 32.0825L29.9448 37.3471C30.8499 38.4462 31.7115 38.9993 32.5225 38.9993C32.8239 39.0066 33.1237 38.956 33.4047 38.8502C33.6856 38.7444 33.942 38.5857 34.1589 38.3832C34.3739 38.1797 34.5429 37.9353 34.655 37.6653ZM18.4176 21.0703H24.6445C26.9181 21.0703 28.0477 21.8404 28.0477 23.4016C28.0477 24.9464 26.9157 25.7188 24.6518 25.7188H18.4103C16.1368 25.7188 15 24.9487 15 23.3946C15 21.8404 16.144 21.0703 18.4176 21.0703Z" fill="url(#paint1_linear_1525_12148)"/>
<defs>
<linearGradient id="paint0_linear_1525_12148" x1="49" y1="49" x2="-3.96026" y2="30.0761" gradientUnits="userSpaceOnUse">
<stop stop-color="#F4A42C"/>
<stop offset="1" stop-color="#FF71AC"/>
</linearGradient>
<linearGradient id="paint1_linear_1525_12148" x1="34.8115" y1="39" x2="10.0732" y2="31.7031" gradientUnits="userSpaceOnUse">
<stop stop-color="#F4A42C"/>
<stop offset="1" stop-color="#FF71AC"/>
</linearGradient>
</defs>
</svg>
